<?xml version="1.0" encoding="UTF-8"?>
<svg version="1.1" xmlns="http://www.w3.org/2000/svg" width="1536" height="1024">
<path d="M0 0 C506.88 0 1013.76 0 1536 0 C1536 337.92 1536 675.84 1536 1024 C1029.12 1024 522.24 1024 0 1024 C0 686.08 0 348.16 0 0 Z " fill="#FDFDFD" transform="translate(0,0)"/>
<path d="M0 0 C2.99409928 0.30880845 3.94137101 0.93589593 6.0078125 3.1953125 C6.70648437 4.16210938 7.40515625 5.12890625 8.125 6.125 C8.70423218 6.92417847 8.70423218 6.92417847 9.29516602 7.73950195 C10.54650257 9.48203143 11.77610218 11.23810407 13 13 C13.40557129 13.58152832 13.81114258 14.16305664 14.22900391 14.76220703 C32.13070342 40.60756327 47.40391787 68.99015774 57.29736328 98.88574219 C57.82461646 100.47226496 58.36097729 102.05576573 58.90185547 103.63769531 C63.84259488 118.11992122 67.64078314 132.49810155 70.50927734 147.52392578 C71.1196301 150.60362611 71.86085504 153.64267626 72.625 156.6875 C73.94198523 162.2697215 74.80587641 167.88999433 75.625 173.5625 C75.7482666 174.41352295 75.8715332 175.2645459 75.99853516 176.14135742 C77.55310378 187.37058925 78.16943124 198.52347109 78.23828125 209.85546875 C78.246353 211.15535233 78.25442474 212.4552359 78.26274109 213.79450989 C78.27764477 216.53675186 78.28753629 219.27896925 78.29516602 222.02124023 C78.30394922 224.77570231 78.3246638 227.52964725 78.35668945 230.28393555 C78.55030619 247.32437932 77.72189741 263.69900499 74.47994995 280.48513794 C73.848129 283.7957801 73.32229974 287.11497847 72.8046875 290.4453125 C72.49541819 292.33864411 72.18556872 294.2318811 71.875 296.125 C71.64103516 297.58486328 71.64103516 297.58486328 71.40234375 299.07421875 C70.56210417 304.17815336 69.4953584 309.03965068 68 314 C67.09745523 317.47230008 66.23746316 320.95505428 65.375 324.4375 C65.14554688 325.35982422 64.91609375 326.28214844 64.6796875 327.23242188 C64.11871094 329.48801514 63.55884151 331.74387699 63 334 C62.34 334 61.68 334 61 334 C60.7525 335.27875 60.505 336.5575 60.25 337.875 C59.06521169 343.18583433 57.12048379 348.00328907 55 353 C54.61714844 353.95003906 54.23429687 354.90007812 53.83984375 355.87890625 C51.73892471 361.0602725 49.49227857 366.08808228 46.9375 371.0625 C44.50967202 375.81205551 42.57231201 380.57634356 40.859375 385.625 C40.05247159 387.85498761 39.10578775 389.9048232 38 392 C37.34 392 36.68 392 36 392 C35.34 393.98 34.68 395.96 34 398 C33.34 398 32.68 398 32 398 C31.89816406 398.54527344 31.79632812 399.09054687 31.69140625 399.65234375 C28.95212062 408.95353394 21.76462624 417.36346561 16 425 C15.21882813 426.04929687 14.43765625 427.09859375 13.6328125 428.1796875 C11.43344758 431.1289998 9.23018864 434.07392543 7 437 C6.29359375 437.94101562 5.5871875 438.88203125 4.859375 439.8515625 C3.93898438 440.91503906 3.93898438 440.91503906 3 442 C2.34 442 1.68 442 1 442 C0.71125 442.598125 0.4225 443.19625 0.125 443.8125 C-1 446 -1 446 -3 449 C-3.66 449 -4.32 449 -5 449 C-5.26103516 449.58555664 -5.52207031 450.17111328 -5.79101562 450.77441406 C-7.07392143 453.13607992 -8.45067091 454.70913291 -10.34375 456.609375 C-11.00874512 457.27839844 -11.67374023 457.94742187 -12.35888672 458.63671875 C-13.0654541 459.33410156 -13.77202148 460.03148437 -14.5 460.75 C-15.57725342 461.81927734 -15.57725342 461.81927734 -16.67626953 462.91015625 C-31.02047746 477 -31.02047746 477 -35 477 C-35.25346191 477.5990918 -35.50692383 478.19818359 -35.76806641 478.81542969 C-37.15346079 481.27212984 -38.42166013 482.33111587 -40.7109375 483.953125 C-41.45561279 484.48615234 -42.20028809 485.01917969 -42.9675293 485.56835938 C-43.76199463 486.12330078 -44.55645996 486.67824219 -45.375 487.25 C-46.18557861 487.82556641 -46.99615723 488.40113281 -47.83129883 488.99414062 C-53.33150182 492.88241266 -58.89196896 496.66963855 -64.52734375 500.359375 C-66.6512159 501.76857927 -68.70457185 503.23080057 -70.75 504.75 C-76.41243067 508.67014431 -82.58764682 511.31820451 -88.921875 513.97265625 C-91.06432329 514.95105722 -91.06432329 514.95105722 -92.98828125 516.50390625 C-95.09646999 518.0717437 -96.98793462 518.94143883 -99.4375 519.875 C-100.31019531 520.21144531 -101.18289063 520.54789063 -102.08203125 520.89453125 C-103.04496094 521.25933594 -104.00789063 521.62414062 -105 522 C-106.61455078 522.62455078 -106.61455078 522.62455078 -108.26171875 523.26171875 C-111.50473563 524.5159866 -114.75207348 525.75851457 -118 527 C-119.11568359 527.43505859 -119.11568359 527.43505859 -120.25390625 527.87890625 C-124.67442406 529.584601 -129.14232229 530.96845708 -133.703125 532.25390625 C-135.97715281 532.9215611 -135.97715281 532.9215611 -137.86450195 533.97705078 C-140.07735877 535.03705651 -142.07086437 535.59153908 -144.46484375 536.11328125 C-145.33665283 536.30688232 -146.20846191 536.5004834 -147.10668945 536.69995117 C-148.04085693 536.90209229 -148.97502441 537.1042334 -149.9375 537.3125 C-155.81468199 538.60681278 -161.68607471 539.90206619 -167.5234375 541.3671875 C-178.33739924 544.08060264 -188.87746788 546.10928812 -200 547 C-201.05799805 547.08878418 -202.11599609 547.17756836 -203.20605469 547.26904297 C-230.23234743 549.48204927 -256.7860726 549.49832556 -283.80859375 547.25830078 C-285.84114018 547.09379389 -287.8750308 546.9446499 -289.91015625 546.81591797 C-306.18856683 545.71131154 -322.18445235 541.76134634 -338.0949707 538.32861328 C-340.56402841 537.79702198 -343.03392878 537.26948588 -345.50390625 536.7421875 C-346.60878136 536.50156082 -346.60878136 536.50156082 -347.73597717 536.256073 C-349.81992502 535.81167321 -351.90647082 535.39666425 -354 535 C-354.67566513 534.86712082 -355.35133026 534.73424164 -356.04747009 534.59733582 C-361.0686054 533.76486719 -364.59668318 534.42695308 -369.37109375 536.06640625 C-370.05296249 536.29485733 -370.73483124 536.52330841 -371.43736267 536.75868225 C-372.88774919 537.24547645 -374.33591645 537.73892717 -375.78192139 538.23858643 C-378.72939817 539.25038503 -381.6933002 540.2084523 -384.65762329 541.16952515 C-387.69732253 542.15843328 -390.73066977 543.16606187 -393.76391602 544.17456055 C-396.06321628 544.93773774 -398.36458314 545.69445286 -400.66601562 546.45117188 C-414.89790033 551.16044407 -428.64130523 556.64307211 -442.18359375 563.09375 C-443.00214844 563.47273437 -443.82070313 563.85171875 -444.6640625 564.2421875 C-445.73841553 564.75048096 -445.73841553 564.75048096 -446.83447266 565.26904297 C-449.3498672 566.11809497 -451.36191095 566.19843287 -454 566 C-455 565 -455 565 -455.33984375 562.29296875 C-454.89872762 558.01870556 -453.4111574 556.49068246 -450.5625 553.3125 C-449.63202595 552.25459754 -448.70235371 551.19598937 -447.7734375 550.13671875 C-447.30389648 549.60997559 -446.83435547 549.08323242 -446.35058594 548.54052734 C-444.38426664 546.29767218 -442.54297079 543.95985823 -440.6875 541.625 C-436.58771143 536.5931103 -432.23147385 531.84080826 -427.7800293 527.12158203 C-425.01684631 524.19029502 -422.31810047 521.22651592 -419.69140625 518.171875 C-415.52542742 513.38272559 -411.05992432 508.91349101 -406.5625 504.4375 C-405.75490234 503.62603516 -404.94730469 502.81457031 -404.11523438 501.97851562 C-399.82671053 497.69690318 -395.46398749 493.57517923 -390.86938477 489.62426758 C-387.89684587 487.04149348 -385.05178749 484.32639355 -382.1875 481.625 C-376.32622952 476.14727954 -370.29734048 470.97481139 -364 466 C-362.47052734 464.77796875 -362.47052734 464.77796875 -360.91015625 463.53125 C-346.05871367 451.71273977 -330.99672271 440.28802278 -314.90380859 430.20703125 C-313.14417679 429.09140934 -311.40872005 427.9379001 -309.67578125 426.78125 C-288.20936487 412.48756865 -264.58574289 401.32142188 -241.03613281 390.92626953 C-239.00943128 390.04523879 -239.00943128 390.04523879 -237.21801758 388.96289062 C-234.02219543 387.57551335 -230.73321079 387.18139081 -227.30859375 386.7109375 C-226.16127777 386.54816818 -226.16127777 386.54816818 -224.99078369 386.3821106 C-222.47459759 386.03317192 -219.95675653 385.70100993 -217.4375 385.375 C-216.57186432 385.26260986 -215.70622864 385.15021973 -214.81436157 385.03442383 C-190.15215309 381.90480116 -165.86348654 381.74035773 -141.21484375 385.24609375 C-129.80465183 386.75422842 -118.41593966 387.14563978 -106.921875 386.74609375 C-105.23047791 386.69694931 -103.53907159 386.64812146 -101.84765625 386.59960938 C-99.27151606 386.52503559 -96.70023577 386.43490203 -94.12646484 386.30053711 C-88.61368041 386.02515525 -83.42286511 385.87154053 -78 387 C-75.37120877 389.40845205 -74.24529781 391.32982475 -72.95239258 394.63085938 C-72.12345237 397.33324683 -72.12345237 397.33324683 -68.9375 399.0625 C-61.53757994 401.42417662 -53.01431078 402.69843471 -45.6875 399.5 C-40.33953535 396.40323197 -37.19706989 391.55737659 -34.625 386.0625 C-33.26604341 379.4036127 -33.27084657 373.88384173 -36.6640625 367.85546875 C-40.11554389 363.06174459 -44.37746585 359.80841742 -50 358 C-57.60337387 357.16275268 -64.7797498 357.15415588 -71 362 C-74.84274722 365.62782847 -77.17388915 369.02512793 -79 374 C-100.48678468 376.80153654 -121.93733878 376.72904832 -143.5 374.78662109 C-159.61916547 373.40490822 -175.83145223 373.31572176 -192 373 C-192 372.34 -192 371.68 -192 371 C-179.4803036 365.68690085 -166.43674329 362.27249067 -153.35961914 358.63745117 C-145.58138169 356.4664973 -137.87698427 354.13821283 -130.18212891 351.6875 C-125.65195606 350.26022693 -121.10648832 348.88251925 -116.5625 347.5 C-115.57612549 347.19980957 -114.58975098 346.89961914 -113.57348633 346.59033203 C-107.0599704 344.6131399 -100.53484278 342.67958774 -94.00024414 340.7734375 C-88.65854212 339.20919676 -83.3474106 337.55687954 -78.03979492 335.88110352 C-72.30148133 334.07645475 -66.53559071 332.37285561 -60.7578125 330.69921875 C-56.80611429 329.55046927 -52.89635301 328.3235703 -49 327 C-48.03924561 326.69944702 -48.03924561 326.69944702 -47.05908203 326.39282227 C-39.31737838 323.93050378 -31.94890052 320.61504562 -24.53125 317.3203125 C-23.50515625 316.87945313 -22.4790625 316.43859375 -21.421875 315.984375 C-20.03887207 315.37674316 -20.03887207 315.37674316 -18.62792969 314.75683594 C-12.35468876 312.9501612 -7.2260029 316.83600097 -1.83984375 319.72265625 C1.08901271 321.27347213 1.08901271 321.27347213 5 321 C5.33 319.68 5.66 318.36 6 317 C5.33613281 316.87882812 4.67226563 316.75765625 3.98828125 316.6328125 C-0.53424459 315.77452292 -4.79938524 314.96028689 -9 313 C-9 312.34 -9 311.68 -9 311 C-8.46109131 310.72325439 -7.92218262 310.44650879 -7.36694336 310.16137695 C-4.88751585 308.88404778 -2.41252167 307.59834398 0.0625 306.3125 C0.91005859 305.87744141 1.75761719 305.44238281 2.63085938 304.99414062 C6.60479906 302.9227821 10.38117371 300.82503339 13.99609375 298.16796875 C17 296 17 296 19 296 C20.70779973 297.62449243 22.37550757 299.29220027 24 301 C25.55090815 302.55090815 27.03696233 302.20677311 29.1875 302.25 C33.49432541 302.19522321 36.35313648 301.43124235 40 299 C43.43738949 295.21887156 43.45577899 292.41037234 43.28125 287.47265625 C42.88882487 284.02258536 42.05294562 281.80569235 40 279 C36.23405101 276.37259373 32.66350876 275.31768386 28.02734375 275.53125 C24.0888916 276.44187477 21.20482478 278.65700891 19 282 C18.1511571 284.96965024 17.54021892 287.96036285 17 291 C14.04283593 291.83752161 11.084087 292.66930031 8.125 293.5 C6.86236328 293.85771484 6.86236328 293.85771484 5.57421875 294.22265625 C4.36572266 294.56103516 4.36572266 294.56103516 3.1328125 294.90625 C2.38918457 295.11572266 1.64555664 295.32519531 0.87939453 295.54101562 C-1 296 -1 296 -3 296 C-1.80229453 292.77839408 -0.50708469 290.09557964 1.5 287.3125 C10.17687962 274.54235038 17.06921561 260.97852118 21.4296875 246.15234375 C25.46111588 233.10562591 25.46111588 233.10562591 29.94140625 229.88671875 C33.125 228.6875 33.125 228.6875 36.25390625 227.8125 C40.53516973 226.54578193 41.70414335 224.77705448 44 221 C47.08126671 214.92586358 48.31065267 209.07758609 46.19140625 202.484375 C43.81033043 196.98071186 40.93000346 193.07337034 35.734375 189.99609375 C29.31643973 187.65813162 21.98499673 187.69160622 15.73828125 190.4296875 C9.72689327 193.87701699 6.12290837 197.34593775 4 204 C3.09219066 210.44544629 4.02520487 215.27924013 7 221 C7.28875 221.721875 7.5775 222.44375 7.875 223.1875 C9.44966996 225.72446827 11.65873372 227.18194274 14 229 C12.28328425 239.61093831 8.95385643 248.51454028 4 258 C3.59716797 258.78213867 3.19433594 259.56427734 2.77929688 260.37011719 C-2.92078141 271.36189711 -9.12401159 281.53789366 -16.73291016 291.30371094 C-17.97354019 292.9645775 -19.09345932 294.66121407 -20.19921875 296.4140625 C-25.83508286 304.97724234 -31.29536524 307.34546535 -41 310 C-42.99964573 310.71329135 -44.97950589 311.46982855 -46.96166992 312.23022461 C-50.31788196 313.49769815 -53.71976245 314.6223066 -57.125 315.75 C-57.88490234 316.00241455 -58.64480469 316.2548291 -59.42773438 316.51489258 C-65.77221335 318.61289061 -72.13310327 320.65866741 -78.5 322.6875 C-79.84215576 323.11530762 -79.84215576 323.11530762 -81.21142578 323.55175781 C-87.12365162 325.42708821 -93.05396973 327.23487206 -99 329 C-97.28130614 325.36892279 -95.15189747 322.72123713 -92.5 319.6875 C-82.64925412 308.11615478 -72.44278115 293.91208571 -67.10546875 279.6015625 C-66 278 -66 278 -63.42578125 277.34765625 C-61.88470703 277.20650391 -61.88470703 277.20650391 -60.3125 277.0625 C-54.42489513 276.26382131 -51.38152252 275.00052056 -47 271 C-43.42879799 265.31070576 -43.34955817 257.10248769 -44.5 250.625 C-46.38257525 246.07544314 -48.89561796 243.64179601 -53 241 C-59.91642217 238.69452594 -68.26887503 239.37600213 -75 242 C-78.74881877 245.39685543 -81.83090521 248.86275271 -82.23828125 254.01171875 C-82.46590845 263.72528403 -82.46590845 263.72528403 -78 272 C-77.34 272.33 -76.68 272.66 -76 273 C-79.81009875 292.66199108 -100.05587443 312.5502507 -113.92797852 325.93603516 C-116.55204405 328.47668039 -118.75963157 330.98784726 -120.8125 334 C-124.7183653 338.61602263 -130.86739322 339.14788623 -136.49316406 340.40625 C-141.59876379 341.61552333 -146.63759902 343.07911816 -151.6875 344.5 C-152.71979736 344.78488281 -153.75209473 345.06976562 -154.81567383 345.36328125 C-161.17180229 347.13384124 -167.40088123 349.11794375 -173.61254883 351.34570312 C-176 352 -176 352 -178 351 C-177.443125 350.40574219 -176.88625 349.81148437 -176.3125 349.19921875 C-166.44494619 338.48158851 -157.81347369 326.64897701 -151.29296875 313.578125 C-147.18459075 305.53455589 -147.18459075 305.53455589 -143.515625 303.87890625 C-140.99251324 303.39742486 -138.56122 303.15627783 -136 303 C-132.25213303 301.96877605 -132.25213303 301.96877605 -129.8125 299.1875 C-129.544375 298.465625 -129.27625 297.74375 -129 297 C-128.62875 296.29875 -128.2575 295.5975 -127.875 294.875 C-126.18963387 289.33736842 -125.91527243 283.39673216 -128.5625 278.125 C-131.96482205 273.76304866 -135.00233634 271.57074722 -140.359375 270.55078125 C-146.41077096 270.12793526 -150.3422866 271.65795663 -155.1484375 275.30078125 C-159.01357754 278.84790344 -160.1399044 282.27211079 -160.4375 287.375 C-160.30871847 291.61048127 -159.06459201 294.62942037 -156.97265625 298.2734375 C-156 300 -156 300 -155 303 C-156.0231846 305.74943463 -157.1076464 308.30282928 -158.375 310.9375 C-158.74077148 311.70094727 -159.10654297 312.46439453 -159.48339844 313.25097656 C-166.50344909 327.44018684 -177.82240343 340.28439512 -190.10864258 350.27270508 C-192.00744757 352.00680154 -193.28569203 353.77074143 -194.77734375 355.85546875 C-199.86936319 361.74803938 -207.05808338 363.33122477 -214.25 365.5 C-215.63875244 365.94302565 -217.0267825 366.38832243 -218.4140625 366.8359375 C-228.36808894 370 -228.36808894 370 -232 370 C-233.79687724 337.05725064 -215.93785266 301.18221641 -195 277 C-194.35756348 276.25484131 -194.35756348 276.25484131 -193.70214844 275.49462891 C-187.35534323 268.18442788 -180.64096375 261.9794094 -173 256 C-171.26982045 254.54286851 -169.54066926 253.08451515 -167.8125 251.625 C-161.51964829 246.47630314 -154.833037 241.96218159 -148.09814453 237.42041016 C-144.63273463 235.0743833 -141.1934362 232.69060247 -137.75 230.3125 C-133.13873233 227.13168228 -128.50024833 224.00517236 -123.8125 220.9375 C-117.28825172 216.60874126 -111.12643642 211.86825552 -105 207 C-104.29746094 206.443125 -103.59492187 205.88625 -102.87109375 205.3125 C-98.39482788 201.62734152 -94.64158497 197.50406562 -91 193 C-90.33194336 192.17580566 -90.33194336 192.17580566 -89.65039062 191.33496094 C-78.79152636 177.80082826 -71.02312227 163.68457575 -66 147 C-65.60941406 145.74799805 -65.60941406 145.74799805 -65.2109375 144.47070312 C-62.98807038 136.66959837 -62.53483251 129.14824377 -62.60888672 121.08203125 C-62.62498501 119.00193753 -62.60894012 116.92378566 -62.58984375 114.84375 C-62.57521999 105.53862347 -63.57518175 96.9627825 -67.1003418 88.29418945 C-68 86 -68 86 -67.99609375 83.98046875 C-66.44897721 80.90443703 -63.79964913 79.26579242 -61.0625 77.3125 C-59.86232216 76.42100482 -58.66442533 75.52643118 -57.46875 74.62890625 C-56.57929687 73.96205811 -56.57929687 73.96205811 -55.671875 73.28173828 C-51.54232649 70.11583149 -47.77198146 66.57697503 -44 63 C-43.225354 62.28215332 -43.225354 62.28215332 -42.43505859 61.54980469 C-27.06321265 47.24102484 -15.55254176 30.63418357 -6 12 C-5.66967773 11.35756348 -5.33935547 10.71512695 -4.99902344 10.05322266 C-3.2942975 6.720457 -1.62633932 3.37167909 0 0 Z " fill="#0FA4AB" transform="translate(985,227)"/>
<path d="M0 0 C2.99409928 0.30880845 3.94137101 0.93589593 6.0078125 3.1953125 C6.70648437 4.16210938 7.40515625 5.12890625 8.125 6.125 C8.51115479 6.65778564 8.89730957 7.19057129 9.29516602 7.73950195 C10.54650257 9.48203143 11.77610218 11.23810407 13 13 C13.40557129 13.58152832 13.81114258 14.16305664 14.22900391 14.76220703 C32.13070342 40.60756327 47.40391787 68.99015774 57.29736328 98.88574219 C57.82461646 100.47226496 58.36097729 102.05576573 58.90185547 103.63769531 C63.84259488 118.11992122 67.64078314 132.49810155 70.50927734 147.52392578 C71.1196301 150.60362611 71.86085504 153.64267626 72.625 156.6875 C73.94198523 162.2697215 74.80587641 167.88999433 75.625 173.5625 C75.7482666 174.41352295 75.8715332 175.2645459 75.99853516 176.14135742 C77.55310378 187.37058925 78.16943124 198.52347109 78.23828125 209.85546875 C78.246353 211.15535233 78.25442474 212.4552359 78.26274109 213.79450989 C78.27764477 216.53675186 78.28753629 219.27896925 78.29516602 222.02124023 C78.30394922 224.77570231 78.3246638 227.52964725 78.35668945 230.28393555 C78.55030619 247.32437932 77.72189741 263.69900499 74.47994995 280.48513794 C73.848129 283.7957801 73.32229974 287.11497847 72.8046875 290.4453125 C72.49541819 292.33864411 72.18556872 294.2318811 71.875 296.125 C71.71902344 297.09824219 71.56304688 298.07148437 71.40234375 299.07421875 C70.56130922 304.18298222 69.49243208 309.04460863 68 314 C67.896875 314.928125 67.79375 315.85625 67.6875 316.8125 C67.3471875 317.8953125 67.3471875 317.8953125 67 319 C64.4375 320.3125 64.4375 320.3125 62 321 C59.76098633 318.1931673 58.1808921 315.44627657 56.6875 312.1875 C54.65446921 307.99127486 52.3481772 304.74015545 49.13671875 301.375 C48 300 48 300 48 298 C47.01 297.67 46.02 297.34 45 297 C45.03480469 295.93072266 45.03480469 295.93072266 45.0703125 294.83984375 C45.17815674 289.11639606 44.92057311 284.40161186 43 279 C42.2575 278.87625 41.515 278.7525 40.75 278.625 C38 278 38 278 36.1875 276.9375 C32.75913794 275.46820198 29.60481068 275.25487154 26 276 C23.00865352 277.53357529 20.85314364 279.19023356 19 282 C18.1511571 284.96965024 17.54021892 287.96036285 17 291 C14.04283593 291.83752161 11.084087 292.66930031 8.125 293.5 C7.28324219 293.73847656 6.44148437 293.97695313 5.57421875 294.22265625 C4.36572266 294.56103516 4.36572266 294.56103516 3.1328125 294.90625 C2.01737061 295.22045898 2.01737061 295.22045898 0.87939453 295.54101562 C-1 296 -1 296 -3 296 C-1.80229453 292.77839408 -0.50708469 290.09557964 1.5 287.3125 C10.17687962 274.54235038 17.06921561 260.97852118 21.4296875 246.15234375 C25.46111588 233.10562591 25.46111588 233.10562591 29.94140625 229.88671875 C33.125 228.6875 33.125 228.6875 36.25390625 227.8125 C40.53516973 226.54578193 41.70414335 224.77705448 44 221 C47.08126671 214.92586358 48.31065267 209.07758609 46.19140625 202.484375 C43.81033043 196.98071186 40.93000346 193.07337034 35.734375 189.99609375 C29.31643973 187.65813162 21.98499673 187.69160622 15.73828125 190.4296875 C9.72689327 193.87701699 6.12290837 197.34593775 4 204 C3.09219066 210.44544629 4.02520487 215.27924013 7 221 C7.28875 221.721875 7.5775 222.44375 7.875 223.1875 C9.44966996 225.72446827 11.65873372 227.18194274 14 229 C12.28328425 239.61093831 8.95385643 248.51454028 4 258 C3.59716797 258.78213867 3.19433594 259.56427734 2.77929688 260.37011719 C-2.92078141 271.36189711 -9.12401159 281.53789366 -16.73291016 291.30371094 C-17.97354019 292.9645775 -19.09345932 294.66121407 -20.19921875 296.4140625 C-25.83508286 304.97724234 -31.29536524 307.34546535 -41 310 C-42.99964573 310.71329135 -44.97950589 311.46982855 -46.96166992 312.23022461 C-50.31788196 313.49769815 -53.71976245 314.6223066 -57.125 315.75 C-57.88490234 316.00241455 -58.64480469 316.2548291 -59.42773438 316.51489258 C-65.77221335 318.61289061 -72.13310327 320.65866741 -78.5 322.6875 C-79.84215576 323.11530762 -79.84215576 323.11530762 -81.21142578 323.55175781 C-87.12365162 325.42708821 -93.05396973 327.23487206 -99 329 C-97.28130614 325.36892279 -95.15189747 322.72123713 -92.5 319.6875 C-82.64925412 308.11615478 -72.44278115 293.91208571 -67.10546875 279.6015625 C-66 278 -66 278 -63.42578125 277.34765625 C-62.39839844 277.25355469 -61.37101563 277.15945313 -60.3125 277.0625 C-54.42489513 276.26382131 -51.38152252 275.00052056 -47 271 C-43.42879799 265.31070576 -43.34955817 257.10248769 -44.5 250.625 C-46.38257525 246.07544314 -48.89561796 243.64179601 -53 241 C-59.91642217 238.69452594 -68.26887503 239.37600213 -75 242 C-78.74881877 245.39685543 -81.83090521 248.86275271 -82.23828125 254.01171875 C-82.46590845 263.72528403 -82.46590845 263.72528403 -78 272 C-77.34 272.33 -76.68 272.66 -76 273 C-79.81009875 292.66199108 -100.05587443 312.5502507 -113.92797852 325.93603516 C-116.55204405 328.47668039 -118.75963157 330.98784726 -120.8125 334 C-124.7183653 338.61602263 -130.86739322 339.14788623 -136.49316406 340.40625 C-141.59876379 341.61552333 -146.63759902 343.07911816 -151.6875 344.5 C-152.71979736 344.78488281 -153.75209473 345.06976562 -154.81567383 345.36328125 C-161.17180229 347.13384124 -167.40088123 349.11794375 -173.61254883 351.34570312 C-176 352 -176 352 -178 351 C-177.443125 350.40574219 -176.88625 349.81148437 -176.3125 349.19921875 C-166.44494619 338.48158851 -157.81347369 326.64897701 -151.29296875 313.578125 C-147.18459075 305.53455589 -147.18459075 305.53455589 -143.515625 303.87890625 C-140.99251324 303.39742486 -138.56122 303.15627783 -136 303 C-132.25213303 301.96877605 -132.25213303 301.96877605 -129.8125 299.1875 C-129.544375 298.465625 -129.27625 297.74375 -129 297 C-128.62875 296.29875 -128.2575 295.5975 -127.875 294.875 C-126.18963387 289.33736842 -125.91527243 283.39673216 -128.5625 278.125 C-131.96482205 273.76304866 -135.00233634 271.57074722 -140.359375 270.55078125 C-146.41077096 270.12793526 -150.3422866 271.65795663 -155.1484375 275.30078125 C-159.01357754 278.84790344 -160.1399044 282.27211079 -160.4375 287.375 C-160.30871847 291.61048127 -159.06459201 294.62942037 -156.97265625 298.2734375 C-156 300 -156 300 -155 303 C-156.0231846 305.74943463 -157.1076464 308.30282928 -158.375 310.9375 C-158.74077148 311.70094727 -159.10654297 312.46439453 -159.48339844 313.25097656 C-166.50344909 327.44018684 -177.82240343 340.28439512 -190.10864258 350.27270508 C-192.00744757 352.00680154 -193.28569203 353.77074143 -194.77734375 355.85546875 C-199.86936319 361.74803938 -207.05808338 363.33122477 -214.25 365.5 C-215.63875244 365.94302565 -217.0267825 366.38832243 -218.4140625 366.8359375 C-228.36808894 370 -228.36808894 370 -232 370 C-233.79687724 337.05725064 -215.93785266 301.18221641 -195 277 C-194.57170898 276.50322754 -194.14341797 276.00645508 -193.70214844 275.49462891 C-187.35534323 268.18442788 -180.64096375 261.9794094 -173 256 C-171.26982045 254.54286851 -169.54066926 253.08451515 -167.8125 251.625 C-161.51964829 246.47630314 -154.833037 241.96218159 -148.09814453 237.42041016 C-144.63273463 235.0743833 -141.1934362 232.69060247 -137.75 230.3125 C-133.13873233 227.13168228 -128.50024833 224.00517236 -123.8125 220.9375 C-117.28825172 216.60874126 -111.12643642 211.86825552 -105 207 C-104.29746094 206.443125 -103.59492187 205.88625 -102.87109375 205.3125 C-98.39482788 201.62734152 -94.64158497 197.50406562 -91 193 C-90.33194336 192.17580566 -90.33194336 192.17580566 -89.65039062 191.33496094 C-78.79152636 177.80082826 -71.02312227 163.68457575 -66 147 C-65.73960937 146.16533203 -65.47921875 145.33066406 -65.2109375 144.47070312 C-62.98807038 136.66959837 -62.53483251 129.14824377 -62.60888672 121.08203125 C-62.62498501 119.00193753 -62.60894012 116.92378566 -62.58984375 114.84375 C-62.57521999 105.53862347 -63.57518175 96.9627825 -67.1003418 88.29418945 C-68 86 -68 86 -67.99609375 83.98046875 C-66.44897721 80.90443703 -63.79964913 79.26579242 -61.0625 77.3125 C-59.86232216 76.42100482 -58.66442533 75.52643118 -57.46875 74.62890625 C-56.87578125 74.18434082 -56.2828125 73.73977539 -55.671875 73.28173828 C-51.54232649 70.11583149 -47.77198146 66.57697503 -44 63 C-43.48356934 62.52143555 -42.96713867 62.04287109 -42.43505859 61.54980469 C-27.06321265 47.24102484 -15.55254176 30.63418357 -6 12 C-5.66967773 11.35756348 -5.33935547 10.71512695 -4.99902344 10.05322266 C-3.2942975 6.720457 -1.62633932 3.37167909 0 0 Z " fill="#9ED636" transform="translate(985,227)"/>
<path d="M0 0 C1.17911145 3.53733435 0.83104673 3.92853595 -0.75 7.125 C-2.63661714 11.09340158 -4.04624369 15.03903744 -5.2890625 19.25 C-6 21 -6 21 -8 22 C-8.05080039 28.72604133 -8.08577579 35.45203298 -8.10986328 42.17822266 C-8.11990733 44.46535084 -8.13354508 46.75246623 -8.15087891 49.03955078 C-8.17519708 52.33108686 -8.18649924 55.62245282 -8.1953125 58.9140625 C-8.20563507 59.93303619 -8.21595764 60.95200989 -8.22659302 62.00186157 C-8.22739706 67.11444704 -7.93828259 71.19205227 -6 76 C-5.7834375 77.670625 -5.7834375 77.670625 -5.5625 79.375 C-5.03362196 82.78332514 -4.05842456 85.65872638 -2.82250977 88.86376953 C-2.05633712 90.85368067 -1.32482981 92.8521546 -0.60546875 94.859375 C2.06851338 102.23036246 4.94253374 109.30139324 8.60546875 116.25390625 C10 119 10 119 11.3515625 122.2734375 C13.24300222 126.75791123 15.71661234 130.87776079 18.1875 135.0625 C19.17725751 136.75771082 20.16683971 138.453024 21.15625 140.1484375 C22.10386157 141.76580379 23.05175726 143.38300367 24 145 C29.39762803 154.20585384 34.4314903 163.51885499 39.0859375 173.11865234 C39.92246722 174.84041998 40.77303003 176.55535129 41.625 178.26953125 C58.14180442 212.4644779 60.46409942 254.22581188 48.00341797 290.24487305 C40.17161739 311.74897755 28.79863283 330.58503429 14 348 C13.39285156 348.73089844 12.78570313 349.46179688 12.16015625 350.21484375 C8.66036629 354.34951625 4.94100625 357.96767274 0.796875 361.45703125 C-1.02448856 362.9675186 -1.02448856 362.9675186 -2.609375 364.69921875 C-4 366 -4 366 -6 366 C-6.33 366.99 -6.66 367.98 -7 369 C-8.31345382 365.05963855 -7.35049428 363.18848505 -6.125 359.25 C-3.70057106 351.41722959 -2.83442886 344.04971151 -2.7265625 335.90234375 C-2.71398911 335.0392157 -2.70141571 334.17608765 -2.6884613 333.2868042 C-2.47655038 315.25809069 -2.38575849 298.31027597 -8 281 C-8.45816963 279.39689824 -8.91254371 277.79270726 -9.36328125 276.1875 C-15.05897866 256.84538435 -24.41772712 238.53892236 -33.16015625 220.42578125 C-33.62446045 219.46285156 -34.08876465 218.49992188 -34.56713867 217.5078125 C-35.40888063 215.77310441 -36.25868251 214.04227224 -37.1184082 212.31640625 C-39.13642314 208.19181695 -40.54136145 204.63816726 -41 200 C-41.66 200 -42.32 200 -43 200 C-43.39832031 198.7934375 -43.79664063 197.586875 -44.20703125 196.34375 C-44.74210565 194.72913954 -45.27726652 193.11455773 -45.8125 191.5 C-46.07353516 190.70851563 -46.33457031 189.91703125 -46.60351562 189.1015625 C-47.83619452 185.38830754 -49.09983088 181.71034937 -50.53515625 178.0703125 C-52.353643 173.28387872 -53.47846639 168.35746704 -54.625 163.375 C-54.8415625 162.45976562 -55.058125 161.54453125 -55.28125 160.6015625 C-56.33949204 156.08117056 -57.2643461 151.58599159 -58 147 C-58.46681237 157.21248623 -57.1179226 166.68319092 -55.0625 176.625 C-54.9096051 177.38168976 -54.75671021 178.13837952 -54.59918213 178.91799927 C-50.71357559 198.00082827 -44.62196811 216.0839945 -37 234 C-20.76928108 272.43099355 -20.76928108 272.43099355 -18 293 C-17.89848633 293.73927734 -17.79697266 294.47855469 -17.69238281 295.24023438 C-15.36361048 312.82724055 -14.95005031 329.6573387 -19 347 C-19.18804199 347.81871582 -19.37608398 348.63743164 -19.56982422 349.48095703 C-23.47243068 365.92033746 -29.52819263 381.36100293 -41 394 C-44.70545471 393.18875533 -47.13273748 391.75461005 -50.25 389.5625 C-51.14203125 388.94503906 -52.0340625 388.32757812 -52.953125 387.69140625 C-53.62859375 387.13324219 -54.3040625 386.57507813 -55 386 C-55 385.34 -55 384.68 -55 384 C-55.54011719 383.77570313 -56.08023438 383.55140625 -56.63671875 383.3203125 C-59.74743405 381.58242527 -62.22302106 379.2900264 -64.8125 376.875 C-65.3494751 376.37637451 -65.8864502 375.87774902 -66.43969727 375.36401367 C-70.59651739 371.46106435 -74.37810621 367.40579064 -78 363 C-78.95097318 361.90681231 -79.90288817 360.81444357 -80.85546875 359.72265625 C-95.87905662 342.21117322 -108.36183375 320.97310188 -115.11328125 298.80859375 C-116.00767737 295.85214768 -116.00767737 295.85214768 -117.4140625 292.4765625 C-119.56942987 286.78631225 -120.76589152 280.87006411 -122.0625 274.9375 C-122.31837891 273.81150391 -122.57425781 272.68550781 -122.83789062 271.52539062 C-125.97157524 257.35533602 -127.35393114 243.58901986 -127.25 229.125 C-127.24756287 228.37987152 -127.24512573 227.63474304 -127.24261475 226.86703491 C-127.20652973 217.4552799 -127.02732442 208.14834967 -125.58666992 198.83081055 C-125.03333655 195.21767946 -124.5694728 191.60397149 -124.12109375 187.9765625 C-121.22420856 166.19761867 -115.61078181 145.20195686 -107 125 C-106.58234375 124.0095166 -106.1646875 123.0190332 -105.734375 121.99853516 C-95.79359406 98.68485878 -83.1070751 77.11766774 -67.03662109 57.5065918 C-65.75164498 55.92509458 -64.48187023 54.33100873 -63.23413086 52.7199707 C-58.1416719 46.16825722 -52.57663237 40.27516144 -46.6875 34.4375 C-45.37749023 33.11588867 -45.37749023 33.11588867 -44.04101562 31.76757812 C-29.55403146 17.32323409 -29.55403146 17.32323409 -21.125 12.75 C-17.92082412 11.1413855 -17.92082412 11.1413855 -15.5625 8.5625 C-11.24755388 4.24755388 -6.23060798 0.5841195 0 0 Z " fill="#68BA39" transform="translate(601,327)"/>
<path d="M0 0 C1.03253906 -0.01160156 2.06507813 -0.02320313 3.12890625 -0.03515625 C14.26098483 0.00738673 23.72050438 3.87523796 32.078125 11.34375 C42.29124971 22.1026142 46.27270085 34.59273877 46.125 49.125 C46.11678223 50.10291504 46.10856445 51.08083008 46.10009766 52.08837891 C45.66947704 79.92128764 32.17881114 104.65804826 12.72094727 124.01928711 C6.94357288 129.56239536 1.00974226 133.6797503 -6.125 137.375 C-7.13691406 137.92542969 -8.14882813 138.47585938 -9.19140625 139.04296875 C-20.13833523 144.59178757 -32.79619906 147.62347064 -45.08203125 148.00390625 C-48.96275253 148.70881738 -51.48345841 150.62454245 -54.01171875 153.58203125 C-54.60597656 154.44183594 -55.20023438 155.30164063 -55.8125 156.1875 C-56.49570312 157.16332031 -57.17890625 158.13914062 -57.8828125 159.14453125 C-58.62273437 160.21058594 -59.36265625 161.27664063 -60.125 162.375 C-60.95304448 163.52667461 -61.78384831 164.67636952 -62.6171875 165.82421875 C-63.47396708 167.00780617 -64.33073804 168.19139983 -65.1875 169.375 C-65.57446045 169.90714111 -65.9614209 170.43928223 -66.36010742 170.98754883 C-70.17575075 176.30471479 -73.64509305 181.83444227 -77.125 187.375 C-77.67760498 188.24753418 -78.23020996 189.12006836 -78.79956055 190.01904297 C-94.28511791 214.62166806 -108.37337563 240.93672197 -118.125 268.375 C-118.57359375 269.61757568 -118.57359375 269.61757568 -119.03125 270.88525391 C-120.84933009 275.93326691 -122.61684877 280.99660481 -124.34326172 286.07666016 C-125.07724731 288.23460531 -125.82078907 290.38902113 -126.56640625 292.54296875 C-128.86146156 299.24624022 -130.7913115 305.76716894 -131.86328125 312.7890625 C-135.25406363 319.73859172 -145.89307371 322.80175279 -152.5 326 C-162.40582493 330.86859141 -171.86460319 336.18661717 -181.1640625 342.12451172 C-184.46919022 344.23218904 -187.79866394 346.3010162 -191.125 348.375 C-190.74093286 346.78877148 -190.34173564 345.20620904 -189.9375 343.625 C-189.71707031 342.74328125 -189.49664063 341.8615625 -189.26953125 340.953125 C-187.56265374 335.61694821 -185.31199802 330.52962006 -183.125 325.375 C-182.35174708 323.51286558 -181.57856162 321.65070156 -180.80809021 319.78741455 C-179.71738958 317.15125634 -178.62031993 314.51776642 -177.52319336 311.88427734 C-176.96632813 310.54539307 -176.41098742 309.2058737 -175.85717773 307.86572266 C-172.66724926 300.15006552 -169.33821433 292.58957953 -165.53442383 285.15039062 C-164.19185301 282.50664473 -162.91394804 279.84305549 -161.66015625 277.15625 C-154.37880524 261.57935456 -146.36071014 246.46016535 -138.125 231.375 C-137.39917725 230.03767822 -137.39917725 230.03767822 -136.65869141 228.67333984 C-130.50684514 217.34551988 -123.94640823 206.31135632 -117.125 195.375 C-116.43349854 194.2605249 -116.43349854 194.2605249 -115.72802734 193.12353516 C-104.92287447 175.72629945 -93.99384437 158.18403392 -81.39819336 142.01464844 C-76.99348889 136.24627187 -75.63290822 131.50520233 -76.50390625 124.4296875 C-77.43038744 119.87303156 -78.83230386 115.49035322 -80.30883789 111.08447266 C-84.98742849 97.08158772 -83.319971 83.45987217 -80.125 69.375 C-79.94324219 68.50488281 -79.76148438 67.63476562 -79.57421875 66.73828125 C-76.38260591 53.95011826 -68.29541408 41.50171042 -60.125 31.375 C-59.53589844 30.6221875 -58.94679688 29.869375 -58.33984375 29.09375 C-43.96643801 11.76021611 -22.67113336 -0.25665434 0 0 Z " fill="#05853C" transform="translate(857.125,293.625)"/>
<path d="M0 0 C3.41230546 1.23423815 4.68393821 2.228876 6.9375 5.0625 C7.64829029 7.65828549 8.13359951 9.99004392 8.5 12.6328125 C8.61667023 13.37772446 8.73334045 14.12263641 8.85354614 14.89012146 C9.23043407 17.3204872 9.58408128 19.75362071 9.9375 22.1875 C10.19496199 23.87775039 10.45392545 25.56777273 10.71435547 27.25756836 C11.2320636 30.63286281 11.74083989 34.00929946 12.24121094 37.38720703 C12.83093107 41.36424661 13.44375372 45.33716626 14.0703125 49.30859375 C15.45539108 58.10869917 16.78735853 66.91257999 18 75.73828125 C18.17772949 77.02210693 18.35545898 78.30593262 18.53857422 79.62866211 C18.88012255 82.1116516 19.21539126 84.59551545 19.54345703 87.08032227 C19.69669434 88.19592529 19.84993164 89.31152832 20.0078125 90.4609375 C20.13945801 91.44755371 20.27110352 92.43416992 20.40673828 93.45068359 C20.91895009 95.97121806 21.66847891 97.83957503 22.9375 100.0625 C27.85872869 100.52533789 27.85872869 100.52533789 32.15234375 98.45703125 C34.51131771 95.29280578 34.37680835 93.4135681 34.25 89.5 C34.21261719 88.25476563 34.17523437 87.00953125 34.13671875 85.7265625 C33.77555259 79.08393776 33.27379247 72.60195729 32.015625 66.0625 C30.82935689 59.65095211 29.9462609 53.20901422 29.0625 46.75 C27.6769508 36.77695989 26.10141806 26.87090617 24.15673828 16.9909668 C21.95826261 5.59011033 21.95826261 5.59011033 24.5 1.625 C26.9375 0.0625 26.9375 0.0625 30.4375 0 C34.70729013 1.29618629 35.51007194 2.37280934 37.9375 6.0625 C39.10209791 8.8530616 39.90074759 11.70800816 40.6875 14.625 C40.9335498 15.51993164 41.17959961 16.41486328 41.43310547 17.33691406 C61.35653382 91.75858182 61.35653382 91.75858182 54.9375 124.0625 C54.2775 124.0625 53.6175 124.0625 52.9375 124.0625 C52.99550781 124.91585937 53.05351563 125.76921875 53.11328125 126.6484375 C52.41132141 140.28205743 40.0105566 151.58781464 30.5625 160.125 C28.42724473 161.93646656 26.49332714 163.32321016 24.0625 164.75 C21.51480619 166.32357559 21.02212692 167.30212299 19.9375 170.0625 C19.64799562 172.57362968 19.64799562 172.57362968 19.70703125 175.2734375 C19.70896484 176.27117187 19.71089844 177.26890625 19.71289062 178.296875 C19.72513672 179.33328125 19.73738281 180.3696875 19.75 181.4375 C19.75064453 182.46617187 19.75128906 183.49484375 19.75195312 184.5546875 C19.78082828 189.53404842 20.11136543 194.14871631 20.9375 199.0625 C21.26806733 203.45581168 21.35147291 207.84589113 21.4375 212.25 C21.49164062 213.41853516 21.54578125 214.58707031 21.6015625 215.79101562 C21.72232639 223.5242173 20.43051798 228.03933979 15.91601562 234.30395508 C12.42181111 239.17574886 9.75728384 244.53136616 6.9375 249.8125 C6.32664551 250.95195068 5.71579102 252.09140137 5.08642578 253.26538086 C0.74657306 261.41491738 -3.34006575 269.61333838 -7.0625 278.0625 C-7.49175781 279.01898437 -7.92101562 279.97546875 -8.36328125 280.9609375 C-9.27202762 282.99078334 -10.16921223 285.02580389 -11.0625 287.0625 C-11.3925 287.0625 -11.7225 287.0625 -12.0625 287.0625 C-11.9187497 284.62486201 -11.77252168 282.1874105 -11.625 279.75 C-11.58568359 279.07904297 -11.54636719 278.40808594 -11.50585938 277.71679688 C-11.26733365 273.80864461 -10.94953972 269.92182932 -10.55102539 266.02661133 C-10.00285249 260.02952559 -9.9180055 254.08134479 -9.9296875 248.0625 C-9.92873077 246.94673584 -9.92777405 245.83097168 -9.92678833 244.68139648 C-9.92611181 242.33170515 -9.927929 239.98201189 -9.93212891 237.63232422 C-9.93744374 234.09989036 -9.93218683 230.56758601 -9.92578125 227.03515625 C-7.98487915 197.74279394 -7.98487915 197.74279394 -16.0625 171.0625 C-18.50595829 169.47935189 -21.09696191 168.31370871 -23.75 167.125 C-29.71116414 164.29004682 -35.11375054 161.50229711 -40.0625 157.0625 C-40.78566406 156.43085938 -41.50882813 155.79921875 -42.25390625 155.1484375 C-61.93253406 136.83499369 -66.35145709 109.5368533 -68.5234375 83.98828125 C-68.89073834 79.74559641 -69.34763195 75.52157745 -69.8515625 71.29296875 C-71.34578062 58.55691061 -72.38176998 45.94566878 -72.5 33.125 C-72.5220752 31.90490234 -72.54415039 30.68480469 -72.56689453 29.42773438 C-72.54102705 18.66077376 -72.54102705 18.66077376 -68.0625 14.0625 C-64.5625 13 -64.5625 13 -61.0625 13.0625 C-58.48958983 14.51198176 -57.29139478 15.36115934 -56.36474609 18.20043945 C-56.27273926 19.01730225 -56.18073242 19.83416504 -56.0859375 20.67578125 C-55.9725 21.59552734 -55.8590625 22.51527344 -55.7421875 23.46289062 C-55.59136719 24.90438477 -55.59136719 24.90438477 -55.4375 26.375 C-55.21689743 28.24618251 -54.99553071 30.11727508 -54.7734375 31.98828125 C-54.66161133 32.96990234 -54.54978516 33.95152344 -54.43457031 34.96289062 C-53.90200003 39.39957851 -53.25726765 43.81793384 -52.61572266 48.23999023 C-51.68124724 54.69677822 -50.78457849 61.1588423 -49.88525391 67.62060547 C-49.67057394 69.16168934 -49.45540688 70.70270543 -49.23974609 72.24365234 C-48.91912922 74.53467639 -48.59992996 76.82589328 -48.28125 79.1171875 C-48.17723877 79.86143982 -48.07322754 80.60569214 -47.96606445 81.37249756 C-47.44969479 85.1055979 -46.96331921 88.83915247 -46.53125 92.58300781 C-46.44653442 93.30674591 -46.36181885 94.03048401 -46.27453613 94.77615356 C-46.04613842 96.75389099 -45.82647473 98.73263153 -45.60742188 100.71142578 C-45.10802073 103.78256384 -44.35262179 106.24555529 -43.0625 109.0625 C-37.57587955 110.39230805 -37.57587955 110.39230805 -32.625 108.5 C-29.75229111 104.01857413 -29.91526637 99.49345479 -30.62109375 94.359375 C-30.75966797 93.29589844 -30.89824219 92.23242188 -31.04101562 91.13671875 C-31.19248047 90.03972656 -31.34394531 88.94273437 -31.5 87.8125 C-32.54229722 80.17505578 -33.30618108 72.77798448 -33.0625 65.0625 C-33.7225 65.0625 -34.3825 65.0625 -35.0625 65.0625 C-35.61815716 59.80171256 -36.16927483 54.54047433 -36.71655273 49.27880859 C-36.90254134 47.49645789 -37.08967733 45.71422646 -37.27807617 43.93212891 C-37.82077464 38.79458338 -38.33680204 33.65551213 -38.82196045 28.51220703 C-39.05547667 26.1340271 -39.32155107 23.76112936 -39.59033203 21.38671875 C-39.7297714 19.95588239 -39.8677163 18.52489931 -40.00390625 17.09375 C-40.13611572 15.85173828 -40.2683252 14.60972656 -40.40454102 13.33007812 C-40.0625 10.0625 -40.0625 10.0625 -37.75366211 7.16601562 C-35.0625 5.0625 -35.0625 5.0625 -32.0625 4.375 C-28.67864949 5.15046574 -27.3106059 6.32543169 -25.17724609 9.02270508 C-22.87389871 13.23743732 -22.79044998 18.04059843 -22.375 22.75 C-22.16585966 24.81672222 -21.9536343 26.88313465 -21.73828125 28.94921875 C-21.63354492 29.97466797 -21.52880859 31.00011719 -21.42089844 32.05664062 C-20.97463597 35.79940869 -20.28482706 39.46940726 -19.57788086 43.17016602 C-18.57260108 48.81182851 -17.91352903 54.50445789 -17.1875 60.1875 C-15.87222807 70.22408449 -14.49552441 80.24763094 -12.9375 90.25 C-12.77910645 91.30010254 -12.62071289 92.35020508 -12.45751953 93.43212891 C-12.30395996 94.39683105 -12.15040039 95.3615332 -11.9921875 96.35546875 C-11.86054199 97.1961792 -11.72889648 98.03688965 -11.59326172 98.90307617 C-11.12464908 101.33768575 -11.12464908 101.33768575 -9.0625 104.0625 C-5.20838265 104.56210781 -3.00318523 104.78636062 0.140625 102.3671875 C4.3397471 96.98135698 2.04572038 88.4023408 1.26220703 81.96020508 C0.70624807 76.34078839 0.70624807 76.34078839 -1.0625 71.0625 C-1.23636872 69.65301874 -1.35995292 68.23715531 -1.45703125 66.8203125 C-1.52349854 65.93182617 -1.58996582 65.04333984 -1.65844727 64.12792969 C-1.72990967 63.15758789 -1.80137207 62.18724609 -1.875 61.1875 C-2.63332748 51.67741532 -3.76653177 42.25510807 -5.125 32.8125 C-5.29942627 31.59320801 -5.47385254 30.37391602 -5.65356445 29.11767578 C-6.50085079 23.00805205 -6.50085079 23.00805205 -8.0625 17.0625 C-8.63052978 11.36597277 -9.09247743 6.66805305 -5.9375 1.75 C-3.0625 0.0625 -3.0625 0.0625 0 0 Z " fill="#FD881D" transform="translate(687.0625,292.9375)"/>
<path d="M0 0 C0.2475 1.010625 0.495 2.02125 0.75 3.0625 C1.91636165 7.15309694 3.70834526 10.41928947 6 14 C6.99 14.495 6.99 14.495 8 15 C4.18990125 34.66199108 -16.05587443 54.5502507 -29.92797852 67.93603516 C-32.55204405 70.47668039 -34.75963157 72.98784726 -36.8125 76 C-40.7183653 80.61602263 -46.86739322 81.14788623 -52.49316406 82.40625 C-57.59876379 83.61552333 -62.63759902 85.07911816 -67.6875 86.5 C-68.71979736 86.78488281 -69.75209473 87.06976562 -70.81567383 87.36328125 C-77.17180229 89.13384124 -83.40088123 91.11794375 -89.61254883 93.34570312 C-92 94 -92 94 -94 93 C-93.443125 92.40574219 -92.88625 91.81148437 -92.3125 91.19921875 C-82.44494619 80.48158851 -73.81347369 68.64897701 -67.29296875 55.578125 C-63.18459075 47.53455589 -63.18459075 47.53455589 -59.515625 45.87890625 C-56.99251324 45.39742486 -54.56122 45.15627783 -52 45 C-48.28630363 43.99214572 -48.28630363 43.99214572 -45.875 41.25 C-45.441875 40.13625 -45.441875 40.13625 -45 39 C-42.75579429 33.63375301 -39.75091663 30.47669588 -35.5 26.6875 C-34.88068604 26.12426025 -34.26137207 25.56102051 -33.62329102 24.98071289 C-28.23978329 20.12276276 -22.68486617 15.50167451 -17 11 C-16.11441406 10.25878906 -15.22882813 9.51757812 -14.31640625 8.75390625 C-12 7 -12 7 -10 7 C-9.67 6.01 -9.34 5.02 -9 4 C-6.33916031 2.00603743 -3.38757675 0 0 0 Z " fill="#61C041" transform="translate(901,485)"/>
<path d="M0 0 C5.71289527 3.6071504 9.26677097 7.39015665 11.42578125 13.8671875 C12.20779723 20.3668941 11.25672679 25.50152066 7.42578125 30.8671875 C3.91863386 34.47506236 0.13891781 37.69607281 -4.9375 38.203125 C-6.89236328 38.22246094 -6.89236328 38.22246094 -8.88671875 38.2421875 C-10.18222656 38.27054688 -11.47773437 38.29890625 -12.8125 38.328125 C-18.11341315 37.67858424 -22.18964454 35.00388932 -25.57421875 30.8671875 C-25.57421875 30.2071875 -25.57421875 29.5471875 -25.57421875 28.8671875 C-44.72181095 31.83993061 -63.87133711 35.06243743 -82.30859375 41.16796875 C-84.57421875 41.8671875 -84.57421875 41.8671875 -86.57421875 41.8671875 C-84.37714817 44.34752818 -82.60088546 45.44126156 -79.44921875 46.4296875 C-78.66160156 46.6771875 -77.87398437 46.9246875 -77.0625 47.1796875 C-73.8768509 48.05986684 -70.67086444 48.73817904 -67.421875 49.33984375 C-65.57421875 49.8671875 -65.57421875 49.8671875 -63.57421875 51.8671875 C-63.94921875 53.9921875 -63.94921875 53.9921875 -64.57421875 55.8671875 C-71.13458859 55.28751948 -76.87602429 53.11605191 -83.01171875 50.8046875 C-84.02943359 50.42763672 -85.04714844 50.05058594 -86.09570312 49.66210938 C-88.59092056 48.73665314 -91.08357994 47.80488099 -93.57421875 46.8671875 C-93.57421875 46.2071875 -93.57421875 45.5471875 -93.57421875 44.8671875 C-101.5130237 47.23851885 -109.3963326 49.76400786 -117.26171875 52.3671875 C-118.12756592 52.65150635 -118.99341309 52.9358252 -119.88549805 53.22875977 C-125.87939518 55.2236951 -131.73625492 57.4559546 -137.57421875 59.8671875 C-138.68595459 60.32593262 -139.79769043 60.78467773 -140.94311523 61.25732422 C-165.41854603 71.40286611 -189.60912016 81.67578278 -212.6953125 94.7578125 C-213.52401855 95.22582275 -214.35272461 95.69383301 -215.20654297 96.17602539 C-216.79743712 97.07855496 -218.38391708 97.98892113 -219.96533203 98.90795898 C-221.80225493 99.95401358 -223.68478104 100.91927343 -225.57421875 101.8671875 C-226.23421875 101.5371875 -226.89421875 101.2071875 -227.57421875 100.8671875 C-201.30693025 84.22993323 -174.60533092 68.37251119 -146.57421875 54.8671875 C-145.86152832 54.52316895 -145.14883789 54.17915039 -144.41455078 53.82470703 C-135.22856977 49.40671617 -126.04808899 45.12105344 -116.41015625 41.765625 C-109.98788298 39.62602902 -109.98788298 39.62602902 -105.82421875 34.6796875 C-105.57091797 33.78636719 -105.57091797 33.78636719 -105.3125 32.875 C-102.14770421 24.26809506 -93.00868049 17.06431254 -86.57421875 10.8671875 C-85.58421875 11.1971875 -84.59421875 11.5271875 -83.57421875 11.8671875 C-95.62094306 28.64870902 -95.62094306 28.64870902 -102.1484375 33.703125 C-103.72571017 34.82849577 -103.72571017 34.82849577 -104.57421875 36.8671875 C-103.31387817 36.40517944 -103.31387817 36.40517944 -102.02807617 35.93383789 C-93.38597203 32.80172406 -84.69381133 29.9458411 -75.88671875 27.3046875 C-74.91616043 27.01245804 -74.91616043 27.01245804 -73.92599487 26.71432495 C-64.48565482 23.88232454 -55.04814901 21.43723694 -45.359375 19.62109375 C-41.55246431 18.91897888 -41.55246431 18.91897888 -37.81640625 17.77734375 C-34.27328458 16.78270839 -31.23615605 16.71772067 -27.57421875 16.8671875 C-27.65671875 16.0009375 -27.73921875 15.1346875 -27.82421875 14.2421875 C-27.43531383 8.99197114 -24.92405082 6.11318633 -21.13671875 2.6171875 C-14.81298235 -1.70146175 -7.18217015 -3.16059081 0 0 Z " fill="#F6FBFB" transform="translate(838.57421875,646.1328125)"/>
<path d="M0 0 C0.66 0 1.32 0 2 0 C2.1968121 2.04079005 2.38202831 4.08270007 2.5625 6.125 C2.66691406 7.26195312 2.77132812 8.39890625 2.87890625 9.5703125 C2.99641534 12.89847324 2.62748117 15.74174592 2 19 C2 19.886875 2 20.77375 2 21.6875 C2 24 2 24 1 27 C0.78150391 28.35544922 0.78150391 28.35544922 0.55859375 29.73828125 C-0.0523134 33.30546636 -0.96424921 36.70216037 -1.9375 40.1875 C-3.18532853 44.72293037 -4.28966147 49.23141936 -5.0625 53.875 C-7.19641089 66.4912802 -13.23947179 77.73116324 -18.99316406 89.01464844 C-19.8707997 90.74523355 -20.72998855 92.48514912 -21.5859375 94.2265625 C-32.07773214 114.8373469 -47.37266522 132.14202041 -63.15625 148.81567383 C-66.89979172 152.77327445 -70.49181469 156.83229801 -74 161 C-73.34 161.33 -72.68 161.66 -72 162 C-73.39412109 162.11214844 -73.39412109 162.11214844 -74.81640625 162.2265625 C-84.19884467 163.20463006 -84.19884467 163.20463006 -91.765625 168.3671875 C-94.69507921 172.24222504 -95.3093284 175.40970208 -95.625 180.25 C-95.69976563 181.32765625 -95.77453125 182.4053125 -95.8515625 183.515625 C-95.90054688 184.33546875 -95.94953125 185.1553125 -96 186 C-96.33 186 -96.66 186 -97 186 C-97 184.35 -97 182.7 -97 181 C-98.44098611 181.76429661 -99.87766054 182.53672555 -101.3125 183.3125 C-102.51326172 183.95638672 -102.51326172 183.95638672 -103.73828125 184.61328125 C-105.87995138 185.92639506 -107.27514381 187.19957022 -109 189 C-110.63522334 190.34632454 -112.28255743 191.67799008 -113.9375 193 C-118.18781285 196.44528671 -122.25083543 200.01774156 -126.25 203.75 C-130.29827335 207.52427634 -134.37403973 210.95107164 -139 214 C-139.13277344 213.15695312 -139.26554688 212.31390625 -139.40234375 211.4453125 C-139.57894531 210.34960938 -139.75554688 209.25390625 -139.9375 208.125 C-140.11152344 207.03445313 -140.28554688 205.94390625 -140.46484375 204.8203125 C-140.85551159 202.06178454 -140.85551159 202.06178454 -142 200 C-141.113125 199.43410156 -140.22625 198.86820313 -139.3125 198.28515625 C-136.26893539 196.25462822 -133.65828571 193.95871785 -131 191.4375 C-126.81399092 187.5643041 -122.51729221 183.9785368 -118 180.5 C-112.61573067 176.34846805 -107.56413844 171.96085952 -102.578125 167.33203125 C-100.1224141 165.11072912 -97.60447789 163.04345042 -95 161 C-90.41594595 157.39824325 -86.11536203 153.54666551 -81.8359375 149.58984375 C-79.67878377 147.61988105 -77.49908695 145.7047783 -75.28515625 143.80078125 C-63.25574983 133.30339513 -51.63519225 121.74959782 -42 109 C-41.18660156 107.98035156 -40.37320313 106.96070313 -39.53515625 105.91015625 C-20.59106009 82.08716956 -9.19321684 54.64075728 -3 25 C-2.79375 24.09894531 -2.5875 23.19789063 -2.375 22.26953125 C-1.92470234 19.54429232 -1.90424167 16.94794149 -1.9375 14.1875 C-1.94652344 13.21167969 -1.95554687 12.23585938 -1.96484375 11.23046875 C-1.97644531 10.49441406 -1.98804688 9.75835937 -2 9 C-1.34 9 -0.68 9 0 9 C0 6.03 0 3.06 0 0 Z " fill="#C5E468" transform="translate(998,304)"/>
<path d="M0 0 C4.55486893 3.00406773 7.11681841 6.07350051 8.82421875 11.203125 C9.72154012 17.38083753 9.62717024 22.78197636 6.32421875 28.203125 C2.48171479 33.14989996 -1.45778307 35.52439512 -7.59375 36.64453125 C-14.57704818 37.15339174 -18.92734581 34.61438669 -24.17578125 30.203125 C-27.31061391 27.41410122 -28.94976729 24.89560162 -29.51171875 20.6875 C-29.61421709 13.51261604 -28.75992774 8.05240014 -23.75 2.671875 C-16.43933751 -3.82649166 -8.42558572 -4.70111266 0 0 Z " fill="#FAFCFB" transform="translate(551.17578125,621.796875)"/>
<path d="M0 0 C4.77725428 4.36777534 5.22208774 8.64725576 5.5625 14.8125 C5.50489157 20.33467997 3.71247021 23.82974836 0.1875 28 C-5.02909378 32.96212579 -9.90014749 33.48682978 -16.921875 33.40234375 C-22.60050095 32.61194041 -26.77803245 29.62281357 -30.2578125 25.13671875 C-33.05576387 20.25497843 -33.60213609 15.52745264 -32.8125 10 C-31.04323787 3.58642479 -27.21713066 -0.32775575 -21.8125 -4 C-13.74684138 -6.71981512 -6.77723574 -4.81936764 0 0 Z " fill="#FBFDFB" transform="translate(631.8125,552)"/>
<path d="M0 0 C0.66 0 1.32 0 2 0 C2.3403125 1.918125 2.3403125 1.918125 2.6875 3.875 C4.86577833 13.42937943 8.97950674 20.3029036 17 26 C21.73968267 28.92448505 26.59109828 29.97831856 32 31 C32 31.66 32 32.32 32 33 C31.443125 33.09796875 30.88625 33.1959375 30.3125 33.296875 C19.97277743 35.32290172 13.06813021 39.11980946 7 48 C4.73083495 52.83914161 3.24505766 57.8142744 2 63 C1.34 63 0.68 63 0 63 C-0.309375 61.081875 -0.309375 61.081875 -0.625 59.125 C-2.38390985 51.31445625 -6.61551254 44.21945785 -12.94140625 39.24609375 C-18.45702517 35.9074174 -24.69789487 34.14893974 -31 33 C-31 32.01 -31 31.02 -31 30 C-29.081875 29.6596875 -29.081875 29.6596875 -27.125 29.3125 C-18.2862545 27.30812307 -11.06198084 23.67256216 -6 16 C-2.8932476 10.87694472 -1.25137127 5.83973258 0 0 Z " fill="#53E7E4" transform="translate(878,212)"/>
<path d="M0 0 C0.66 0 1.32 0 2 0 C2.07476563 0.60585937 2.14953125 1.21171875 2.2265625 1.8359375 C3.66722569 11.01663431 7.59307763 18.93745868 15.0078125 24.75390625 C20.24710199 28.03103046 25.94796039 29.91235587 32 31 C32 31.66 32 32.32 32 33 C31.10539063 33.18433594 30.21078125 33.36867188 29.2890625 33.55859375 C19.47266134 35.9132742 12.5584356 39.47371515 6.5703125 48.046875 C4.00735981 52.72379597 2.91821179 57.78069085 2 63 C1.34 63 0.68 63 0 63 C-0.20753906 62.16597656 -0.41507813 61.33195312 -0.62890625 60.47265625 C-3.07738973 51.52903248 -6.22637248 43.58917651 -14.5 38.625 C-15.655 38.08875 -16.81 37.5525 -18 37 C-19.19625 36.443125 -20.3925 35.88625 -21.625 35.3125 C-24.46400508 34.20844247 -27.00069308 33.45444044 -30 33 C-30 32.34 -30 31.68 -30 31 C-29.07380859 30.77957031 -29.07380859 30.77957031 -28.12890625 30.5546875 C-18.75128973 28.07111783 -10.24556375 23.44407823 -5 15 C-2.84624294 10.14024049 -1.22291717 5.17015478 0 0 Z " fill="#FDDC47" transform="translate(773,231)"/>
<path d="M0 0 C0.94101562 -0.01675781 1.88203125 -0.03351563 2.8515625 -0.05078125 C5.375 0.3125 5.375 0.3125 7.2734375 1.58203125 C8.375 3.3125 8.375 3.3125 8.31640625 5.28515625 C7.09457528 7.91640221 5.63692326 9.02362732 3.3125 10.75 C2.4978125 11.35714844 1.683125 11.96429688 0.84375 12.58984375 C-1.29607163 14.08297878 -3.45240344 15.46878123 -5.6875 16.8125 C-13.1301812 21.37557241 -18.2829006 26.72921841 -22.984375 34.078125 C-24.67742996 36.38390461 -26.2087942 37.79815145 -28.625 39.3125 C-31.47047976 39.72891167 -32.94831087 39.70917983 -35.4375 38.25 C-37.41402345 35.02514595 -37.15981396 33.05619771 -36.625 29.3125 C-31.35772569 17.24166305 -19.89077791 6.81385583 -8.1484375 1.109375 C-5.32479811 0.2176994 -2.95772865 0.01222202 0 0 Z " fill="#F6FBF7" transform="translate(838.625,310.6875)"/>
<path d="M0 0 C0.495 0.99 0.495 0.99 1 2 C-6.000571 20.29973823 -18.4072764 37.02425896 -34 49 C-34.66 49 -35.32 49 -36 49 C-34.94124926 45.59687262 -33.99097846 42.98646769 -32 40 C-31.34 40 -30.68 40 -30 40 C-29.00851405 38.03449922 -28.03137471 36.0676817 -27.10546875 34.0703125 C-24.91812236 29.43499972 -22.53910369 25.72537231 -19 22 C-18.34 22 -17.68 22 -17 22 C-16.7628125 21.45859375 -16.525625 20.9171875 -16.28125 20.359375 C-14.65652243 17.36749863 -12.6498123 14.88840601 -10.5 12.25 C-9.7059375 11.26515625 -8.911875 10.2803125 -8.09375 9.265625 C-7.4028125 8.51796875 -6.711875 7.7703125 -6 7 C-5.34 7 -4.68 7 -4 7 C-3.71125 6.401875 -3.4225 5.80375 -3.125 5.1875 C-2 3 -2 3 0 0 Z " fill="#A2D759" transform="translate(829,528)"/>
<path d="M0 0 C0.66 0.33 1.32 0.66 2 1 C1.48616732 5.3675778 0.69038069 8.96186835 -1 13 C-6.80083381 28.92771317 -7.42328117 45.07947955 -6.93408203 61.83374023 C-7 64 -7 64 -8 67 C-8.22179785 68.89212737 -8.40614015 70.78884472 -8.5625 72.6875 C-8.68818359 74.17830078 -8.68818359 74.17830078 -8.81640625 75.69921875 C-8.87699219 76.45847656 -8.93757812 77.21773438 -9 78 C-11.61388261 74.07917608 -11.26961163 70.75661417 -11.23046875 66.2109375 C-11.23001053 65.35190826 -11.22955231 64.49287903 -11.2290802 63.6078186 C-11.22606083 61.79387021 -11.21818395 59.97992433 -11.20581055 58.16601562 C-11.18752502 55.37881364 -11.18530109 52.59194327 -11.18554688 49.8046875 C-11.18063274 48.04426794 -11.17480488 46.28385064 -11.16796875 44.5234375 C-11.16685593 43.68493256 -11.1657431 42.84642761 -11.16459656 41.98251343 C-11.11605613 36.11605613 -11.11605613 36.11605613 -10 35 C-9.70344764 33.38069609 -9.41258117 31.76015231 -9.14990234 30.13500977 C-5.06921873 5.06921873 -5.06921873 5.06921873 0 0 Z " fill="#D5E956" transform="translate(551,404)"/>
<path d="M0 0 C3.56871381 0.50981626 5.03160265 0.93666429 7.5 3.5 C8.70776206 7.12328619 8.90040892 9.69611527 8.5 13.5 C5.78148463 16.71279089 4.09276322 17.40640581 -0.0625 18.0625 C-3.5 17.5 -3.5 17.5 -5.9375 15.4375 C-7.89880697 11.75024289 -8.08949998 9.62649986 -7.5 5.5 C-5.40609418 1.56345706 -4.45581281 0.63654469 0 0 Z " fill="#F8FBF4" transform="translate(611.5,500.5)"/>
<path d="M0 0 C3.06965937 2.28591655 4.68875582 3.75502329 5.625 7.5 C4.73714218 11.05143127 2.7030615 12.62658015 0 15 C-0.33 15.33 -0.66 15.66 -1 16 C-5.13907366 15.84380854 -7.34200698 15.5757439 -10.5 12.8125 C-12 10 -12 10 -12 6.9375 C-9.84081425 0.59489186 -6.60300125 -1.04257914 0 0 Z " fill="#F2F9F3" transform="translate(533,577)"/>
<path d="M0 0 C2.4375 1.0625 2.4375 1.0625 4 3 C4.5625 6.375 4.5625 6.375 4 10 C1.52942103 13.41521211 0.08849737 14.77785768 -4.0625 15.625 C-7 15 -7 15 -9.4375 12.9375 C-11.47631034 9.10453656 -11.14831346 7.13392844 -10 3 C-7.66826038 -1.01577379 -4.26750965 -0.44921154 0 0 Z " fill="#FAFCF2" transform="translate(957,371)"/>
<path d="M0 0 C1.9375 1 1.9375 1 3 3 C3.7518797 9.76691729 3.7518797 9.76691729 1.4375 13.5625 C-1 15 -1 15 -4.5625 15 C-8 14 -8 14 -9.9375 12.3125 C-11.33817538 9.26397123 -11.4842732 7.32073048 -11 4 C-8.05323917 -0.47907646 -5.13567732 -0.65363166 0 0 Z " fill="#EFF9FA" transform="translate(811,701)"/>
<path d="M0 0 C3.8493798 2.47910877 7.1649154 3.34226984 11.5859375 4.2734375 C19.08765375 5.90015375 19.08765375 5.90015375 21.3359375 8.1484375 C20.9609375 10.2734375 20.9609375 10.2734375 20.3359375 12.1484375 C13.77556766 11.56876948 8.03413196 9.39730191 1.8984375 7.0859375 C0.88072266 6.70888672 -0.13699219 6.33183594 -1.18554688 5.94335938 C-3.68076431 5.01790314 -6.17342369 4.08613099 -8.6640625 3.1484375 C-8.3340625 1.8284375 -8.0040625 0.5084375 -7.6640625 -0.8515625 C-4.15290864 -2.09079327 -3.1329213 -2.17742624 0 0 Z " fill="#E5F2F3" transform="translate(753.6640625,689.8515625)"/>
<path d="M0 0 C3.5625 0.3125 3.5625 0.3125 5.5625 1.375 C7.19628851 4.54046524 6.41517564 6.96270286 5.5625 10.3125 C2.11220958 12.61269361 0.61695642 12.74382515 -3.4375 12.3125 C-5.88647847 8.63903229 -5.75287716 6.64893601 -5.4375 2.3125 C-3.4375 0.3125 -3.4375 0.3125 0 0 Z " fill="#EDFAF8" transform="translate(1012.4375,551.6875)"/>
<path d="M0 0 C0.99 0.33 1.98 0.66 3 1 C-9.11085499 17.87085787 -9.11085499 17.87085787 -15.671875 22.73828125 C-16.11015625 23.15464844 -16.5484375 23.57101562 -17 24 C-17 24.99 -17 25.98 -17 27 C-18.32 27.33 -19.64 27.66 -21 28 C-17.59517233 16.39648281 -8.53635798 8.11267845 0 0 Z " fill="#E3F2F1" transform="translate(752,657)"/>
<path d="M0 0 C0.66 0.66 1.32 1.32 2 2 C1.68474365 2.47961182 1.3694873 2.95922363 1.04467773 3.45336914 C-2.06625274 8.29083971 -4.6400378 13.1695047 -6.9375 18.4375 C-7.27668457 19.20521729 -7.61586914 19.97293457 -7.96533203 20.76391602 C-10.64737019 26.9419348 -12.9684256 33.21682608 -15.09741211 39.60522461 C-16.14891336 42.74074135 -17.15143236 45.22714854 -19 48 C-19.60421492 50.38082853 -20.1390323 52.77975094 -20.625 55.1875 C-20.88539063 56.45980469 -21.14578125 57.73210937 -21.4140625 59.04296875 C-21.60742188 60.01878906 -21.80078125 60.99460937 -22 62 C-22.66 62 -23.32 62 -24 62 C-23.50832544 54.7366258 -21.74832036 48.706114 -19.125 41.9375 C-18.73296387 40.90906982 -18.34092773 39.88063965 -17.93701172 38.82104492 C-12.82574828 25.65140229 -7.42454054 12.05716404 0 0 Z " fill="#B9DE46" transform="translate(508,423)"/>
<path d="M0 0 C0.33 0 0.66 0 1 0 C2.3858529 7.22623298 3.194224 14.2756637 3.1875 21.625 C3.18814453 22.31142578 3.18878906 22.99785156 3.18945312 23.70507812 C3.15619554 26.73756504 2.96615379 29.10153862 2 32 C1.77820215 33.89212737 1.59385985 35.78884472 1.4375 37.6875 C1.31181641 39.17830078 1.31181641 39.17830078 1.18359375 40.69921875 C1.12300781 41.45847656 1.06242188 42.21773438 1 43 C-1.61388261 39.07917608 -1.26961163 35.75661417 -1.23046875 31.2109375 C-1.23001053 30.35190826 -1.22955231 29.49287903 -1.2290802 28.6078186 C-1.22606083 26.79387021 -1.21818395 24.97992433 -1.20581055 23.16601562 C-1.18752502 20.37881364 -1.18530109 17.59194327 -1.18554688 14.8046875 C-1.18063274 13.04426794 -1.17480488 11.28385064 -1.16796875 9.5234375 C-1.16685593 8.68493256 -1.1657431 7.84642761 -1.16459656 6.98251343 C-1.11605613 1.11605613 -1.11605613 1.11605613 0 0 Z " fill="#C3E455" transform="translate(541,439)"/>
<path d="M0 0 C3.0625 0.3125 3.0625 0.3125 4.9375 1.5 C6.49573149 4.01048407 6.55881357 5.40552053 6.0625 8.3125 C4.4375 10.6875 4.4375 10.6875 2.0625 12.3125 C-1.0625 12.25 -1.0625 12.25 -3.9375 11.3125 C-5.9375 8.3125 -5.9375 8.3125 -5.6875 5.25 C-4.69210355 1.35136391 -4.04786381 0.43062381 0 0 Z " fill="#EBF6F7" transform="translate(761.9375,638.6875)"/>
<path d="M0 0 C3.0625 0.3125 3.0625 0.3125 4.9375 1.5 C6.46909584 3.96757108 6.49072025 5.45769831 6.0625 8.3125 C4.9375 10.125 4.9375 10.125 3.0625 11.3125 C0 11.625 0 11.625 -2.9375 11.3125 C-4.9375 9.3125 -4.9375 9.3125 -5.1875 5.8125 C-4.87458101 1.43163414 -4.40975115 0.46912246 0 0 Z " fill="#55E5E2" transform="translate(926.9375,261.6875)"/>
<path d="M0 0 C0.66 0 1.32 0 2 0 C2.1968121 2.04079005 2.38202831 4.08270007 2.5625 6.125 C2.66691406 7.26195312 2.77132812 8.39890625 2.87890625 9.5703125 C2.99641534 12.89847324 2.62748117 15.74174592 2 19 C2 19.886875 2 20.77375 2 21.6875 C2 24 2 24 1 27 C0.64763503 28.99673484 0.31165441 30.99650739 0 33 C-0.66 32.67 -1.32 32.34 -2 32 C-2.66 32.66 -3.32 33.32 -4 34 C-3.85704109 32.60386935 -3.71048442 31.20810692 -3.5625 29.8125 C-3.48128906 29.03519531 -3.40007813 28.25789063 -3.31640625 27.45703125 C-3 25 -3 25 -2.46875 22.5625 C-1.94832358 19.71750223 -1.90268294 17.07731608 -1.9375 14.1875 C-1.94652344 13.21167969 -1.95554687 12.23585938 -1.96484375 11.23046875 C-1.97644531 10.49441406 -1.98804688 9.75835937 -2 9 C-1.34 9 -0.68 9 0 9 C0 6.03 0 3.06 0 0 Z " fill="#D5E946" transform="translate(998,304)"/>
<path d="M0 0 C0.33 0 0.66 0 1 0 C2.65262826 16.64432748 1.90021433 31.17532258 -4 47 C-4.28230469 47.76699219 -4.56460938 48.53398437 -4.85546875 49.32421875 C-5.56016435 51.21994916 -6.27858136 53.11057024 -7 55 C-7.66 55 -8.32 55 -9 55 C-8.84144531 54.48695313 -8.68289063 53.97390625 -8.51953125 53.4453125 C-7.99968498 51.73929766 -7.49390723 50.02897991 -6.99609375 48.31640625 C-6.28681566 45.95492742 -5.52290457 43.60956593 -4.72265625 41.27734375 C-0.27484789 27.70458359 -0.08059502 14.19420503 0 0 Z " fill="#D6E652" transform="translate(923,335)"/>
<path d="M0 0 C0.66 0.33 1.32 0.66 2 1 C1.34 1.66 0.68 2.32 0 3 C0.495 3.99 0.495 3.99 1 5 C0.04222656 5.47308594 -0.91554688 5.94617188 -1.90234375 6.43359375 C-10.11330987 10.50626628 -18.25960598 14.67587281 -26.32592773 19.02905273 C-29.82354153 20.90429208 -33.2672957 22.62288579 -37 24 C-33.96284215 20.66278559 -30.89205788 18.64931871 -26.9375 16.5 C-19.82122539 12.58062557 -13.00687148 8.24005346 -6.22241211 3.7734375 C-5.05270874 3.01740234 -5.05270874 3.01740234 -3.859375 2.24609375 C-3.16295898 1.78904053 -2.46654297 1.3319873 -1.74902344 0.86108398 C-1.1718457 0.57692627 -0.59466797 0.29276855 0 0 Z " fill="#CFDFE7" transform="translate(648,724)"/>
<path d="M0 0 C5.28 1.65 10.56 3.3 16 5 C15.67 6.65 15.34 8.3 15 10 C10.40191871 9.46105575 7.13215631 8.23428472 3.125 5.9375 C2.15820312 5.38964844 1.19140625 4.84179688 0.1953125 4.27734375 C-0.52914062 3.85582031 -1.25359375 3.43429687 -2 3 C-1.34 2.67 -0.68 2.34 0 2 C0 1.34 0 0.68 0 0 Z " fill="#E5F7F4" transform="translate(975,539)"/>
<path d="M0 0 C1.66342837 1.66342837 1.36048097 3.7825709 1.5625 6.0625 C1.64628906 6.98160156 1.73007812 7.90070313 1.81640625 8.84765625 C1.87699219 9.55792969 1.93757812 10.26820313 2 11 C0.35 11.33 -1.3 11.66 -3 12 C-5.82561627 8.20307814 -7.56638908 5.81430721 -7 1 C-4.51588385 -0.24205807 -2.74800896 -0.14092354 0 0 Z " fill="#FAFCF1" transform="translate(1013,361)"/>
<path d="M0 0 C3.29714793 0.32971479 4.6226839 0.6226839 7 3 C7.25 6 7.25 6 7 9 C6.34 9.66 5.68 10.32 5 11 C2.5 10.8125 2.5 10.8125 0 10 C-2.14915785 6.77626323 -2.38286803 5.73296326 -2 2 C-1.34 1.34 -0.68 0.68 0 0 Z " fill="#FAFCE9" transform="translate(959,348)"/>
<path d="M0 0 C0.66 0 1.32 0 2 0 C4.40717437 4.51345194 5.13915431 7.48789385 4.875 12.625 C4.69276876 17.03261308 4.69276876 17.03261308 7.125 20.6875 C8.07375 21.450625 9.0225 22.21375 10 23 C11.13719962 24.41151241 12.24047217 25.85087535 13.3125 27.3125 C13.82425781 28.00988281 14.33601563 28.70726562 14.86328125 29.42578125 C15.23839844 29.94527344 15.61351562 30.46476563 16 31 C15.67 31.66 15.34 32.32 15 33 C14.45730469 32.30132813 13.91460938 31.60265625 13.35546875 30.8828125 C12.64003906 29.97273437 11.92460938 29.06265625 11.1875 28.125 C10.47980469 27.22007812 9.77210937 26.31515625 9.04296875 25.3828125 C7.04412259 22.83397044 7.04412259 22.83397044 4 21 C0.85778033 21.31506627 0.85778033 21.31506627 -2 22 C-1.34 21.21625 -0.68 20.4325 0 19.625 C2.86084041 15.34388421 2.56279464 10.96867271 2 6 C1.12899451 2.5385946 1.12899451 2.5385946 0 0 Z " fill="#3DC36A" transform="translate(1026,506)"/>
<path d="M0 0 C-0.0625 2.25 -0.0625 2.25 -1 5 C-4.59263776 7.959199 -7.3243058 9 -12 9 C-11.66466723 5.98200506 -11.13434402 4.19118187 -9.375 1.6875 C-6.16715428 -0.5917588 -3.84279789 -0.29559984 0 0 Z " fill="#F7FCE8" transform="translate(991,396)"/>
<path d="M0 0 C1.65 0.33 3.3 0.66 5 1 C5.33 1.99 5.66 2.98 6 4 C4.73012031 6.04087808 3.38617389 8.03625365 2 10 C0.97069953 11.98507948 -0.03863929 13.98114251 -1 16 C-1.33 16 -1.66 16 -2 16 C-2.05402274 13.89611431 -2.09280256 11.79183286 -2.125 9.6875 C-2.14820313 8.51574219 -2.17140625 7.34398437 -2.1953125 6.13671875 C-2 3 -2 3 0 0 Z " fill="#EDF6E7" transform="translate(585,540)"/>
<path d="M0 0 C0.33 0 0.66 0 1 0 C1.19578135 5.94770225 0.5725039 11.16077465 -0.8125 16.9375 C-0.97814453 17.70384766 -1.14378906 18.47019531 -1.31445312 19.25976562 C-1.83203125 21.46484375 -1.83203125 21.46484375 -3 25 C-3.99 25.33 -4.98 25.66 -6 26 C-5.74292265 23.62279061 -5.46982932 21.24923394 -5.1875 18.875 C-5.11724609 18.20984375 -5.04699219 17.5446875 -4.97460938 16.859375 C-4.42038482 12.3369026 -3.17352635 8.97709078 -1 5 C-0.30092586 2.26427415 -0.30092586 2.26427415 0 0 Z " fill="#E0EF8E" transform="translate(996,331)"/>
<path d="M0 0 C1.98 0 3.96 0 6 0 C4.64054005 3.06715595 3.11992465 5.07741042 0.6875 7.375 C-2.45926766 10.42301972 -5.2541721 13.58851686 -8 17 C-8 12.90540797 -6.03072724 10.23249165 -4 6.8125 C-3.6184375 6.15830078 -3.236875 5.50410156 -2.84375 4.83007812 C-1.90161068 3.21666455 -0.95155734 1.60787702 0 0 Z " fill="#B0E172" transform="translate(839,532)"/>
<path d="M0 0 C0.33 0 0.66 0 1 0 C0.67 10.23 0.34 20.46 0 31 C-0.66 30.67 -1.32 30.34 -2 30 C-2.05819473 25.93756043 -2.09366215 21.87522854 -2.125 17.8125 C-2.14175781 16.66201172 -2.15851562 15.51152344 -2.17578125 14.32617188 C-2.18222656 13.21435547 -2.18867187 12.10253906 -2.1953125 10.95703125 C-2.20578613 9.93585205 -2.21625977 8.91467285 -2.22705078 7.86254883 C-1.98999632 4.87387833 -1.25617102 2.70576631 0 0 Z " fill="#DCED53" transform="translate(592,358)"/>
<path d="M0 0 C4.55555556 0.55555556 4.55555556 0.55555556 6 2 C6.1875 4.4375 6.1875 4.4375 6 7 C5.34 7.66 4.68 8.32 4 9 C-0.55555556 8.44444444 -0.55555556 8.44444444 -2 7 C-2.1875 4.5625 -2.1875 4.5625 -2 2 C-1.34 1.34 -0.68 0.68 0 0 Z " fill="#E5F7F7" transform="translate(875,635)"/>
<path d="M0 0 C0.33 0 0.66 0 1 0 C1.14362235 4.90189317 0.68357135 9.16892379 -0.4375 13.9375 C-1.34214545 17.88848639 -2.15299852 21.7114934 -2.5 25.75 C-2.665 26.8225 -2.83 27.895 -3 29 C-3.99 29.66 -4.98 30.32 -6 31 C-5.36810218 23.97649204 -4.05780811 17.29544275 -2.4375 10.4375 C-2.20353516 9.42880859 -1.96957031 8.42011719 -1.72851562 7.38085938 C-1.15691285 4.91946783 -0.5806646 2.45926653 0 0 Z " fill="#9CD348" transform="translate(483,485)"/>
<path d="M0 0 C-3.5170714 1.63323131 -7.03928111 3.25507795 -10.5625 4.875 C-11.55314453 5.33519531 -12.54378906 5.79539062 -13.56445312 6.26953125 C-18.65674381 8.60420273 -23.55324267 10.67077731 -29 12 C-25.26080072 7.77968479 -20.10528345 6.03718173 -15.0625 3.75 C-14.06025391 3.27820313 -13.05800781 2.80640625 -12.02539062 2.3203125 C-10.57616211 1.65902344 -10.57616211 1.65902344 -9.09765625 0.984375 C-7.77519897 0.37674316 -7.77519897 0.37674316 -6.42602539 -0.24316406 C-3.78251841 -1.06784673 -2.55987695 -0.95005742 0 0 Z " fill="#287A97" transform="translate(683,715)"/>
<path d="M0 0 C0.66 0.33 1.32 0.66 2 1 C1.48989047 5.33593105 0.78254833 9.0154802 -1 13 C-1.37125 13.928125 -1.7425 14.85625 -2.125 15.8125 C-2.41375 16.534375 -2.7025 17.25625 -3 18 C-3.66 17.34 -4.32 16.68 -5 16 C-4.6386062 10.25900136 -2.87304237 4.96252773 0 0 Z " fill="#D5E940" transform="translate(551,404)"/>
<path d="M0 0 C2.5625 0.1875 2.5625 0.1875 4.5625 2.1875 C4.1875 4.8125 4.1875 4.8125 3.5625 7.1875 C1.1875 7.8125 1.1875 7.8125 -1.4375 8.1875 C-3.4375 6.1875 -3.4375 6.1875 -3.625 3.625 C-3.37291261 0.34786389 -3.27713611 0.25208739 0 0 Z " fill="#F7FBE9" transform="translate(928.4375,408.8125)"/>
<path d="M0 0 C0.66 0.33 1.32 0.66 2 1 C-17.57832719 19.13930121 -17.57832719 19.13930121 -24 22 C-17.28017021 13.36021884 -8.52229135 6.77657059 0 0 Z " fill="#1D6C8C" transform="translate(627,688)"/>
<path d="M0 0 C1.2065625 0.0309375 1.2065625 0.0309375 2.4375 0.0625 C3.0625 2.375 3.0625 2.375 3.4375 5.0625 C2.4475 6.5475 2.4475 6.5475 1.4375 8.0625 C0.1175 7.7325 -1.2025 7.4025 -2.5625 7.0625 C-2.94383299 5.0710944 -3.27575582 3.06970923 -3.5625 1.0625 C-2.5625 0.0625 -2.5625 0.0625 0 0 Z " fill="#E6F2EC" transform="translate(562.5625,663.9375)"/>
<path d="M0 0 C1.67542976 0.28604898 3.34385343 0.61781233 5 1 C5.625 3.375 5.625 3.375 6 6 C5.34 6.66 4.68 7.32 4 8 C0.46428571 7.46428571 0.46428571 7.46428571 -1 6 C-1.125 3.5 -1.125 3.5 -1 1 C-0.67 0.67 -0.34 0.34 0 0 Z " fill="#F7FAF0" transform="translate(956,452)"/>
<path d="M0 0 C0.66 0.33 1.32 0.66 2 1 C-10.53918495 15.73354232 -10.53918495 15.73354232 -18 21 C-18.66 21 -19.32 21 -20 21 C-20 20.34 -20 19.68 -20 19 C-18.38281689 17.5671282 -16.70376628 16.20375251 -15 14.875 C-6.4224109 8.40703855 -6.4224109 8.40703855 0 0 Z " fill="#27DACE" transform="translate(999,610)"/>
<path d="M0 0 C3.375 0.75 3.375 0.75 7 2 C7.28875 2.6703125 7.5775 3.340625 7.875 4.03125 C8.24625 4.6809375 8.6175 5.330625 9 6 C11.64787088 6.70373017 11.64787088 6.70373017 14.625 6.75 C16.12933594 6.83507812 16.12933594 6.83507812 17.6640625 6.921875 C18.43492187 6.94765625 19.20578125 6.9734375 20 7 C20 7.33 20 7.66 20 8 C12.64825194 8.55253221 7.488417 7.51064108 1 4 C1 3.34 1 2.68 1 2 C0.34 1.67 -0.32 1.34 -1 1 C-0.67 0.67 -0.34 0.34 0 0 Z " fill="#42AD3E" transform="translate(547,582)"/>
<path d="M0 0 C1.2065625 0.0309375 1.2065625 0.0309375 2.4375 0.0625 C3.125 1.875 3.125 1.875 3.4375 4.0625 C2.3125 5.875 2.3125 5.875 0.4375 7.0625 C-2.25 6.75 -2.25 6.75 -4.5625 6.0625 C-3.48963568 0.08511307 -3.48963568 0.08511307 0 0 Z " fill="#EFF8EC" transform="translate(592.5625,524.9375)"/>
<path d="M0 0 C2.47598865 1.19805902 2.96367818 2.42179364 3.9375 4.9375 C1.9375 6.9375 1.9375 6.9375 -0.6875 7.0625 C-1.47125 7.02125 -2.255 6.98 -3.0625 6.9375 C-3.7225 5.6175 -4.3825 4.2975 -5.0625 2.9375 C-2.64829882 -0.08025148 -2.64829882 -0.08025148 0 0 Z " fill="#E8E43F" transform="translate(822.0625,274.0625)"/>
<path d="M0 0 C2 2 2 2 2 5 C2.66 5.33 3.32 5.66 4 6 C4.66 6.66 5.32 7.32 6 8 C6.99 7.67 7.98 7.34 9 7 C8.34 9.97 7.68 12.94 7 16 C6.34 14.68 5.68 13.36 5 12 C3.68 12.99 2.36 13.98 1 15 C1.20625 13.948125 1.4125 12.89625 1.625 11.8125 C2.00725563 7.92623445 1.61863906 6.42770623 0 3 C0 2.01 0 1.02 0 0 Z " fill="#27BE69" transform="translate(1042,539)"/>
<path d="M0 0 C0.66 0.66 1.32 1.32 2 2 C1.29875 3.03125 0.5975 4.0625 -0.125 5.125 C-3.85679238 11.04881942 -6.35949325 17.53937869 -9 24 C-9.66 24 -10.32 24 -11 24 C-8.56705598 15.33263693 -4.34217123 7.82828494 0 0 Z " fill="#CFE74D" transform="translate(508,423)"/>
<path d="M0 0 C1.4540625 0.0309375 1.4540625 0.0309375 2.9375 0.0625 C3.5625 1.9375 3.5625 1.9375 3.9375 4.0625 C3.2775 4.7225 2.6175 5.3825 1.9375 6.0625 C-0.6875 5.6875 -0.6875 5.6875 -3.0625 5.0625 C-3.625 3.125 -3.625 3.125 -4.0625 1.0625 C-3.0625 0.0625 -3.0625 0.0625 0 0 Z " fill="#D0E759" transform="translate(761.0625,325.9375)"/>
<path d="M0 0 C0.33 0.66 0.66 1.32 1 2 C-0.11375 2.103125 -1.2275 2.20625 -2.375 2.3125 C-3.57125 2.539375 -4.7675 2.76625 -6 3 C-8.29633824 6.44450737 -8.54016485 8.93812283 -9 13 C-9.66 12.67 -10.32 12.34 -11 12 C-11.4247346 7.6677071 -11.47048413 5.65037512 -8.875 2.0625 C-5.56851204 -0.30954571 -3.9760803 -0.46233492 0 0 Z " fill="#FDC336" transform="translate(658,298)"/>
<path d="M0 0 C1.875 1.5625 1.875 1.5625 3 3 C2.01 3.495 2.01 3.495 1 4 C1 3.34 1 2.68 1 2 C0.01 2.33 -0.98 2.66 -2 3 C-2.804375 2.9175 -3.60875 2.835 -4.4375 2.75 C-7.27352239 2.74010268 -7.27352239 2.74010268 -9.3125 5.5 C-10.1478125 6.7375 -10.1478125 6.7375 -11 8 C-10.51970669 2.59670027 -10.51970669 2.59670027 -8.3125 0.0625 C-5.12702876 -1.40109489 -3.32118677 -0.98928968 0 0 Z " fill="#FDC02F" transform="translate(690,294)"/>
<path d="M0 0 C2.33698908 3.50548362 3.45185838 7.0809881 4.6875 11.0625 C5.04424805 12.16174805 5.04424805 12.16174805 5.40820312 13.28320312 C7.12194293 18.75611413 7.12194293 18.75611413 6 21 C2.37971588 14.2421363 -0.49196376 7.87142012 0 0 Z " fill="#2FA64D" transform="translate(481,606)"/>
<path d="M0 0 C0.66 0.33 1.32 0.66 2 1 C2 2.32 2 3.64 2 5 C-2.455 6.485 -2.455 6.485 -7 8 C-4.9957983 3.9915966 -3.50944037 2.58590343 0 0 Z " fill="#0F8092" transform="translate(741,675)"/>
<path d="M0 0 C5.61 0.66 11.22 1.32 17 2 C12.6777917 4.16110415 10.7367134 4.40833736 6 4 C2.5625 2.5 2.5625 2.5 0 1 C0 0.67 0 0.34 0 0 Z " fill="#60D9D9" transform="translate(917,627)"/>
<path d="M0 0 C0.99 0.33 1.98 0.66 3 1 C3 4.3 3 7.6 3 11 C0 8 0 8 -0.29296875 5.95703125 C-0.1953125 3.97135417 -0.09765625 1.98567708 0 0 Z " fill="#90D68F" transform="translate(569,619)"/>
<path d="M0 0 C2.86724686 0.57344937 3.8614515 0.8614515 6 3 C6.125 5.625 6.125 5.625 6 8 C1.3125 4.38671875 1.3125 4.38671875 0 3 C0 2.01 0 1.02 0 0 Z " fill="#EBF5EB" transform="translate(542,597)"/>
<path d="M0 0 C0.66 0.33 1.32 0.66 2 1 C3.11421833 4.64653273 2.94296589 7.33291043 2 11 C1.34 10.67 0.68 10.34 0 10 C0 8.02 0 6.04 0 4 C-1.32 4.99 -2.64 5.98 -4 7 C-2.79618552 4.50638429 -1.54571278 2.31856917 0 0 Z " fill="#3AD8BD" transform="translate(1046,550)"/>
<path d="M0 0 C0.33 0 0.66 0 1 0 C1.07654536 4.51617599 1.10228696 8.59085217 0 13 C-0.66 12.67 -1.32 12.34 -2 12 C-2.66 12.66 -3.32 13.32 -4 14 C-3.5020163 10.26512223 -3.12508244 8.18762365 -1 5 C-0.61500109 3.34450469 -0.27206865 1.6777567 0 0 Z " fill="#D8ED64" transform="translate(996,331)"/>
<path d="M0 0 C0.99 0.33 1.98 0.66 3 1 C2.34 1 1.68 1 1 1 C1 1.99 1 2.98 1 4 C-0.6396875 4.4021875 -0.6396875 4.4021875 -2.3125 4.8125 C-5.61692663 5.87663739 -6.94960422 6.34654664 -9 9 C-8.42655063 6.13275314 -8.1385485 5.1385485 -6 3 C-4.68 3 -3.36 3 -2 3 C-2 2.34 -2 1.68 -2 1 C-1.34 0.67 -0.68 0.34 0 0 Z " fill="#C1E137" transform="translate(955,367)"/>
<path d="M0 0 C0.66 0 1.32 0 2 0 C2.33 3.96 2.66 7.92 3 12 C2.34 11.67 1.68 11.34 1 11 C0.60235737 9.01178687 0.27571139 7.00875442 0 5 C-0.20625 4.236875 -0.4125 3.47375 -0.625 2.6875 C-0.74875 2.130625 -0.8725 1.57375 -1 1 C-0.67 0.67 -0.34 0.34 0 0 Z " fill="#FDAE2B" transform="translate(633,345)"/>
<path d="M0 0 C-0.99 1.485 -0.99 1.485 -2 3 C-0.68 3.33 0.64 3.66 2 4 C-0.31 3.67 -2.62 3.34 -5 3 C-5.33 2.01 -5.66 1.02 -6 0 C-3.50907189 -1.24546405 -2.58919267 -0.7767578 0 0 Z " fill="#1E8F9E" transform="translate(758,688)"/>
<path d="M0 0 C0.66 0.33 1.32 0.66 2 1 C0.02 5.455 0.02 5.455 -2 10 C-2.33 10 -2.66 10 -3 10 C-3.36923077 3.47692308 -3.36923077 3.47692308 -1.5 1.0625 C-1.005 0.711875 -0.51 0.36125 0 0 Z " fill="#F75E40" transform="translate(678,570)"/>
<path d="M0 0 C0.33 0 0.66 0 1 0 C1.21278058 4.46839215 0.59138085 7.82262526 -1 12 C-1.66 12 -2.32 12 -3 12 C-2.14285714 3.42857143 -2.14285714 3.42857143 0 0 Z " fill="#DEF065" transform="translate(595,345)"/>
<path d="M0 0 C0.33 0.66 0.66 1.32 1 2 C2.32 2.33 3.64 2.66 5 3 C0.545 4.485 0.545 4.485 -4 6 C-2 2 -2 2 0 0 Z " fill="#68C45C" transform="translate(890,550)"/>
<path d="M0 0 C0.66 0.33 1.32 0.66 2 1 C0.7391988 2.03319813 -0.53403258 3.05124379 -1.8125 4.0625 C-2.87404297 4.91521484 -2.87404297 4.91521484 -3.95703125 5.78515625 C-4.63121094 6.18605469 -5.30539062 6.58695312 -6 7 C-6.99 6.67 -7.98 6.34 -9 6 C-6.03 4.02 -3.06 2.04 0 0 Z " fill="#DFED4C" transform="translate(593,330)"/>
<path d="M0 0 C1 2 1 2 0.25 5.0625 C-0.1625 6.031875 -0.575 7.00125 -1 8 C-1.99 8.33 -2.98 8.66 -4 9 C-2.94124926 5.59687262 -1.99097846 2.98646769 0 0 Z " fill="#80CD4E" transform="translate(797,568)"/>
<path d="M0 0 C2.1875 0.3125 2.1875 0.3125 4 1 C1.03 3.475 1.03 3.475 -2 6 C-2.33 5.01 -2.66 4.02 -3 3 C-1.75 1.4375 -1.75 1.4375 0 0 Z " fill="#9ADA56" transform="translate(841,533)"/>
<path d="M0 0 C2.10814567 4.21629134 2.17700355 6.39790775 2 11 C1.01 10.34 0.02 9.68 -1 9 C-0.67 6.03 -0.34 3.06 0 0 Z " fill="#D1E745" transform="translate(543,427)"/>
<path d="M0 0 C3 4 3 4 2.8125 6.125 C2 8 2 8 0 10 C0 6.7 0 3.4 0 0 Z " fill="#F3F9E9" transform="translate(543,481)"/>
<path d="M0 0 C0.66 0.66 1.32 1.32 2 2 C0.02 4.97 -1.96 7.94 -4 11 C-4.33 10.34 -4.66 9.68 -5 9 C-4.00390625 6.8359375 -4.00390625 6.8359375 -2.5625 4.375 C-2.08941406 3.55773437 -1.61632812 2.74046875 -1.12890625 1.8984375 C-0.75636719 1.27195312 -0.38382812 0.64546875 0 0 Z " fill="#DAEC5D" transform="translate(508,423)"/>
<path d="M0 0 C0.33 0 0.66 0 1 0 C1.33 3.3 1.66 6.6 2 10 C1.01 10.33 0.02 10.66 -1 11 C-0.67 7.37 -0.34 3.74 0 0 Z " fill="#DCEC7D" transform="translate(991,346)"/>
<path d="M0 0 C0.33 0.66 0.66 1.32 1 2 C0.34 1.67 -0.32 1.34 -1 1 C-0.67 0.67 -0.34 0.34 0 0 Z M-3 2 C-2.34 2.33 -1.68 2.66 -1 3 C-4.465 5.97 -4.465 5.97 -8 9 C-8 8.01 -8 7.02 -8 6 C-5.5 3.8125 -5.5 3.8125 -3 2 Z " fill="#E0EB44" transform="translate(935,296)"/>
<path d="M0 0 C0.66 0.33 1.32 0.66 2 1 C0.02 3.31 -1.96 5.62 -4 8 C-4 4.87099787 -3.57548683 3.62581138 -2 1 C-1.34 0.67 -0.68 0.34 0 0 Z " fill="#9ED969" transform="translate(835,541)"/>
<path d="M0 0 C0 2.64 0 5.28 0 8 C-0.66 7.67 -1.32 7.34 -2 7 C-2.625 3.9375 -2.625 3.9375 -3 1 C-1 0 -1 0 0 0 Z " fill="#FD6B2C" transform="translate(706,466)"/>
<path d="M0 0 C0.33 0.66 0.66 1.32 1 2 C-0.375 4 -0.375 4 -2 6 C-2.66 6 -3.32 6 -4 6 C-4 6.66 -4 7.32 -4 8 C-4.66 7.67 -5.32 7.34 -6 7 C-4.02 4.69 -2.04 2.38 0 0 Z " fill="#25A84F" transform="translate(800,322)"/>
</svg>
