<svg width="590" height="582" viewBox="0 0 590 582" fill="none" xmlns="http://www.w3.org/2000/svg">
<path d="M511.255 15C514.25 15.3088 515.197 15.9359 517.263 18.1953C517.962 19.1621 518.661 20.1289 519.38 21.125C519.96 21.9242 519.96 21.9242 520.551 22.7395C521.802 24.482 523.032 26.2381 524.255 28C524.661 28.5815 525.067 29.1631 525.484 29.7622C543.386 55.6076 558.659 83.9902 568.553 113.886C569.08 115.472 569.616 117.056 570.157 118.638C575.098 133.12 578.896 147.498 581.765 162.524C582.375 165.604 583.116 168.643 583.88 171.688C585.197 177.27 586.061 182.89 586.88 188.562C587.004 189.414 587.127 190.265 587.254 191.141C588.809 202.371 589.425 213.523 589.494 224.855C589.502 226.155 589.51 227.455 589.518 228.795C589.533 231.537 589.543 234.279 589.551 237.021C589.559 239.776 589.58 242.53 589.612 245.284C589.806 262.324 588.977 278.699 585.735 295.485C585.104 298.796 584.578 302.115 584.06 305.445C583.751 307.339 583.441 309.232 583.13 311.125C582.896 312.585 582.896 312.585 582.658 314.074C581.818 319.178 580.751 324.04 579.255 329C578.353 332.472 577.493 335.955 576.63 339.438C576.401 340.36 576.172 341.282 575.935 342.232C575.374 344.488 574.814 346.744 574.255 349C573.595 349 572.935 349 572.255 349C572.008 350.279 571.76 351.558 571.505 352.875C570.321 358.186 568.376 363.003 566.255 368C565.873 368.95 565.49 369.9 565.095 370.879C562.994 376.06 560.748 381.088 558.193 386.062C555.765 390.812 553.828 395.576 552.115 400.625C551.308 402.855 550.361 404.905 549.255 407C548.595 407 547.935 407 547.255 407C546.595 408.98 545.935 410.96 545.255 413C544.595 413 543.935 413 543.255 413C543.154 413.545 543.052 414.091 542.947 414.652C540.208 423.954 533.02 432.363 527.255 440C526.474 441.049 525.693 442.099 524.888 443.18C522.689 446.129 520.486 449.074 518.255 452C517.549 452.941 516.843 453.882 516.115 454.852C515.194 455.915 515.194 455.915 514.255 457C513.595 457 512.935 457 512.255 457C511.967 457.598 511.678 458.196 511.38 458.812C510.255 461 510.255 461 508.255 464C507.595 464 506.935 464 506.255 464C505.994 464.586 505.733 465.171 505.464 465.774C504.182 468.136 502.805 469.709 500.912 471.609C500.247 472.278 499.582 472.947 498.897 473.637C498.19 474.334 497.483 475.031 496.755 475.75C495.678 476.819 495.678 476.819 494.579 477.91C480.235 492 480.235 492 476.255 492C476.002 492.599 475.749 493.198 475.487 493.815C474.102 496.272 472.834 497.331 470.544 498.953C469.8 499.486 469.055 500.019 468.288 500.568C467.493 501.123 466.699 501.678 465.88 502.25C465.07 502.826 464.259 503.401 463.424 503.994C457.924 507.882 452.363 511.67 446.728 515.359C444.604 516.769 442.551 518.231 440.505 519.75C434.843 523.67 428.668 526.318 422.334 528.973C420.191 529.951 420.191 529.951 418.267 531.504C416.159 533.072 414.267 533.941 411.818 534.875C410.945 535.211 410.073 535.548 409.173 535.895C408.21 536.259 407.248 536.624 406.255 537C404.641 537.625 404.641 537.625 402.994 538.262C399.751 539.516 396.503 540.759 393.255 542C392.14 542.435 392.14 542.435 391.002 542.879C386.581 544.585 382.113 545.968 377.552 547.254C375.278 547.922 375.278 547.922 373.391 548.977C371.178 550.037 369.185 550.592 366.791 551.113C365.919 551.307 365.047 551.5 364.149 551.7C363.215 551.902 362.28 552.104 361.318 552.312C355.441 553.607 349.569 554.902 343.732 556.367C332.918 559.081 322.378 561.109 311.255 562C310.197 562.089 309.139 562.178 308.049 562.269C281.023 564.482 254.469 564.498 227.447 562.258C225.414 562.094 223.38 561.945 221.345 561.816C205.067 560.711 189.071 556.761 173.16 553.329C170.691 552.797 168.222 552.269 165.752 551.742C164.647 551.502 164.647 551.502 163.519 551.256C161.436 550.812 159.349 550.397 157.255 550C156.58 549.867 155.904 549.734 155.208 549.597C150.187 548.765 146.659 549.427 141.884 551.066C141.202 551.295 140.521 551.523 139.818 551.759C138.368 552.245 136.92 552.739 135.474 553.239C132.526 554.25 129.562 555.208 126.598 556.17C123.558 557.158 120.525 558.166 117.492 559.175C115.192 559.938 112.891 560.694 110.589 561.451C96.3575 566.16 82.6141 571.643 69.0718 578.094C68.2533 578.473 67.4347 578.852 66.5914 579.242C65.517 579.75 65.517 579.75 64.421 580.269C61.9056 581.118 59.8935 581.198 57.2554 581C56.2554 580 56.2554 580 55.9156 577.293C56.3567 573.019 57.8443 571.491 60.6929 568.312C61.6234 567.255 62.5531 566.196 63.482 565.137C63.9515 564.61 64.4211 564.083 64.9048 563.541C66.8712 561.298 68.7125 558.96 70.5679 556.625C74.6677 551.593 79.024 546.841 83.4754 542.122C86.2386 539.19 88.9373 536.227 91.564 533.172C95.73 528.383 100.196 523.913 104.693 519.438C105.501 518.626 106.308 517.815 107.14 516.979C111.429 512.697 115.791 508.575 120.386 504.624C123.359 502.041 126.204 499.326 129.068 496.625C134.929 491.147 140.958 485.975 147.255 481C148.785 479.778 148.785 479.778 150.345 478.531C165.197 466.713 180.259 455.288 196.352 445.207C198.111 444.091 199.847 442.938 201.58 441.781C223.046 427.488 246.67 416.321 270.219 405.926C272.246 405.045 272.246 405.045 274.037 403.963C277.233 402.576 280.522 402.181 283.947 401.711C285.094 401.548 285.094 401.548 286.265 401.382C288.781 401.033 291.299 400.701 293.818 400.375C294.684 400.263 295.549 400.15 296.441 400.034C321.103 396.905 345.392 396.74 370.041 400.246C381.451 401.754 392.839 402.146 404.334 401.746C406.025 401.697 407.716 401.648 409.408 401.6C411.984 401.525 414.555 401.435 417.129 401.301C422.642 401.025 427.833 400.872 433.255 402C435.884 404.408 437.01 406.33 438.303 409.631C439.132 412.333 439.132 412.333 442.318 414.062C449.718 416.424 458.241 417.698 465.568 414.5C470.916 411.403 474.058 406.557 476.63 401.062C477.989 394.404 477.985 388.884 474.591 382.855C471.14 378.062 466.878 374.808 461.255 373C453.652 372.163 446.476 372.154 440.255 377C436.413 380.628 434.082 384.025 432.255 389C410.769 391.802 389.318 391.729 367.755 389.787C351.636 388.405 335.424 388.316 319.255 388C319.255 387.34 319.255 386.68 319.255 386C331.775 380.687 344.819 377.272 357.896 373.637C365.674 371.466 373.378 369.138 381.073 366.688C385.603 365.26 390.149 363.883 394.693 362.5C395.679 362.2 396.666 361.9 397.682 361.59C404.195 359.613 410.721 357.68 417.255 355.773C422.597 354.209 427.908 352.557 433.216 350.881C438.954 349.076 444.72 347.373 450.498 345.699C454.449 344.55 458.359 343.324 462.255 342C463.216 341.699 463.216 341.699 464.196 341.393C471.938 338.931 479.307 335.615 486.724 332.32C487.75 331.879 488.776 331.439 489.834 330.984C491.217 330.377 491.217 330.377 492.628 329.757C498.901 327.95 504.029 331.836 509.416 334.723C512.344 336.273 512.344 336.273 516.255 336C516.585 334.68 516.915 333.36 517.255 332C516.592 331.879 515.928 331.758 515.244 331.633C510.721 330.775 506.456 329.96 502.255 328C502.255 327.34 502.255 326.68 502.255 326C502.794 325.723 503.333 325.447 503.888 325.161C506.368 323.884 508.843 322.598 511.318 321.312C512.165 320.877 513.013 320.442 513.886 319.994C517.86 317.923 521.637 315.825 525.252 313.168C528.255 311 528.255 311 530.255 311C531.963 312.624 533.631 314.292 535.255 316C536.806 317.551 538.292 317.207 540.443 317.25C544.75 317.195 547.609 316.431 551.255 314C554.693 310.219 554.711 307.41 554.537 302.473C554.144 299.023 553.308 296.806 551.255 294C547.489 291.373 543.919 290.318 539.283 290.531C535.344 291.442 532.46 293.657 530.255 297C529.407 299.97 528.796 302.96 528.255 306C525.298 306.838 522.34 307.669 519.38 308.5C518.118 308.858 518.118 308.858 516.83 309.223C515.621 309.561 515.621 309.561 514.388 309.906C513.645 310.116 512.901 310.325 512.135 310.541C510.255 311 510.255 311 508.255 311C509.453 307.778 510.748 305.096 512.755 302.312C521.432 289.542 528.325 275.979 532.685 261.152C536.717 248.106 536.717 248.106 541.197 244.887C544.38 243.688 544.38 243.688 547.509 242.812C551.791 241.546 552.96 239.777 555.255 236C558.337 229.926 559.566 224.078 557.447 217.484C555.066 211.981 552.185 208.073 546.99 204.996C540.572 202.658 533.24 202.692 526.994 205.43C520.982 208.877 517.378 212.346 515.255 219C514.348 225.445 515.281 230.279 518.255 236C518.544 236.722 518.833 237.444 519.13 238.188C520.705 240.724 522.914 242.182 525.255 244C523.539 254.611 520.209 263.515 515.255 273C514.853 273.782 514.45 274.564 514.035 275.37C508.335 286.362 502.131 296.538 494.523 306.304C493.282 307.965 492.162 309.661 491.056 311.414C485.42 319.977 479.96 322.345 470.255 325C468.256 325.713 466.276 326.47 464.294 327.23C460.938 328.498 457.536 329.622 454.13 330.75C453.371 331.002 452.611 331.255 451.828 331.515C445.483 333.613 439.122 335.659 432.755 337.688C431.413 338.115 431.413 338.115 430.044 338.552C424.132 340.427 418.201 342.235 412.255 344C413.974 340.369 416.104 337.721 418.755 334.688C428.606 323.116 438.813 308.912 444.15 294.602C445.255 293 445.255 293 447.83 292.348C449.371 292.207 449.371 292.207 450.943 292.062C456.831 291.264 459.874 290.001 464.255 286C467.827 280.311 467.906 272.102 466.755 265.625C464.873 261.075 462.36 258.642 458.255 256C451.339 253.695 442.987 254.376 436.255 257C432.507 260.397 429.425 263.863 429.017 269.012C428.79 278.725 428.79 278.725 433.255 287C433.915 287.33 434.575 287.66 435.255 288C431.445 307.662 411.2 327.55 397.327 340.936C394.703 343.477 392.496 345.988 390.443 349C386.537 353.616 380.388 354.148 374.762 355.406C369.657 356.616 364.618 358.079 359.568 359.5C358.536 359.785 357.503 360.07 356.44 360.363C350.084 362.134 343.855 364.118 337.643 366.346C335.255 367 335.255 367 333.255 366C333.812 365.406 334.369 364.811 334.943 364.199C344.81 353.482 353.442 341.649 359.962 328.578C364.071 320.535 364.071 320.535 367.74 318.879C370.263 318.397 372.694 318.156 375.255 318C379.003 316.969 379.003 316.969 381.443 314.188C381.711 313.466 381.979 312.744 382.255 312C382.627 311.299 382.998 310.598 383.38 309.875C385.066 304.337 385.34 298.397 382.693 293.125C379.291 288.763 376.253 286.571 370.896 285.551C364.845 285.128 360.913 286.658 356.107 290.301C352.242 293.848 351.116 297.272 350.818 302.375C350.947 306.61 352.191 309.629 354.283 313.273C355.255 315 355.255 315 356.255 318C355.232 320.749 354.148 323.303 352.88 325.938C352.515 326.701 352.149 327.464 351.772 328.251C344.752 342.44 333.433 355.284 321.147 365.273C319.248 367.007 317.97 368.771 316.478 370.855C311.386 376.748 304.197 378.331 297.005 380.5C295.617 380.943 294.229 381.388 292.841 381.836C282.887 385 282.887 385 279.255 385C277.459 352.057 295.318 316.182 316.255 292C316.898 291.255 316.898 291.255 317.553 290.495C323.9 283.184 330.614 276.979 338.255 271C339.986 269.543 341.715 268.085 343.443 266.625C349.736 261.476 356.422 256.962 363.157 252.42C366.623 250.074 370.062 247.691 373.505 245.312C378.117 242.132 382.755 239.005 387.443 235.938C393.967 231.609 400.129 226.868 406.255 222C406.958 221.443 407.661 220.886 408.384 220.312C412.861 216.627 416.614 212.504 420.255 208C420.923 207.176 420.923 207.176 421.605 206.335C432.464 192.801 440.232 178.685 445.255 162C445.646 160.748 445.646 160.748 446.044 159.471C448.267 151.67 448.721 144.148 448.647 136.082C448.63 134.002 448.646 131.924 448.666 129.844C448.68 120.539 447.68 111.963 444.155 103.294C443.255 101 443.255 101 443.259 98.9805C444.806 95.9044 447.456 94.2658 450.193 92.3125C451.393 91.421 452.591 90.5264 453.787 89.6289C454.676 88.9621 454.676 88.9621 455.584 88.2817C459.713 85.1158 463.483 81.577 467.255 78C468.03 77.2822 468.03 77.2822 468.82 76.5498C484.192 62.241 495.703 45.6342 505.255 27C505.586 26.3576 505.916 25.7151 506.256 25.0532C507.961 21.7205 509.629 18.3717 511.255 15Z" fill="#0FA4AB"/>
<path d="M511.255 15C514.25 15.3088 515.197 15.9359 517.263 18.1953C517.962 19.1621 518.661 20.1289 519.38 21.125C519.767 21.6578 520.153 22.1906 520.551 22.7395C521.802 24.482 523.032 26.2381 524.255 28C524.661 28.5815 525.067 29.1631 525.484 29.7622C543.386 55.6076 558.659 83.9902 568.553 113.886C569.08 115.472 569.616 117.056 570.157 118.638C575.098 133.12 578.896 147.498 581.765 162.524C582.375 165.604 583.116 168.643 583.88 171.688C585.197 177.27 586.061 182.89 586.88 188.562C587.004 189.414 587.127 190.265 587.254 191.141C588.809 202.371 589.425 213.523 589.494 224.855C589.502 226.155 589.51 227.455 589.518 228.795C589.533 231.537 589.543 234.279 589.551 237.021C589.559 239.776 589.58 242.53 589.612 245.284C589.806 262.324 588.977 278.699 585.735 295.485C585.104 298.796 584.578 302.115 584.06 305.445C583.751 307.339 583.441 309.232 583.13 311.125C582.974 312.098 582.818 313.071 582.658 314.074C581.817 319.183 580.748 324.045 579.255 329C579.152 329.928 579.049 330.856 578.943 331.812C578.603 332.895 578.603 332.895 578.255 334C575.693 335.312 575.693 335.312 573.255 336C571.016 333.193 569.436 330.446 567.943 327.188C565.91 322.991 563.604 319.74 560.392 316.375C559.255 315 559.255 315 559.255 313C558.265 312.67 557.275 312.34 556.255 312C556.29 310.931 556.29 310.931 556.326 309.84C556.434 304.116 556.176 299.402 554.255 294C553.513 293.876 552.77 293.752 552.005 293.625C549.255 293 549.255 293 547.443 291.938C544.015 290.468 540.86 290.255 537.255 291C534.264 292.534 532.109 294.19 530.255 297C529.407 299.97 528.796 302.96 528.255 306C525.298 306.838 522.34 307.669 519.38 308.5C518.539 308.738 517.697 308.977 516.83 309.223C515.621 309.561 515.621 309.561 514.388 309.906C513.273 310.22 513.273 310.22 512.135 310.541C510.255 311 510.255 311 508.255 311C509.453 307.778 510.748 305.096 512.755 302.312C521.432 289.542 528.325 275.979 532.685 261.152C536.717 248.106 536.717 248.106 541.197 244.887C544.38 243.688 544.38 243.688 547.509 242.812C551.791 241.546 552.96 239.777 555.255 236C558.337 229.926 559.566 224.078 557.447 217.484C555.066 211.981 552.185 208.073 546.99 204.996C540.572 202.658 533.24 202.692 526.994 205.43C520.982 208.877 517.378 212.346 515.255 219C514.348 225.445 515.281 230.279 518.255 236C518.544 236.722 518.833 237.444 519.13 238.188C520.705 240.724 522.914 242.182 525.255 244C523.539 254.611 520.209 263.515 515.255 273C514.853 273.782 514.45 274.564 514.035 275.37C508.335 286.362 502.131 296.538 494.523 306.304C493.282 307.965 492.162 309.661 491.056 311.414C485.42 319.977 479.96 322.345 470.255 325C468.256 325.713 466.276 326.47 464.294 327.23C460.938 328.498 457.536 329.622 454.13 330.75C453.371 331.002 452.611 331.255 451.828 331.515C445.483 333.613 439.122 335.659 432.755 337.688C431.413 338.115 431.413 338.115 430.044 338.552C424.132 340.427 418.201 342.235 412.255 344C413.974 340.369 416.104 337.721 418.755 334.688C428.606 323.116 438.813 308.912 444.15 294.602C445.255 293 445.255 293 447.83 292.348C448.857 292.254 449.884 292.159 450.943 292.062C456.831 291.264 459.874 290.001 464.255 286C467.827 280.311 467.906 272.102 466.755 265.625C464.873 261.075 462.36 258.642 458.255 256C451.339 253.695 442.987 254.376 436.255 257C432.507 260.397 429.425 263.863 429.017 269.012C428.79 278.725 428.79 278.725 433.255 287C433.915 287.33 434.575 287.66 435.255 288C431.445 307.662 411.2 327.55 397.327 340.936C394.703 343.477 392.496 345.988 390.443 349C386.537 353.616 380.388 354.148 374.762 355.406C369.657 356.616 364.618 358.079 359.568 359.5C358.536 359.785 357.503 360.07 356.44 360.363C350.084 362.134 343.855 364.118 337.643 366.346C335.255 367 335.255 367 333.255 366C333.812 365.406 334.369 364.811 334.943 364.199C344.81 353.482 353.442 341.649 359.962 328.578C364.071 320.535 364.071 320.535 367.74 318.879C370.263 318.397 372.694 318.156 375.255 318C379.003 316.969 379.003 316.969 381.443 314.188C381.711 313.466 381.979 312.744 382.255 312C382.627 311.299 382.998 310.598 383.38 309.875C385.066 304.337 385.34 298.397 382.693 293.125C379.291 288.763 376.253 286.571 370.896 285.551C364.845 285.128 360.913 286.658 356.107 290.301C352.242 293.848 351.116 297.272 350.818 302.375C350.947 306.61 352.191 309.629 354.283 313.273C355.255 315 355.255 315 356.255 318C355.232 320.749 354.148 323.303 352.88 325.938C352.515 326.701 352.149 327.464 351.772 328.251C344.752 342.44 333.433 355.284 321.147 365.273C319.248 367.007 317.97 368.771 316.478 370.855C311.386 376.748 304.197 378.331 297.005 380.5C295.617 380.943 294.229 381.388 292.841 381.836C282.887 385 282.887 385 279.255 385C277.459 352.057 295.318 316.182 316.255 292C316.684 291.503 317.112 291.006 317.553 290.495C323.9 283.184 330.614 276.979 338.255 271C339.986 269.543 341.715 268.085 343.443 266.625C349.736 261.476 356.422 256.962 363.157 252.42C366.623 250.074 370.062 247.691 373.505 245.312C378.117 242.132 382.755 239.005 387.443 235.938C393.967 231.609 400.129 226.868 406.255 222C406.958 221.443 407.661 220.886 408.384 220.312C412.861 216.627 416.614 212.504 420.255 208C420.924 207.176 420.924 207.176 421.605 206.335C432.464 192.801 440.232 178.685 445.255 162C445.516 161.165 445.776 160.331 446.045 159.471C448.267 151.67 448.721 144.148 448.647 136.082C448.63 134.002 448.647 131.924 448.666 129.844C448.68 120.539 447.68 111.963 444.155 103.294C443.255 101 443.255 101 443.259 98.9805C444.806 95.9044 447.456 94.2658 450.193 92.3125C451.393 91.421 452.591 90.5264 453.787 89.6289C454.38 89.1843 454.973 88.7398 455.584 88.2817C459.713 85.1158 463.483 81.577 467.255 78C467.772 77.5214 468.288 77.0429 468.82 76.5498C484.192 62.241 495.703 45.6342 505.255 27C505.586 26.3576 505.916 25.7151 506.256 25.0532C507.961 21.7205 509.629 18.3717 511.255 15Z" fill="#9ED636"/>
<path d="M127.255 115C128.435 118.537 128.086 118.929 126.505 122.125C124.619 126.093 123.209 130.039 121.966 134.25C121.255 136 121.255 136 119.255 137C119.205 143.726 119.17 150.452 119.146 157.178C119.136 159.465 119.122 161.752 119.105 164.04C119.08 167.331 119.069 170.622 119.06 173.914C119.05 174.933 119.039 175.952 119.029 177.002C119.028 182.114 119.317 186.192 121.255 191C121.472 192.671 121.472 192.671 121.693 194.375C122.222 197.783 123.197 200.659 124.433 203.864C125.199 205.854 125.931 207.852 126.65 209.859C129.324 217.23 132.198 224.301 135.861 231.254C137.255 234 137.255 234 138.607 237.273C140.498 241.758 142.972 245.878 145.443 250.062C146.433 251.758 147.422 253.453 148.412 255.148C149.359 256.766 150.307 258.383 151.255 260C156.653 269.206 161.687 278.519 166.341 288.119C167.178 289.84 168.028 291.555 168.88 293.27C185.397 327.464 187.72 369.226 175.259 405.245C167.427 426.749 156.054 445.585 141.255 463C140.648 463.731 140.041 464.462 139.416 465.215C135.916 469.35 132.196 472.968 128.052 476.457C126.231 477.968 126.231 477.968 124.646 479.699C123.255 481 123.255 481 121.255 481C120.925 481.99 120.595 482.98 120.255 484C118.942 480.06 119.905 478.188 121.13 474.25C123.555 466.417 124.421 459.05 124.529 450.902C124.541 450.039 124.554 449.176 124.567 448.287C124.779 430.258 124.87 413.31 119.255 396C118.797 394.397 118.343 392.793 117.892 391.188C112.196 371.845 102.838 353.539 94.0953 335.426C93.631 334.463 93.1667 333.5 92.6883 332.508C91.8466 330.773 90.9968 329.042 90.137 327.316C88.119 323.192 86.7141 319.638 86.2554 315C85.5954 315 84.9354 315 84.2554 315C83.8571 313.793 83.4588 312.587 83.0484 311.344C82.5133 309.729 81.9782 308.115 81.4429 306.5C81.1819 305.709 80.9209 304.917 80.6519 304.102C79.4192 300.388 78.1556 296.71 76.7203 293.07C74.9018 288.284 73.777 283.357 72.6304 278.375C72.4139 277.46 72.1973 276.545 71.9742 275.602C70.9159 271.081 69.9911 266.586 69.2554 262C68.7886 272.212 70.1375 281.683 72.1929 291.625C72.3458 292.382 72.4987 293.138 72.6563 293.918C76.5419 313.001 82.6335 331.084 90.2554 349C106.486 387.431 106.486 387.431 109.255 408C109.357 408.739 109.458 409.479 109.563 410.24C111.892 427.827 112.305 444.657 108.255 462C108.067 462.819 107.879 463.637 107.686 464.481C103.783 480.92 97.7272 496.361 86.2554 509C82.55 508.189 80.1227 506.755 77.0054 504.562C76.1134 503.945 75.2214 503.328 74.3023 502.691C73.6268 502.133 72.9514 501.575 72.2554 501C72.2554 500.34 72.2554 499.68 72.2554 499C71.7153 498.776 71.1752 498.551 70.6187 498.32C67.508 496.582 65.0324 494.29 62.4429 491.875C61.906 491.376 61.369 490.878 60.8157 490.364C56.6589 486.461 52.8773 482.406 49.2554 478C48.3045 476.907 47.3526 475.814 46.4 474.723C31.3764 457.211 18.8936 435.973 12.1422 413.809C11.2478 410.852 11.2478 410.852 9.84138 407.477C7.68601 401.786 6.48955 395.87 5.19294 389.938C4.93706 388.812 4.68118 387.686 4.41755 386.525C1.28386 372.355 -0.0984917 358.589 0.0054394 344.125C0.00787653 343.38 0.0103137 342.635 0.0128246 341.867C0.0489097 332.455 0.228115 323.148 1.66877 313.831C2.2221 310.218 2.68597 306.604 3.13435 302.977C6.03123 281.198 11.6447 260.202 20.2554 240C20.6731 239.01 21.0908 238.019 21.5211 236.999C31.4618 213.685 44.1484 192.118 60.2188 172.507C61.5038 170.925 62.7736 169.331 64.0213 167.72C69.1138 161.168 74.6788 155.275 80.5679 149.438C81.8779 148.116 81.8779 148.116 83.2144 146.768C97.7014 132.323 97.7014 132.323 106.13 127.75C109.335 126.141 109.335 126.141 111.693 123.562C116.008 119.248 121.025 115.584 127.255 115Z" fill="#68BA39"/>
<path d="M383.38 81.625C384.413 81.6134 385.446 81.6018 386.509 81.5898C397.641 81.6324 407.101 85.5002 415.459 92.9688C425.672 103.728 429.653 116.218 429.505 130.75C429.497 131.728 429.489 132.706 429.481 133.713C429.05 161.546 415.559 186.283 396.101 205.644C390.324 211.187 384.39 215.305 377.255 219C376.244 219.55 375.232 220.101 374.189 220.668C363.242 226.217 350.584 229.248 338.298 229.629C334.418 230.334 331.897 232.25 329.369 235.207C328.774 236.067 328.18 236.927 327.568 237.812C326.885 238.788 326.202 239.764 325.498 240.77C324.758 241.836 324.018 242.902 323.255 244C322.427 245.152 321.597 246.301 320.763 247.449C319.906 248.633 319.05 249.816 318.193 251C317.806 251.532 317.419 252.064 317.02 252.613C313.205 257.93 309.735 263.459 306.255 269C305.703 269.873 305.15 270.745 304.581 271.644C289.095 296.247 275.007 322.562 265.255 350C264.807 351.243 264.807 351.243 264.349 352.51C262.531 357.558 260.764 362.622 259.037 367.702C258.303 369.86 257.56 372.014 256.814 374.168C254.519 380.871 252.589 387.392 251.517 394.414C248.126 401.364 237.487 404.427 230.88 407.625C220.975 412.494 211.516 417.812 202.216 423.75C198.911 425.857 195.582 427.926 192.255 430C192.639 428.414 193.039 426.831 193.443 425.25C193.663 424.368 193.884 423.487 194.111 422.578C195.818 417.242 198.068 412.155 200.255 407C201.029 405.138 201.802 403.276 202.572 401.412C203.663 398.776 204.76 396.143 205.857 393.509C206.414 392.17 206.969 390.831 207.523 389.491C210.713 381.775 214.042 374.215 217.846 366.775C219.189 364.132 220.466 361.468 221.72 358.781C229.002 343.204 237.02 328.085 245.255 313C245.981 311.663 245.981 311.663 246.722 310.298C252.874 298.971 259.434 287.936 266.255 277C266.947 275.886 266.947 275.886 267.652 274.749C278.458 257.351 289.387 239.809 301.982 223.64C306.387 217.871 307.748 213.13 306.877 206.055C305.95 201.498 304.548 197.115 303.072 192.709C298.393 178.707 300.06 165.085 303.255 151C303.437 150.13 303.619 149.26 303.806 148.363C306.998 135.575 315.085 123.127 323.255 113C323.845 112.247 324.434 111.494 325.041 110.719C339.414 93.3852 360.709 81.3683 383.38 81.625Z" fill="#05853C"/>
<path d="M213.318 80.9375C216.73 82.1717 218.002 83.1664 220.255 86C220.966 88.5958 221.452 90.9275 221.818 93.5703C221.935 94.3152 222.051 95.0601 222.171 95.8276C222.548 98.258 222.902 100.691 223.255 103.125C223.513 104.815 223.772 106.505 224.032 108.195C224.55 111.57 225.059 114.947 225.559 118.325C226.149 122.302 226.762 126.275 227.388 130.246C228.773 139.046 230.105 147.85 231.318 156.676C231.496 157.96 231.673 159.243 231.857 160.566C232.198 163.049 232.533 165.533 232.861 168.018C233.015 169.133 233.168 170.249 233.326 171.398C233.457 172.385 233.589 173.372 233.725 174.388C234.237 176.909 234.986 178.777 236.255 181C241.177 181.463 241.177 181.463 245.47 179.395C247.829 176.23 247.695 174.351 247.568 170.438C247.531 169.192 247.493 167.947 247.455 166.664C247.093 160.021 246.592 153.539 245.334 147C244.147 140.588 243.264 134.147 242.38 127.688C240.995 117.714 239.419 107.808 237.475 97.9285C235.276 86.5276 235.276 86.5276 237.818 82.5625C240.255 81 240.255 81 243.755 80.9375C248.025 82.2337 248.828 83.3103 251.255 87C252.42 89.7906 253.219 92.6455 254.005 95.5625C254.251 96.4574 254.498 97.3524 254.751 98.2744C274.674 172.696 274.674 172.696 268.255 205C267.595 205 266.935 205 266.255 205C266.313 205.853 266.371 206.707 266.431 207.586C265.729 221.22 253.328 232.525 243.88 241.062C241.745 242.874 239.811 244.261 237.38 245.688C234.833 247.261 234.34 248.24 233.255 251C232.966 253.511 232.966 253.511 233.025 256.211C233.027 257.209 233.029 258.206 233.031 259.234C233.043 260.271 233.055 261.307 233.068 262.375C233.069 263.404 233.069 264.432 233.07 265.492C233.099 270.472 233.429 275.086 234.255 280C234.586 284.393 234.669 288.783 234.755 293.188C234.81 294.356 234.864 295.525 234.919 296.729C235.04 304.462 233.748 308.977 229.234 315.241C225.74 320.113 223.075 325.469 220.255 330.75C219.645 331.889 219.034 333.029 218.404 334.203C214.065 342.352 209.978 350.551 206.255 359C205.826 359.956 205.397 360.913 204.955 361.898C204.046 363.928 203.149 365.963 202.255 368C201.925 368 201.595 368 201.255 368C201.399 365.562 201.545 363.125 201.693 360.688C201.732 360.017 201.772 359.346 201.812 358.654C202.051 354.746 202.368 350.859 202.767 346.964C203.315 340.967 203.4 335.019 203.388 329C203.389 327.884 203.39 326.768 203.391 325.619C203.392 323.269 203.39 320.92 203.386 318.57C203.38 315.037 203.386 311.505 203.392 307.973C205.333 278.68 205.333 278.68 197.255 252C194.812 250.417 192.221 249.251 189.568 248.062C183.607 245.228 178.204 242.44 173.255 238C172.532 237.368 171.809 236.737 171.064 236.086C151.385 217.772 146.966 190.474 144.794 164.926C144.427 160.683 143.97 156.459 143.466 152.23C141.972 139.494 140.936 126.883 140.818 114.062C140.796 112.842 140.774 111.622 140.751 110.365C140.777 99.5983 140.777 99.5983 145.255 95C148.755 93.9375 148.755 93.9375 152.255 94C154.828 95.4495 156.027 96.2987 156.953 99.1379C157.045 99.9548 157.137 100.772 157.232 101.613C157.345 102.533 157.459 103.453 157.576 104.4C157.727 105.842 157.727 105.842 157.88 107.312C158.101 109.184 158.322 111.055 158.544 112.926C158.656 113.907 158.768 114.889 158.883 115.9C159.416 120.337 160.061 124.755 160.702 129.177C161.637 135.634 162.533 142.096 163.433 148.558C163.647 150.099 163.863 151.64 164.078 153.181C164.399 155.472 164.718 157.763 165.037 160.055C165.141 160.799 165.245 161.543 165.352 162.31C165.868 166.043 166.355 169.777 166.787 173.521C166.871 174.244 166.956 174.968 167.043 175.714C167.272 177.691 167.491 179.67 167.711 181.649C168.21 184.72 168.965 187.183 170.255 190C175.742 191.33 175.742 191.33 180.693 189.438C183.566 184.956 183.403 180.431 182.697 175.297C182.558 174.233 182.42 173.17 182.277 172.074C182.125 170.977 181.974 169.88 181.818 168.75C180.776 161.113 180.012 153.715 180.255 146C179.595 146 178.935 146 178.255 146C177.7 140.739 177.149 135.478 176.601 130.216C176.415 128.434 176.228 126.652 176.04 124.87C175.497 119.732 174.981 114.593 174.496 109.45C174.262 107.072 173.996 104.699 173.728 102.324C173.588 100.893 173.45 99.4624 173.314 98.0312C173.182 96.7892 173.05 95.5472 172.913 94.2676C173.255 91 173.255 91 175.564 88.1035C178.255 86 178.255 86 181.255 85.3125C184.639 86.088 186.007 87.2629 188.141 89.9602C190.444 94.1749 190.527 98.9781 190.943 103.688C191.152 105.754 191.364 107.821 191.58 109.887C191.684 110.912 191.789 111.938 191.897 112.994C192.343 116.737 193.033 120.407 193.74 124.108C194.745 129.749 195.404 135.442 196.13 141.125C197.446 151.162 198.822 161.185 200.38 171.188C200.539 172.238 200.697 173.288 200.86 174.37C201.014 175.334 201.168 176.299 201.326 177.293C201.457 178.134 201.589 178.974 201.725 179.841C202.193 182.275 202.193 182.275 204.255 185C208.11 185.5 210.315 185.724 213.459 183.305C217.658 177.919 215.364 169.34 214.58 162.898C214.024 157.278 214.024 157.278 212.255 152C212.082 150.591 211.958 149.175 211.861 147.758C211.794 146.869 211.728 145.981 211.659 145.065C211.588 144.095 211.517 143.125 211.443 142.125C210.685 132.615 209.551 123.193 208.193 113.75C208.019 112.531 207.844 111.311 207.664 110.055C206.817 103.946 206.817 103.946 205.255 98C204.687 92.3035 204.225 87.6056 207.38 82.6875C210.255 81 210.255 81 213.318 80.9375Z" fill="#FD881D"/>
<path d="M427.255 273C427.503 274.011 427.75 275.021 428.005 276.062C429.172 280.153 430.964 283.419 433.255 287C434.245 287.495 434.245 287.495 435.255 288C431.445 307.662 411.2 327.55 397.327 340.936C394.703 343.477 392.496 345.988 390.443 349C386.537 353.616 380.388 354.148 374.762 355.406C369.657 356.616 364.618 358.079 359.568 359.5C358.536 359.785 357.503 360.07 356.44 360.363C350.084 362.134 343.855 364.118 337.643 366.346C335.255 367 335.255 367 333.255 366C333.812 365.406 334.369 364.811 334.943 364.199C344.81 353.482 353.442 341.649 359.962 328.578C364.071 320.535 364.071 320.535 367.74 318.879C370.263 318.397 372.694 318.156 375.255 318C378.969 316.992 378.969 316.992 381.38 314.25C381.814 313.136 381.814 313.136 382.255 312C384.5 306.634 387.505 303.477 391.755 299.688C392.375 299.124 392.994 298.561 393.632 297.981C399.016 293.123 404.571 288.502 410.255 284C411.141 283.259 412.027 282.518 412.939 281.754C415.255 280 415.255 280 417.255 280C417.585 279.01 417.915 278.02 418.255 277C420.916 275.006 423.868 273 427.255 273Z" fill="#61C041"/>
<path d="M364.83 434.133C370.543 437.74 374.096 441.523 376.255 448C377.037 454.5 376.086 459.634 372.255 465C368.748 468.608 364.969 471.829 359.892 472.336C357.937 472.355 357.937 472.355 355.943 472.375C354.647 472.403 353.352 472.432 352.017 472.461C346.716 471.811 342.64 469.137 339.255 465C339.255 464.34 339.255 463.68 339.255 463C320.108 465.973 300.958 469.195 282.521 475.301C280.255 476 280.255 476 278.255 476C280.453 478.48 282.229 479.574 285.38 480.563C286.168 480.81 286.956 481.058 287.767 481.313C290.953 482.193 294.159 482.871 297.408 483.473C299.255 484 299.255 484 301.255 486C300.88 488.125 300.88 488.125 300.255 490C293.695 489.42 287.954 487.249 281.818 484.938C280.8 484.56 279.783 484.183 278.734 483.795C276.239 482.869 273.746 481.938 271.255 481C271.255 480.34 271.255 479.68 271.255 479C263.317 481.371 255.433 483.897 247.568 486.5C246.702 486.784 245.836 487.069 244.944 487.362C238.95 489.357 233.093 491.589 227.255 494C226.144 494.459 225.032 494.918 223.887 495.39C199.411 505.536 175.221 515.809 152.134 528.891C151.306 529.359 150.477 529.827 149.623 530.309C148.032 531.211 146.446 532.122 144.864 533.041C143.027 534.087 141.145 535.052 139.255 536C138.595 535.67 137.935 535.34 137.255 535C163.523 518.363 190.224 502.505 218.255 489C218.968 488.656 219.681 488.312 220.415 487.958C229.601 483.54 238.782 479.254 248.419 475.898C254.842 473.759 254.842 473.759 259.005 468.813C259.259 467.919 259.259 467.919 259.517 467.008C262.682 458.401 271.821 451.197 278.255 445C279.245 445.33 280.235 445.66 281.255 446C269.209 462.782 269.209 462.782 262.681 467.836C261.104 468.961 261.104 468.961 260.255 471C261.516 470.538 261.516 470.538 262.802 470.067C271.444 466.935 280.136 464.079 288.943 461.438C289.913 461.145 289.913 461.145 290.904 460.847C300.344 458.015 309.782 455.57 319.47 453.754C323.277 453.052 323.277 453.052 327.013 451.91C330.556 450.916 333.593 450.851 337.255 451C337.173 450.134 337.09 449.268 337.005 448.375C337.394 443.125 339.906 440.246 343.693 436.75C350.017 432.431 357.647 430.972 364.83 434.133Z" fill="#F6FBFB"/>
<path d="M524.255 92C524.915 92 525.575 92 526.255 92C526.452 94.0408 526.637 96.0827 526.818 98.125C526.922 99.262 527.027 100.399 527.134 101.57C527.252 104.898 526.883 107.742 526.255 111C526.255 111.887 526.255 112.774 526.255 113.688C526.255 116 526.255 116 525.255 119C525.037 120.355 525.037 120.355 524.814 121.738C524.203 125.305 523.291 128.702 522.318 132.188C521.07 136.723 519.966 141.231 519.193 145.875C517.059 158.491 511.016 169.731 505.262 181.015C504.385 182.745 503.525 184.485 502.669 186.227C492.178 206.837 476.883 224.142 461.099 240.816C457.356 244.773 453.764 248.832 450.255 253C450.915 253.33 451.575 253.66 452.255 254C450.861 254.112 450.861 254.112 449.439 254.227C440.057 255.205 440.057 255.205 432.49 260.367C429.56 264.242 428.946 267.41 428.63 272.25C428.556 273.328 428.481 274.405 428.404 275.516C428.355 276.335 428.306 277.155 428.255 278C427.925 278 427.595 278 427.255 278C427.255 276.35 427.255 274.7 427.255 273C425.814 273.764 424.378 274.537 422.943 275.312C421.742 275.956 421.742 275.956 420.517 276.613C418.375 277.926 416.98 279.2 415.255 281C413.62 282.346 411.973 283.678 410.318 285C406.068 288.445 402.005 292.018 398.005 295.75C393.957 299.524 389.881 302.951 385.255 306C385.123 305.157 384.99 304.314 384.853 303.445C384.676 302.35 384.5 301.254 384.318 300.125C384.144 299.034 383.97 297.944 383.791 296.82C383.4 294.062 383.4 294.062 382.255 292C383.142 291.434 384.029 290.868 384.943 290.285C387.986 288.255 390.597 285.959 393.255 283.438C397.441 279.564 401.738 275.979 406.255 272.5C411.64 268.348 416.691 263.961 421.677 259.332C424.133 257.111 426.651 255.043 429.255 253C433.839 249.398 438.14 245.547 442.419 241.59C444.577 239.62 446.756 237.705 448.97 235.801C461 225.303 472.62 213.75 482.255 201C483.069 199.98 483.882 198.961 484.72 197.91C503.664 174.087 515.062 146.641 521.255 117C521.462 116.099 521.668 115.198 521.88 114.27C522.331 111.544 522.351 108.948 522.318 106.188C522.309 105.212 522.3 104.236 522.291 103.23C522.279 102.494 522.267 101.758 522.255 101C522.915 101 523.575 101 524.255 101C524.255 98.03 524.255 95.06 524.255 92Z" fill="#C5E468"/>
<path d="M77.4312 409.797C81.9861 412.801 84.548 415.87 86.2554 421C87.1527 427.178 87.0584 432.579 83.7554 438C79.9129 442.947 75.9734 445.321 69.8375 446.441C62.8542 446.95 58.5039 444.411 53.2554 440C50.1206 437.211 48.4814 434.692 47.9195 430.484C47.817 423.309 48.6713 417.849 53.6812 412.469C60.9919 405.97 69.0056 405.096 77.4312 409.797Z" fill="#FAFCFB"/>
<path d="M158.068 340C162.845 344.368 163.29 348.647 163.63 354.812C163.573 360.335 161.78 363.83 158.255 368C153.039 372.962 148.168 373.487 141.146 373.402C135.467 372.612 131.29 369.623 127.81 365.137C125.012 360.255 124.466 355.527 125.255 350C127.025 343.586 130.851 339.672 136.255 336C144.321 333.28 151.291 335.181 158.068 340Z" fill="#FBFDFB"/>
<path d="M404.255 0C404.915 0 405.575 0 406.255 0C406.596 1.91813 406.596 1.91813 406.943 3.875C409.121 13.4294 413.235 20.3029 421.255 26C425.995 28.9245 430.847 29.9783 436.255 31C436.255 31.66 436.255 32.32 436.255 33C435.699 33.098 435.142 33.1959 434.568 33.2969C424.228 35.3229 417.324 39.1198 411.255 48C408.986 52.8391 407.5 57.8143 406.255 63C405.595 63 404.935 63 404.255 63C403.946 61.0819 403.946 61.0819 403.63 59.125C401.872 51.3145 397.64 44.2195 391.314 39.2461C385.798 35.9074 379.558 34.1489 373.255 33C373.255 32.01 373.255 31.02 373.255 30C375.174 29.6597 375.174 29.6597 377.13 29.3125C385.969 27.3081 393.193 23.6726 398.255 16C401.362 10.8769 403.004 5.83973 404.255 0Z" fill="#53E7E4"/>
<path d="M299.255 19C299.915 19 300.575 19 301.255 19C301.33 19.6059 301.405 20.2117 301.482 20.8359C302.923 30.0166 306.849 37.9375 314.263 43.7539C319.503 47.031 325.203 48.9124 331.255 50C331.255 50.66 331.255 51.32 331.255 52C330.361 52.1843 329.466 52.3687 328.544 52.5586C318.728 54.9133 311.814 58.4737 305.826 67.0469C303.263 71.7238 302.174 76.7807 301.255 82C300.595 82 299.935 82 299.255 82C299.048 81.166 298.84 80.332 298.627 79.4727C296.178 70.529 293.029 62.5892 284.755 57.625C283.6 57.0888 282.445 56.5525 281.255 56C280.059 55.4431 278.863 54.8863 277.63 54.3125C274.791 53.2084 272.255 52.4544 269.255 52C269.255 51.34 269.255 50.68 269.255 50C270.182 49.7796 270.182 49.7796 271.127 49.5547C280.504 47.0711 289.01 42.4441 294.255 34C296.409 29.1402 298.033 24.1702 299.255 19Z" fill="#FDDC47"/>
<path d="M364.88 98.6875C365.821 98.6707 366.762 98.654 367.732 98.6367C370.255 99 370.255 99 372.154 100.27C373.255 102 373.255 102 373.197 103.973C371.975 106.604 370.517 107.711 368.193 109.438C367.378 110.045 366.564 110.652 365.724 111.277C363.584 112.77 361.428 114.156 359.193 115.5C351.75 120.063 346.598 125.417 341.896 132.766C340.203 135.071 338.672 136.486 336.255 138C333.41 138.416 331.932 138.397 329.443 136.938C327.466 133.713 327.721 131.744 328.255 128C333.523 115.929 344.99 105.501 356.732 99.7969C359.556 98.9052 361.923 98.6997 364.88 98.6875Z" fill="#F6FBF7"/>
<path d="M355.255 316C355.75 316.99 355.75 316.99 356.255 318C349.255 336.3 336.848 353.024 321.255 365C320.595 365 319.935 365 319.255 365C320.314 361.597 321.264 358.986 323.255 356C323.915 356 324.575 356 325.255 356C326.247 354.034 327.224 352.068 328.15 350.07C330.337 345.435 332.716 341.725 336.255 338C336.915 338 337.575 338 338.255 338C338.493 337.459 338.73 336.917 338.974 336.359C340.599 333.367 342.606 330.888 344.755 328.25C345.549 327.265 346.344 326.28 347.162 325.266C347.853 324.518 348.544 323.77 349.255 323C349.915 323 350.575 323 351.255 323C351.544 322.402 351.833 321.804 352.13 321.188C353.255 319 353.255 319 355.255 316Z" fill="#A2D759"/>
<path d="M77.2554 192C77.9154 192.33 78.5754 192.66 79.2554 193C78.7416 197.368 77.9458 200.962 76.2554 205C70.4546 220.928 69.8321 237.079 70.3213 253.834C70.2554 256 70.2554 256 69.2554 259C69.0336 260.892 68.8493 262.789 68.6929 264.688C68.5672 266.178 68.5672 266.178 68.439 267.699C68.3784 268.458 68.3178 269.218 68.2554 270C65.6415 266.079 65.9858 262.757 66.0249 258.211C66.0254 257.352 66.0259 256.493 66.0263 255.608C66.0293 253.794 66.0372 251.98 66.0496 250.166C66.0679 247.379 66.0701 244.592 66.0699 241.805C66.0748 240.044 66.0806 238.284 66.0874 236.523C66.0886 235.685 66.0897 234.846 66.0908 233.983C66.1394 228.116 66.1394 228.116 67.2554 227C67.552 225.381 67.8428 223.76 68.1055 222.135C72.1862 197.069 72.1862 197.069 77.2554 192Z" fill="#D5E956"/>
<path d="M137.755 288.5C141.324 289.01 142.787 289.437 145.255 292C146.463 295.623 146.656 298.196 146.255 302C143.537 305.213 141.848 305.906 137.693 306.562C134.255 306 134.255 306 131.818 303.938C129.857 300.25 129.666 298.126 130.255 294C132.349 290.063 133.3 289.137 137.755 288.5Z" fill="#F8FBF4"/>
<path d="M59.2554 365C62.3251 367.286 63.9442 368.755 64.8804 372.5C63.9926 376.051 61.9585 377.627 59.2554 380C58.9254 380.33 58.5954 380.66 58.2554 381C54.1164 380.844 51.9134 380.576 48.7554 377.813C47.2554 375 47.2554 375 47.2554 371.938C49.4146 365.595 52.6524 363.957 59.2554 365Z" fill="#F2F9F3"/>
<path d="M483.255 159C485.693 160.063 485.693 160.063 487.255 162C487.818 165.375 487.818 165.375 487.255 169C484.785 172.415 483.344 173.778 479.193 174.625C476.255 174 476.255 174 473.818 171.938C471.779 168.105 472.107 166.134 473.255 162C475.587 157.984 478.988 158.551 483.255 159Z" fill="#FAFCF2"/>
<path d="M337.255 489C339.193 490 339.193 490 340.255 492C341.007 498.767 341.007 498.767 338.693 502.563C336.255 504 336.255 504 332.693 504C329.255 503 329.255 503 327.318 501.313C325.917 498.264 325.771 496.321 326.255 493C329.202 488.521 332.12 488.346 337.255 489Z" fill="#EFF9FA"/>
<path d="M279.919 477.852C283.769 480.331 287.084 481.194 291.505 482.125C299.007 483.752 299.007 483.752 301.255 486C300.88 488.125 300.88 488.125 300.255 490C293.695 489.42 287.954 487.249 281.818 484.938C280.8 484.56 279.783 484.183 278.734 483.795C276.239 482.869 273.746 481.938 271.255 481C271.585 479.68 271.915 478.36 272.255 477C275.767 475.761 276.787 475.674 279.919 477.852Z" fill="#E5F2F3"/>
<path d="M538.693 339.688C542.255 340 542.255 340 544.255 341.062C545.889 344.228 545.108 346.65 544.255 350C540.805 352.3 539.31 352.431 535.255 352C532.806 348.327 532.94 346.336 533.255 342C535.255 340 535.255 340 538.693 339.688Z" fill="#EDFAF8"/>
<path d="M278.255 445C279.245 445.33 280.235 445.66 281.255 446C269.145 462.871 269.145 462.871 262.584 467.738C262.145 468.155 261.707 468.571 261.255 469C261.255 469.99 261.255 470.98 261.255 472C259.935 472.33 258.615 472.66 257.255 473C260.66 461.396 269.719 453.113 278.255 445Z" fill="#E3F2F1"/>
<path d="M34.2554 211C34.9154 211.66 35.5754 212.32 36.2554 213C35.9402 213.48 35.6249 213.959 35.3001 214.453C32.1892 219.291 29.6154 224.17 27.3179 229.438C26.9787 230.205 26.6396 230.973 26.2901 231.764C23.6081 237.942 21.287 244.217 19.158 250.605C18.1065 253.741 17.104 256.227 15.2554 259C14.6512 261.381 14.1164 263.78 13.6304 266.188C13.37 267.46 13.1097 268.732 12.8414 270.043C12.648 271.019 12.4547 271.995 12.2554 273C11.5954 273 10.9354 273 10.2554 273C10.7471 265.737 12.5071 259.706 15.1304 252.938C15.5225 251.909 15.9145 250.881 16.3184 249.821C21.4297 236.651 26.8309 223.057 34.2554 211Z" fill="#B9DE46"/>
<path d="M67.2554 227C67.5854 227 67.9154 227 68.2554 227C69.6413 234.226 70.4496 241.276 70.4429 248.625C70.4436 249.311 70.4442 249.998 70.4449 250.705C70.4116 253.738 70.2216 256.102 69.2554 259C69.0336 260.892 68.8493 262.789 68.6929 264.688C68.5672 266.178 68.5672 266.178 68.439 267.699C68.3784 268.458 68.3178 269.218 68.2554 270C65.6415 266.079 65.9858 262.757 66.0249 258.211C66.0254 257.352 66.0259 256.493 66.0263 255.608C66.0293 253.794 66.0372 251.98 66.0496 250.166C66.0679 247.379 66.0701 244.592 66.0699 241.805C66.0748 240.044 66.0806 238.284 66.0874 236.523C66.0886 235.685 66.0897 234.846 66.0908 233.983C66.1394 228.116 66.1394 228.116 67.2554 227Z" fill="#C3E455"/>
<path d="M288.193 426.688C291.255 427 291.255 427 293.13 428.188C294.689 430.698 294.752 432.093 294.255 435C292.63 437.375 292.63 437.375 290.255 439C287.13 438.938 287.13 438.938 284.255 438C282.255 435 282.255 435 282.505 431.938C283.501 428.039 284.145 427.118 288.193 426.688Z" fill="#EBF6F7"/>
<path d="M453.193 49.6875C456.255 50 456.255 50 458.13 51.1875C459.662 53.6551 459.684 55.1452 459.255 58C458.13 59.8125 458.13 59.8125 456.255 61C453.193 61.3125 453.193 61.3125 450.255 61C448.255 59 448.255 59 448.005 55.5C448.318 51.1191 448.783 50.1566 453.193 49.6875Z" fill="#55E5E2"/>
<path d="M524.255 92C524.915 92 525.575 92 526.255 92C526.452 94.0408 526.637 96.0827 526.818 98.125C526.922 99.262 527.027 100.399 527.134 101.57C527.252 104.898 526.883 107.742 526.255 111C526.255 111.887 526.255 112.774 526.255 113.688C526.255 116 526.255 116 525.255 119C524.903 120.997 524.567 122.997 524.255 125C523.595 124.67 522.935 124.34 522.255 124C521.595 124.66 520.935 125.32 520.255 126C520.398 124.604 520.545 123.208 520.693 121.812C520.774 121.035 520.855 120.258 520.939 119.457C521.255 117 521.255 117 521.787 114.562C522.307 111.718 522.353 109.077 522.318 106.188C522.309 105.212 522.3 104.236 522.291 103.23C522.279 102.494 522.267 101.758 522.255 101C522.915 101 523.575 101 524.255 101C524.255 98.03 524.255 95.06 524.255 92Z" fill="#D5E946"/>
<path d="M449.255 123C449.585 123 449.915 123 450.255 123C451.908 139.644 451.156 154.175 445.255 170C444.973 170.767 444.691 171.534 444.4 172.324C443.695 174.22 442.977 176.111 442.255 178C441.595 178 440.935 178 440.255 178C440.414 177.487 440.573 176.974 440.736 176.445C441.256 174.739 441.762 173.029 442.259 171.316C442.969 168.955 443.733 166.61 444.533 164.277C448.981 150.705 449.175 137.194 449.255 123Z" fill="#D6E652"/>
<path d="M174.255 512C174.915 512.33 175.575 512.66 176.255 513C175.595 513.66 174.935 514.32 174.255 515C174.75 515.99 174.75 515.99 175.255 517C174.298 517.473 173.34 517.946 172.353 518.434C164.142 522.506 155.996 526.676 147.93 531.029C144.432 532.904 140.988 534.623 137.255 536C140.293 532.663 143.363 530.649 147.318 528.5C154.434 524.581 161.249 520.24 168.033 515.773C169.203 515.017 169.203 515.017 170.396 514.246C171.092 513.789 171.789 513.332 172.506 512.861C173.084 512.577 173.661 512.293 174.255 512Z" fill="#CFDFE7"/>
<path d="M501.255 327C506.535 328.65 511.815 330.3 517.255 332C516.925 333.65 516.595 335.3 516.255 337C511.657 336.461 508.388 335.234 504.38 332.938C503.414 332.39 502.447 331.842 501.451 331.277C500.726 330.856 500.002 330.434 499.255 330C499.915 329.67 500.575 329.34 501.255 329C501.255 328.34 501.255 327.68 501.255 327Z" fill="#E5F7F4"/>
<path d="M539.255 149C540.919 150.663 540.616 152.783 540.818 155.062C540.902 155.982 540.985 156.901 541.072 157.848C541.132 158.558 541.193 159.268 541.255 160C539.605 160.33 537.955 160.66 536.255 161C533.43 157.203 531.689 154.814 532.255 150C534.74 148.758 536.507 148.859 539.255 149Z" fill="#FAFCF1"/>
<path d="M485.255 136C488.553 136.33 489.878 136.623 492.255 139C492.505 142 492.505 142 492.255 145C491.595 145.66 490.935 146.32 490.255 147C487.755 146.812 487.755 146.812 485.255 146C483.106 142.776 482.873 141.733 483.255 138C483.915 137.34 484.575 136.68 485.255 136Z" fill="#FAFCE9"/>
<path d="M552.255 294C552.915 294 553.575 294 554.255 294C556.663 298.513 557.395 301.488 557.13 306.625C556.948 311.033 556.948 311.033 559.38 314.688C560.329 315.451 561.278 316.214 562.255 317C563.393 318.412 564.496 319.851 565.568 321.312C566.08 322.01 566.591 322.707 567.119 323.426C567.494 323.945 567.869 324.465 568.255 325C567.925 325.66 567.595 326.32 567.255 327C566.713 326.301 566.17 325.603 565.611 324.883C564.895 323.973 564.18 323.063 563.443 322.125C562.735 321.22 562.028 320.315 561.298 319.383C559.3 316.834 559.3 316.834 556.255 315C553.113 315.315 553.113 315.315 550.255 316C550.915 315.216 551.575 314.433 552.255 313.625C555.116 309.344 554.818 304.969 554.255 300C553.384 296.539 553.384 296.539 552.255 294Z" fill="#3DC36A"/>
<path d="M517.255 184C517.193 186.25 517.193 186.25 516.255 189C512.663 191.959 509.931 193 505.255 193C505.591 189.982 506.121 188.191 507.88 185.687C511.088 183.408 513.413 183.704 517.255 184Z" fill="#F7FCE8"/>
<path d="M111.255 328C112.905 328.33 114.555 328.66 116.255 329C116.585 329.99 116.915 330.98 117.255 332C115.986 334.041 114.642 336.036 113.255 338C112.226 339.985 111.217 341.981 110.255 344C109.925 344 109.595 344 109.255 344C109.201 341.896 109.163 339.792 109.13 337.688C109.107 336.516 109.084 335.344 109.06 334.137C109.255 331 109.255 331 111.255 328Z" fill="#EDF6E7"/>
<path d="M522.255 119C522.585 119 522.915 119 523.255 119C523.451 124.948 522.828 130.161 521.443 135.938C521.277 136.704 521.112 137.47 520.941 138.26C520.423 140.465 520.423 140.465 519.255 144C518.265 144.33 517.275 144.66 516.255 145C516.513 142.623 516.786 140.249 517.068 137.875C517.138 137.21 517.208 136.545 517.281 135.859C517.835 131.337 519.082 127.977 521.255 124C521.955 121.264 521.955 121.264 522.255 119Z" fill="#E0EF8E"/>
<path d="M365.255 320C367.235 320 369.215 320 371.255 320C369.896 323.067 368.375 325.077 365.943 327.375C362.796 330.423 360.001 333.589 357.255 337C357.255 332.905 359.225 330.232 361.255 326.812C361.637 326.158 362.019 325.504 362.412 324.83C363.354 323.217 364.304 321.608 365.255 320Z" fill="#B0E172"/>
<path d="M118.255 146C118.585 146 118.915 146 119.255 146C118.925 156.23 118.595 166.46 118.255 177C117.595 176.67 116.935 176.34 116.255 176C116.197 171.938 116.162 167.875 116.13 163.812C116.114 162.662 116.097 161.512 116.08 160.326C116.073 159.214 116.067 158.103 116.06 156.957C116.05 155.936 116.039 154.915 116.028 153.863C116.265 150.874 116.999 148.706 118.255 146Z" fill="#DCED53"/>
<path d="M401.255 423C405.811 423.556 405.811 423.556 407.255 425C407.443 427.438 407.443 427.438 407.255 430C406.595 430.66 405.935 431.32 405.255 432C400.7 431.444 400.7 431.444 399.255 430C399.068 427.562 399.068 427.562 399.255 425C399.915 424.34 400.575 423.68 401.255 423Z" fill="#E5F7F7"/>
<path d="M9.25543 273C9.58543 273 9.91543 273 10.2554 273C10.3991 277.902 9.939 282.169 8.81793 286.938C7.91329 290.888 7.10243 294.711 6.75543 298.75C6.59043 299.822 6.42543 300.895 6.25543 302C5.26543 302.66 4.27543 303.32 3.25543 304C3.88733 296.976 5.19762 290.295 6.81793 283.438C7.0519 282.429 7.28586 281.42 7.52692 280.381C8.09852 277.919 8.67477 275.459 9.25543 273Z" fill="#9CD348"/>
<path d="M209.255 503C205.738 504.633 202.216 506.255 198.693 507.875C197.702 508.335 196.712 508.795 195.691 509.27C190.599 511.604 185.702 513.671 180.255 515C183.995 510.78 189.15 509.037 194.193 506.75C195.195 506.278 196.197 505.806 197.23 505.32C198.679 504.659 198.679 504.659 200.158 503.984C201.48 503.377 201.48 503.377 202.829 502.757C205.473 501.932 206.696 502.05 209.255 503Z" fill="#287A97"/>
<path d="M77.2554 192C77.9154 192.33 78.5754 192.66 79.2554 193C78.7453 197.336 78.038 201.015 76.2554 205C75.8842 205.928 75.5129 206.856 75.1304 207.812C74.8417 208.534 74.5529 209.256 74.2554 210C73.5954 209.34 72.9354 208.68 72.2554 208C72.6168 202.259 74.3824 196.963 77.2554 192Z" fill="#D5E940"/>
<path d="M454.693 196.812C457.255 197 457.255 197 459.255 199C458.88 201.625 458.88 201.625 458.255 204C455.88 204.625 455.88 204.625 453.255 205C451.255 203 451.255 203 451.068 200.438C451.32 197.16 451.416 197.065 454.693 196.812Z" fill="#F7FBE9"/>
<path d="M153.255 476C153.915 476.33 154.575 476.66 155.255 477C135.677 495.139 135.677 495.139 129.255 498C135.975 489.36 144.733 482.777 153.255 476Z" fill="#1D6C8C"/>
<path d="M88.8179 451.938C90.0245 451.968 90.0245 451.968 91.2554 452C91.8804 454.312 91.8804 454.312 92.2554 457C91.2654 458.485 91.2654 458.485 90.2554 460C88.9354 459.67 87.6154 459.34 86.2554 459C85.8741 457.009 85.5422 455.007 85.2554 453C86.2554 452 86.2554 452 88.8179 451.938Z" fill="#E6F2EC"/>
<path d="M482.255 240C483.931 240.286 485.599 240.618 487.255 241C487.88 243.375 487.88 243.375 488.255 246C487.595 246.66 486.935 247.32 486.255 248C482.72 247.464 482.72 247.464 481.255 246C481.13 243.5 481.13 243.5 481.255 241C481.585 240.67 481.915 240.34 482.255 240Z" fill="#F7FAF0"/>
<path d="M525.255 398C525.915 398.33 526.575 398.66 527.255 399C514.716 413.734 514.716 413.734 507.255 419C506.595 419 505.935 419 505.255 419C505.255 418.34 505.255 417.68 505.255 417C506.873 415.567 508.552 414.204 510.255 412.875C518.833 406.407 518.833 406.407 525.255 398Z" fill="#27DACE"/>
<path d="M73.2554 370C76.6304 370.75 76.6304 370.75 80.2554 372C80.5442 372.67 80.8329 373.341 81.1304 374.031C81.5017 374.681 81.8729 375.331 82.2554 376C84.9033 376.704 84.9033 376.704 87.8804 376.75C89.3848 376.835 89.3848 376.835 90.9195 376.922C91.6904 376.948 92.4612 376.973 93.2554 377C93.2554 377.33 93.2554 377.66 93.2554 378C85.9037 378.553 80.7438 377.511 74.2554 374C74.2554 373.34 74.2554 372.68 74.2554 372C73.5954 371.67 72.9354 371.34 72.2554 371C72.5854 370.67 72.9154 370.34 73.2554 370Z" fill="#42AD3E"/>
<path d="M118.818 312.938C120.024 312.968 120.024 312.968 121.255 313C121.943 314.812 121.943 314.812 122.255 317C121.13 318.812 121.13 318.812 119.255 320C116.568 319.688 116.568 319.688 114.255 319C115.328 313.023 115.328 313.023 118.818 312.938Z" fill="#EFF8EC"/>
<path d="M348.318 62.0625C350.794 63.2606 351.282 64.4843 352.255 67C350.255 69 350.255 69 347.63 69.125C346.847 69.0837 346.063 69.0425 345.255 69C344.595 67.68 343.935 66.36 343.255 65C345.67 61.9822 345.67 61.9822 348.318 62.0625Z" fill="#E8E43F"/>
<path d="M568.255 327C570.255 329 570.255 329 570.255 332C570.915 332.33 571.575 332.66 572.255 333C572.915 333.66 573.575 334.32 574.255 335C575.245 334.67 576.235 334.34 577.255 334C576.595 336.97 575.935 339.94 575.255 343C574.595 341.68 573.935 340.36 573.255 339C571.935 339.99 570.615 340.98 569.255 342C569.462 340.948 569.668 339.896 569.88 338.812C570.263 334.926 569.874 333.428 568.255 330C568.255 329.01 568.255 328.02 568.255 327Z" fill="#27BE69"/>
<path d="M34.2554 211C34.9154 211.66 35.5754 212.32 36.2554 213C35.5542 214.031 34.8529 215.062 34.1304 216.125C30.3986 222.049 27.8959 228.539 25.2554 235C24.5954 235 23.9354 235 23.2554 235C25.6884 226.333 29.9133 218.828 34.2554 211Z" fill="#CFE74D"/>
<path d="M287.318 113.938C288.772 113.968 288.772 113.968 290.255 114C290.88 115.875 290.88 115.875 291.255 118C290.595 118.66 289.935 119.32 289.255 120C286.63 119.625 286.63 119.625 284.255 119C283.693 117.062 283.693 117.062 283.255 115C284.255 114 284.255 114 287.318 113.938Z" fill="#D0E759"/>
<path d="M184.255 86C184.585 86.66 184.915 87.32 185.255 88C184.142 88.1031 183.028 88.2062 181.88 88.3125C180.684 88.5394 179.488 88.7662 178.255 89C175.959 92.4445 175.715 94.9381 175.255 99C174.595 98.67 173.935 98.34 173.255 98C172.831 93.6677 172.785 91.6504 175.38 88.0625C178.687 85.6904 180.279 85.5377 184.255 86Z" fill="#FDC336"/>
<path d="M216.255 82C218.13 83.5625 218.13 83.5625 219.255 85C218.265 85.495 218.265 85.495 217.255 86C217.255 85.34 217.255 84.68 217.255 84C216.265 84.33 215.275 84.66 214.255 85C213.451 84.9175 212.647 84.835 211.818 84.75C208.982 84.7401 208.982 84.7401 206.943 87.5C206.108 88.7375 206.108 88.7375 205.255 90C205.736 84.5967 205.736 84.5967 207.943 82.0625C211.128 80.5989 212.934 81.0107 216.255 82Z" fill="#FDC02F"/>
<path d="M7.25544 394C9.59243 397.505 10.7073 401.081 11.9429 405.062C12.2997 406.162 12.2997 406.162 12.6636 407.283C14.3774 412.756 14.3774 412.756 13.2554 415C9.63516 408.242 6.76348 401.871 7.25544 394Z" fill="#2FA64D"/>
<path d="M267.255 463C267.915 463.33 268.575 463.66 269.255 464C269.255 465.32 269.255 466.64 269.255 468C264.8 469.485 264.8 469.485 260.255 471C262.26 466.992 263.746 465.586 267.255 463Z" fill="#0F8092"/>
<path d="M443.255 415C448.865 415.66 454.475 416.32 460.255 417C455.933 419.161 453.992 419.408 449.255 419C445.818 417.5 445.818 417.5 443.255 416C443.255 415.67 443.255 415.34 443.255 415Z" fill="#60D9D9"/>
<path d="M95.2554 407C96.2454 407.33 97.2354 407.66 98.2554 408C98.2554 411.3 98.2554 414.6 98.2554 418C95.2554 415 95.2554 415 94.9625 412.957C95.0601 410.971 95.1578 408.986 95.2554 407Z" fill="#90D68F"/>
<path d="M68.2554 385C71.1227 385.573 72.1169 385.861 74.2554 388C74.3804 390.625 74.3804 390.625 74.2554 393C69.5679 389.387 69.5679 389.387 68.2554 388C68.2554 387.01 68.2554 386.02 68.2554 385Z" fill="#EBF5EB"/>
<path d="M572.255 338C572.915 338.33 573.575 338.66 574.255 339C575.37 342.647 575.198 345.333 574.255 349C573.595 348.67 572.935 348.34 572.255 348C572.255 346.02 572.255 344.04 572.255 342C570.935 342.99 569.615 343.98 568.255 345C569.459 342.506 570.71 340.319 572.255 338Z" fill="#3AD8BD"/>
<path d="M522.255 119C522.585 119 522.915 119 523.255 119C523.332 123.516 523.358 127.591 522.255 132C521.595 131.67 520.935 131.34 520.255 131C519.595 131.66 518.935 132.32 518.255 133C518.753 129.265 519.13 127.188 521.255 124C521.64 122.345 521.983 120.678 522.255 119Z" fill="#D8ED64"/>
<path d="M481.255 155C482.245 155.33 483.235 155.66 484.255 156C483.595 156 482.935 156 482.255 156C482.255 156.99 482.255 157.98 482.255 159C480.616 159.402 480.616 159.402 478.943 159.812C475.639 160.877 474.306 161.347 472.255 164C472.829 161.133 473.117 160.139 475.255 158C476.575 158 477.895 158 479.255 158C479.255 157.34 479.255 156.68 479.255 156C479.915 155.67 480.575 155.34 481.255 155Z" fill="#C1E137"/>
<path d="M159.255 133C159.915 133 160.575 133 161.255 133C161.585 136.96 161.915 140.92 162.255 145C161.595 144.67 160.935 144.34 160.255 144C159.858 142.012 159.531 140.009 159.255 138C159.049 137.237 158.843 136.474 158.63 135.688C158.507 135.131 158.383 134.574 158.255 134C158.585 133.67 158.915 133.34 159.255 133Z" fill="#FDAE2B"/>
<path d="M284.255 476C283.265 477.485 283.265 477.485 282.255 479C283.575 479.33 284.895 479.66 286.255 480C283.945 479.67 281.635 479.34 279.255 479C278.925 478.01 278.595 477.02 278.255 476C280.746 474.755 281.666 475.223 284.255 476Z" fill="#1E8F9E"/>
<path d="M204.255 358C204.915 358.33 205.575 358.66 206.255 359C204.275 363.455 204.275 363.455 202.255 368C201.925 368 201.595 368 201.255 368C200.886 361.477 200.886 361.477 202.755 359.062C203.25 358.712 203.745 358.361 204.255 358Z" fill="#F75E40"/>
<path d="M121.255 133C121.585 133 121.915 133 122.255 133C122.468 137.468 121.847 140.823 120.255 145C119.595 145 118.935 145 118.255 145C119.113 136.429 119.113 136.429 121.255 133Z" fill="#DEF065"/>
<path d="M416.255 338C416.585 338.66 416.915 339.32 417.255 340C418.575 340.33 419.895 340.66 421.255 341C416.8 342.485 416.8 342.485 412.255 344C414.255 340 414.255 340 416.255 338Z" fill="#68C45C"/>
<path d="M119.255 118C119.915 118.33 120.575 118.66 121.255 119C119.995 120.033 118.721 121.051 117.443 122.062C116.381 122.915 116.381 122.915 115.298 123.785C114.624 124.186 113.95 124.587 113.255 125C112.265 124.67 111.275 124.34 110.255 124C113.225 122.02 116.195 120.04 119.255 118Z" fill="#DFED4C"/>
<path d="M323.255 356C324.255 358 324.255 358 323.505 361.062C323.093 362.032 322.68 363.001 322.255 364C321.265 364.33 320.275 364.66 319.255 365C320.314 361.597 321.264 358.986 323.255 356Z" fill="#80CD4E"/>
<path d="M367.255 321C369.443 321.312 369.443 321.312 371.255 322C368.285 324.475 368.285 324.475 365.255 327C364.925 326.01 364.595 325.02 364.255 324C365.505 322.438 365.505 322.438 367.255 321Z" fill="#9ADA56"/>
<path d="M69.2554 215C71.3636 219.216 71.4324 221.398 71.2554 226C70.2654 225.34 69.2754 224.68 68.2554 224C68.5854 221.03 68.9154 218.06 69.2554 215Z" fill="#D1E745"/>
<path d="M69.2554 269C72.2554 273 72.2554 273 72.0679 275.125C71.2554 277 71.2554 277 69.2554 279C69.2554 275.7 69.2554 272.4 69.2554 269Z" fill="#F3F9E9"/>
<path d="M34.2554 211C34.9154 211.66 35.5754 212.32 36.2554 213C34.2754 215.97 32.2954 218.94 30.2554 222C29.9254 221.34 29.5954 220.68 29.2554 220C30.2515 217.836 30.2515 217.836 31.6929 215.375C32.166 214.558 32.6391 213.74 33.1265 212.898C33.4991 212.272 33.8716 211.645 34.2554 211Z" fill="#DAEC5D"/>
<path d="M517.255 134C517.585 134 517.915 134 518.255 134C518.585 137.3 518.915 140.6 519.255 144C518.265 144.33 517.275 144.66 516.255 145C516.585 141.37 516.915 137.74 517.255 134Z" fill="#DCEC7D"/>
<path d="M461.255 84C461.585 84.66 461.915 85.32 462.255 86C461.595 85.67 460.935 85.34 460.255 85C460.585 84.67 460.915 84.34 461.255 84ZM458.255 86C458.915 86.33 459.575 86.66 460.255 87C456.79 89.97 456.79 89.97 453.255 93C453.255 92.01 453.255 91.02 453.255 90C455.755 87.8125 455.755 87.8125 458.255 86Z" fill="#E0EB44"/>
<path d="M361.255 329C361.915 329.33 362.575 329.66 363.255 330C361.275 332.31 359.295 334.62 357.255 337C357.255 333.871 357.68 332.626 359.255 330C359.915 329.67 360.575 329.34 361.255 329Z" fill="#9ED969"/>
<path d="M232.255 254C232.255 256.64 232.255 259.28 232.255 262C231.595 261.67 230.935 261.34 230.255 261C229.63 257.938 229.63 257.938 229.255 255C231.255 254 231.255 254 232.255 254Z" fill="#FD6B2C"/>
<path d="M326.255 110C326.585 110.66 326.915 111.32 327.255 112C325.88 114 325.88 114 324.255 116C323.595 116 322.935 116 322.255 116C322.255 116.66 322.255 117.32 322.255 118C321.595 117.67 320.935 117.34 320.255 117C322.235 114.69 324.215 112.38 326.255 110Z" fill="#25A84F"/>
</svg>
