<?xml version="1.0" encoding="UTF-8"?>
<svg version="1.1" xmlns="http://www.w3.org/2000/svg" width="1024" height="1024">
<path d="M0 0 C337.92 0 675.84 0 1024 0 C1024 337.92 1024 675.84 1024 1024 C686.08 1024 348.16 1024 0 1024 C0 686.08 0 348.16 0 0 Z " fill="#FDFDFD" transform="translate(0,0)"/>
<path d="M0 0 C0.9502002 0.19706543 1.90040039 0.39413086 2.87939453 0.59716797 C14.69086371 3.06630576 14.69086371 3.06630576 19.6953125 5.08984375 C22.16370768 6.18512422 22.16370768 6.18512422 25.6875 6.375 C30.00831155 6.8233861 33.61410036 8.32187419 37.58984375 10.01171875 C40.67969899 11.27870963 43.77157422 12.15780197 47 13 C47 13.66 47 14.32 47 15 C48.175625 15.20625 49.35125 15.4125 50.5625 15.625 C60.65559707 17.88203903 70.23362208 22.32909498 79.1796875 27.4296875 C82.46079351 29.2565637 85.81665297 30.91029888 89.1875 32.5625 C97.93184422 36.89905003 105.48180979 42.01792507 113.16796875 48.01171875 C115.762615 49.83333936 118.04709389 50.9139925 121 52 C122.02104551 52.97850195 123.0206121 53.97980427 124 55 C125.64605826 56.03357147 127.30963442 57.04060332 129 58 C120.3932178 77.15430941 89.49114216 89.93578262 71 97 C54.28890551 103.04037243 37.43767765 107.65163519 20 111 C18.58569304 111.28524894 17.17161103 111.57161668 15.7578125 111.859375 C-1.71083734 115.3038975 -19.27947703 117.36597361 -37.01904297 118.76171875 C-40.07762726 119.00620509 -43.1345077 119.26655855 -46.19140625 119.53125 C-48.25258207 119.70859037 -50.31377992 119.88567485 -52.375 120.0625 C-53.39174805 120.14983398 -54.40849609 120.23716797 -55.45605469 120.32714844 C-59.70301105 120.68232832 -63.93937698 121.02588287 -68.19921875 121.171875 C-77.84302694 121.52291352 -87.23494186 122.84130115 -96.75 124.375 C-97.40799591 124.48018951 -98.06599182 124.58537903 -98.743927 124.6937561 C-112.09947439 126.84697572 -125.12676529 129.94171878 -138.1875 133.4375 C-139.28513672 133.72431641 -140.38277344 134.01113281 -141.51367188 134.30664062 C-148.23660687 136.10449519 -154.59737783 138.28449099 -161 141 C-162.46400589 141.58673037 -163.92883577 142.17140944 -165.39453125 142.75390625 C-194.43766805 154.54482567 -219.20169725 170.52289269 -242 192 C-243.24910156 193.15048828 -243.24910156 193.15048828 -244.5234375 194.32421875 C-272.84924869 221.32082521 -289.92187197 258.54312148 -299 296 C-299.25088379 297.01827881 -299.25088379 297.01827881 -299.50683594 298.05712891 C-303.33993405 313.83053374 -304.38240555 329.40627484 -304.3125 345.5625 C-304.30976578 346.87802353 -304.30976578 346.87802353 -304.30697632 348.22012329 C-304.25888497 361.99445657 -303.69563989 375.45342335 -301 389 C-300.82839355 389.86995605 -300.65678711 390.73991211 -300.47998047 391.63623047 C-295.17983948 417.5590827 -286.21111181 445.7281384 -270 467 C-269.34 467 -268.68 467 -268 467 C-266.6687369 465.6019008 -266.6687369 465.6019008 -265.34765625 463.73828125 C-264.82373291 463.03767578 -264.29980957 462.33707031 -263.76000977 461.61523438 C-263.19983154 460.85533203 -262.63965332 460.09542969 -262.0625 459.3125 C-257.88203877 453.7284441 -253.6305465 448.27205087 -249.0625 443 C-234.96570879 426.54334957 -226.58404917 406.38632794 -223.30859375 385.00488281 C-223.01881369 383.12222944 -222.69796687 381.24443245 -222.375 379.3671875 C-220.11207185 364.06099295 -220.8224989 348.4330383 -221 333 C-222.10013428 333.02054443 -223.20026855 333.04108887 -224.33374023 333.06225586 C-230.01498859 332.96578397 -233.65170598 330.51015497 -238 327 C-244.03523695 319.9361703 -246.50091719 313.23893203 -246.30859375 303.99609375 C-245.44294753 295.59165511 -239.66049774 288.98323329 -233.4140625 283.64453125 C-227.54133094 279.67685651 -220.16439543 279.47793293 -213.3203125 280.3359375 C-205.49774288 282.21237943 -200.01559214 286.87117525 -195.328125 293.2890625 C-191.4944775 299.90102757 -190.825782 306.49439856 -192 314 C-194.9662197 322.22066602 -200.76435703 327.4566893 -208 332 C-207.50328054 338.64035491 -206.7182133 345.13960349 -205.5 351.6875 C-203.94149398 362.01260241 -203.87585061 372.27340532 -203.9375 382.6875 C-203.94252856 384.17903494 -203.94708905 385.67057154 -203.95117188 387.16210938 C-203.96206196 390.77477462 -203.97925064 394.38737632 -204 398 C-199.692747 394.24686928 -195.40427777 390.47991768 -191.1875 386.625 C-187.71148417 383.45333578 -184.12832732 380.58446296 -180.375 377.75 C-166.23437681 366.28570945 -160.39366049 346.5664202 -156.375 329.4375 C-156.1584375 328.54353516 -155.941875 327.64957031 -155.71875 326.72851562 C-155.50992188 325.84744141 -155.30109375 324.96636719 -155.0859375 324.05859375 C-154.9007959 323.27798584 -154.7156543 322.49737793 -154.52490234 321.69311523 C-153.16137605 314.69727405 -152.8309812 307.88818758 -152.796875 300.78125 C-152.79008728 299.81284683 -152.78329956 298.84444366 -152.77630615 297.84669495 C-152.75940753 294.73109703 -152.75311537 291.61564071 -152.75 288.5 C-152.74766357 287.44585907 -152.74532715 286.39171814 -152.74291992 285.30563354 C-152.73006027 269.98993453 -153.24450729 255.10600465 -156 240 C-156.89187012 239.8302063 -156.89187012 239.8302063 -157.80175781 239.65698242 C-166.54693054 237.87611815 -172.97460299 234.36053962 -178.02734375 226.80859375 C-181.80467179 219.78488739 -181.9023375 212.77767009 -181 205 C-178.26563186 197.54617083 -173.03554084 191.92997177 -166.234375 187.97265625 C-159.31847571 184.81981981 -151.05975613 184.58993203 -143.9296875 187.06640625 C-137.68150971 190.19049514 -133.50497036 193.9670545 -130 200 C-129.62617188 200.58910156 -129.25234375 201.17820312 -128.8671875 201.78515625 C-126.63176727 207.49454035 -126.87842393 217.14026106 -129.0625 222.9375 C-132.51818485 228.39971154 -136.57912689 233.39350536 -142 237 C-142.66 237 -143.32 237 -144 237 C-143.80422363 237.84872681 -143.80422363 237.84872681 -143.60449219 238.71459961 C-140.99270264 250.13260253 -138.61653413 261.55972164 -136.75 273.125 C-136.50588379 274.61374634 -136.50588379 274.61374634 -136.25683594 276.13256836 C-133.96053542 290.79890813 -133.73676528 305.50192238 -133.4375 320.3125 C-133.39420739 322.32487686 -133.35059009 324.33724676 -133.30664062 326.34960938 C-133.20068589 331.23300081 -133.09911762 336.1164652 -133 341 C-132.08581299 340.34555908 -131.17162598 339.69111816 -130.22973633 339.0168457 C-124.36756718 334.82315511 -118.5026676 330.63565754 -112.58837891 326.515625 C-76.9598118 301.62230301 -54.61050036 272.67183849 -46 229 C-45.11888651 223.68899061 -44.50157416 218.36010597 -44 213 C-44.90621094 212.731875 -45.81242187 212.46375 -46.74609375 212.1875 C-53.1784977 209.84002005 -57.61396397 205.26459241 -61 199.375 C-64.0639352 192.51762122 -64.30268673 185.41916215 -62.18359375 178.23046875 C-59.04546991 171.1122854 -53.62090368 165.34908816 -46.6640625 161.8125 C-38.94495522 159.45828546 -30.13428172 159.86705669 -22.9375 163.5 C-16.55016304 167.5206005 -12.3354626 172.81715502 -10 180 C-8.99431767 188.46126964 -9.11663435 195.74401006 -14.1484375 202.91015625 C-18.00743549 207.26577635 -22.62001617 210.73915076 -28 213 C-29.32 213 -30.64 213 -32 213 C-31.95359375 213.92554688 -31.9071875 214.85109375 -31.859375 215.8046875 C-31.40933745 229.45698487 -33.64705888 242.58866893 -36 256 C-36.23154785 257.32596191 -36.23154785 257.32596191 -36.46777344 258.67871094 C-38.61815907 270.85447721 -38.61815907 270.85447721 -40 275 C-29.92629467 267.76099632 -19.89758289 260.47848092 -10 253 C-8.49179687 251.87658203 -8.49179687 251.87658203 -6.953125 250.73046875 C-0.52912833 245.94508036 5.78342185 241.05158161 12 236 C12.84949219 235.31421875 13.69898438 234.6284375 14.57421875 233.921875 C32.28109256 219.54958034 48.8577719 204.22211271 65 188.125 C65.54274567 187.58493317 66.08549133 187.04486633 66.64468384 186.48843384 C72.6496058 180.50601541 78.51260084 174.46722801 84 168 C84.98382656 166.88118254 85.96945847 165.76394959 86.95703125 164.6484375 C93.84731346 156.77891009 100.07863701 148.62003728 106 140 C106.66 140.33 107.32 140.66 108 141 C85.1063714 178.06819439 58.51311954 210.46950274 27.82684326 241.34939575 C26.75020179 242.4334329 25.67515676 243.51905839 24.60186768 244.60641479 C18.48404562 250.79704807 12.28754884 256.61474879 5.42944336 262.00146484 C2.90991685 264.07410518 0.64562961 266.28446888 -1.625 268.625 C-5.76489261 272.8846725 -10.24135407 276.46194707 -15 280 C-7.1913777 279.49142313 0.58386193 278.86877618 8.36035156 277.99731445 C22.46770845 276.41867348 36.59047871 275.30040488 50.75 274.3125 C51.68991791 274.24597229 52.62983582 274.17944458 53.59823608 274.11090088 C56.31002135 273.92013513 59.02209795 273.7344101 61.734375 273.55078125 C62.53649918 273.49468185 63.33862335 273.43858246 64.16505432 273.38078308 C69.45440366 273.03288312 74.69908986 272.95346025 80 273 C80.061875 272.01 80.12375 271.02 80.1875 270 C81.22029569 263.16977783 85.11109134 258.4550155 90.3125 254.125 C96.37455524 249.71166294 102.47235135 248.23447641 110 249 C118.20779539 251.14010665 124.65011456 254.14991141 129.53515625 261.22265625 C133.63315843 268.42555145 134.30659552 274.96595938 132.23046875 282.96484375 C129.25661222 291.79162906 125.25812661 296.73070436 117 301 C108.72948118 304.15783446 101.42081233 303.87834742 93.36328125 300.33203125 C87.17069436 296.84166409 84.07003556 292.27209276 81 286 C71.15549066 285.75277428 61.8147796 286.41976451 52.0625 287.8125 C50.72813648 287.99759606 49.39374492 288.18249006 48.05932617 288.3671875 C39.28590147 289.60790669 30.65234893 291.08923212 22 293 C20.59056213 293.26812709 19.18034826 293.53219566 17.76953125 293.79296875 C-11.09279902 299.25482821 -40.23401199 309.91926732 -66 324 C-67.73636719 324.93199219 -67.73636719 324.93199219 -69.5078125 325.8828125 C-78.76267191 330.99679522 -87.39115775 336.87815662 -96 343 C-96.75958008 343.53882813 -97.51916016 344.07765625 -98.30175781 344.6328125 C-107.06024641 350.86042738 -115.70194021 357.16557407 -124 364 C-125.25576016 365.0204552 -126.51234396 366.03989727 -127.76953125 367.05859375 C-130.54982456 369.31150481 -133.32714272 371.56798471 -136.1015625 373.828125 C-138.4245125 375.72023245 -140.75217841 377.60555122 -143.0859375 379.484375 C-149.61688948 384.76153391 -155.84257624 390.29515284 -162 396 C-161.10752563 395.84966309 -161.10752563 395.84966309 -160.19702148 395.69628906 C-145.89221892 393.30469853 -131.56540618 391.24334022 -117.17700195 389.43286133 C-109.97687033 388.52371533 -102.79539737 387.55685733 -95.625 386.4375 C-87.1813341 385.12071968 -78.71331801 384.11271186 -70.2253418 383.12695312 C-62.9893511 382.27349162 -55.80414167 381.23990738 -48.61572266 380.0546875 C-43.69141505 379.24759805 -38.76859037 378.57800858 -33.8125 378 C-27.89824935 377.28864381 -22.07382153 376.3171773 -16.22998047 375.18237305 C-10.81298928 374.13595403 -5.38365937 373.19459095 0.0625 372.3125 C1.24066284 372.11539429 1.24066284 372.11539429 2.44262695 371.91430664 C7.02554045 371.1836119 11.3594003 370.87058088 16 371 C15.9175 369.845 15.835 368.69 15.75 367.5 C15.78537748 360.81365651 18.77840569 356.04903371 23.25 351.25 C29.64640133 345.34042837 35.20352582 343.28544234 43.97265625 343.6171875 C53.01056628 344.7600458 59.74955698 348.96203835 65.5390625 355.82421875 C70.30397952 362.81187639 70.15611606 370.92370351 69 379 C66.10367804 386.36318469 59.9328659 391.6571356 53.265625 395.62890625 C46.49854232 398.47010963 37.87211226 398.35177321 30.9453125 395.93359375 C25.18211708 392.71916712 21.54125281 388.48286931 18 383 C8.86150341 384.29273511 -0.11275696 386.0210182 -9.125 388 C-23.92247545 391.20485027 -38.76574849 394.15913978 -53.625 397.0625 C-54.73157959 397.27912292 -55.83815918 397.49574585 -56.97827148 397.71893311 C-67.31292287 399.74133245 -77.64813419 401.7587865 -88 403.69140625 C-115.16892027 408.78093353 -141.84490055 414.96869861 -168 424 C-168.83595703 424.28166016 -169.67191406 424.56332031 -170.53320312 424.85351562 C-189.14055513 431.14607454 -207.46385422 439.15744099 -223.36621094 450.80566406 C-224.93771821 451.95447063 -226.53489013 453.06791607 -228.1328125 454.1796875 C-242.54796653 464.62073891 -255.10497539 477.98592262 -266 492 C-267.66274437 493.9616647 -269.3296031 495.91984747 -271 497.875 C-276.10604535 503.98798286 -280.57925105 510.38150728 -285 517 C-285.62519531 517.93070313 -286.25039063 518.86140625 -286.89453125 519.8203125 C-288.27012182 521.87564455 -289.63923353 523.93483677 -291 526 C-294.83945182 524.48147523 -296.67491055 522.22197262 -299.1875 519 C-302.1549173 515.26163605 -305.17749661 511.67292916 -308.4375 508.1875 C-313.87644562 502.19336789 -318.43581926 495.66203346 -323 489 C-323.71808838 487.96262695 -323.71808838 487.96262695 -324.45068359 486.90429688 C-332.00853643 475.96030926 -338.79514409 464.7622486 -345 453 C-345.51723633 452.03126953 -345.51723633 452.03126953 -346.04492188 451.04296875 C-383.15595146 381.16138088 -391.80360615 297.16444366 -368.88549805 221.3112793 C-363.87326519 205.42765309 -358.43601675 189.93070029 -351 175 C-350.54898926 174.08702148 -350.09797852 173.17404297 -349.63330078 172.23339844 C-337.96838136 148.79295419 -324.24913936 125.42978803 -306.16015625 106.30078125 C-304.36039424 104.38385571 -302.64850846 102.4323624 -300.9375 100.4375 C-296.16592308 94.96711671 -291.06455383 89.82161903 -285.9375 84.6875 C-285.42733337 84.17632629 -284.91716675 83.66515259 -284.39154053 83.13848877 C-277.22019015 75.97667812 -269.96005227 69.22879117 -261.73828125 63.28076172 C-259.77197848 61.83199426 -257.85489909 60.32926997 -255.9375 58.81640625 C-246.66678247 51.52660223 -237.18079906 44.95215052 -227 39 C-225.97084473 38.39575195 -225.97084473 38.39575195 -224.92089844 37.77929688 C-158.24226906 -1.05246606 -75.97698499 -16.44394056 0 0 Z " fill="#73CB5A" transform="translate(579,196)"/>
<path d="M0 0 C3.31354735 0.57494524 4.84615078 1.50561907 7.09375 3.984375 C7.64933594 4.59023438 8.20492188 5.19609375 8.77734375 5.8203125 C9.63005859 6.77550781 9.63005859 6.77550781 10.5 7.75 C11.35271484 8.68199219 11.35271484 8.68199219 12.22265625 9.6328125 C14.64267088 12.2942671 16.97585925 14.9694502 19.20703125 17.79296875 C20.78498371 19.73532854 22.20204751 21.0770874 24.1875 22.5625 C29.31053594 26.82798428 33.52110094 32.33594212 37 38 C37 39.32 37 40.64 37 42 C37.88945313 42.08507812 37.88945313 42.08507812 38.796875 42.171875 C42.00901492 43.37927511 42.63958751 45.26370112 44.25 48.25 C46.79821133 52.84774044 49.41119476 57.3507655 52.1875 61.8125 C53.18330078 63.42898438 53.18330078 63.42898438 54.19921875 65.078125 C55.26010744 66.79948018 56.3239434 68.51903536 57.39453125 70.234375 C59.40046022 73.55160029 60 74.98946789 60 79 C60.66 79 61.32 79 62 79 C63.10557592 81.35351368 64.20948982 83.7077841 65.3125 86.0625 C65.62123047 86.71927734 65.92996094 87.37605469 66.24804688 88.05273438 C69.758993 95.55507187 72.91634829 103.18905609 76 110.875 C76.34289062 111.72191406 76.68578125 112.56882812 77.0390625 113.44140625 C85.83262067 135.35817527 90.83579554 157.98026828 93.63037109 181.38818359 C93.95176368 183.65915971 94.4405983 185.7808192 95 188 C100.32114952 250.40854381 89.70386016 313.72702022 59.20117188 368.81982422 C58.06563493 370.88086994 56.95916494 372.95487389 55.859375 375.03515625 C44.46867058 396.2960385 29.28489556 415.3029456 13 433 C11.45735073 434.72829011 9.91569143 436.45746434 8.375 438.1875 C2.28899614 444.93800688 -4.09742375 451.09343308 -11 457 C-11.91265625 457.80179688 -12.8253125 458.60359375 -13.765625 459.4296875 C-58.49008368 498.41765422 -113.13180406 521.58216989 -171.125 531.75 C-172.3217334 531.96084229 -173.5184668 532.17168457 -174.75146484 532.38891602 C-175.90855957 532.58541748 -177.0656543 532.78191895 -178.2578125 532.984375 C-179.2698877 533.15678711 -180.28196289 533.32919922 -181.32470703 533.50683594 C-190.27511678 534.70783419 -199.21419275 535.16664187 -208.23828125 535.23828125 C-209.26949097 535.24812042 -210.30070068 535.25795959 -211.36315918 535.26809692 C-260.56547508 535.64078576 -306.44851906 528.50118887 -351.6171875 508.07617188 C-353.84228647 507.07122964 -356.07610177 506.08883459 -358.3125 505.109375 C-377.84982215 496.40107483 -395.8336685 484.68285258 -413 472 C-413.63695801 471.52981445 -414.27391602 471.05962891 -414.93017578 470.57519531 C-421.72906718 465.4896924 -421.72906718 465.4896924 -424 463 C-424 456.74026099 -419.89308607 452.64640391 -416.29882812 447.76904297 C-415.11228627 446.15293727 -413.95307508 444.51685636 -412.796875 442.87890625 C-406.57088536 434.45732754 -399.36346626 427.04429175 -392 419.625 C-391.49161591 419.10876068 -390.98323181 418.59252136 -390.45944214 418.06063843 C-383.7868595 411.30801756 -376.89339864 405.32462481 -369 400 C-368.35724121 399.56123535 -367.71448242 399.1224707 -367.05224609 398.67041016 C-363.098536 396.01602004 -359.050892 393.50278041 -355 391 C-353.93394531 390.34128906 -352.86789062 389.68257812 -351.76953125 389.00390625 C-337.12430872 380.30775858 -321.48933034 373.16430255 -305.06054688 368.625 C-303.5407581 368.16402141 -302.03844001 367.64449097 -300.54882812 367.09375 C-291.94977061 363.95811594 -283.31186096 362.49194045 -274.29882812 361.13476562 C-271.73875772 360.74830289 -269.18194019 360.34410823 -266.625 359.9375 C-264.97411975 359.68124958 -263.32308289 359.42600566 -261.671875 359.171875 C-260.91960632 359.05318054 -260.16733765 358.93448608 -259.39227295 358.81219482 C-254.54297363 358.09154879 -249.90297739 357.8961527 -245 358 C-244.938125 357.34 -244.87625 356.68 -244.8125 356 C-242.72472014 348.29127438 -237.45112872 342.52067732 -231 338 C-224.38344933 334.69721103 -215.68310646 334.81391221 -208.6875 337.0625 C-201.65556551 340.25209054 -196.28428548 345.7593634 -192.84375 352.6171875 C-190.25585405 359.92559736 -191.82555041 368.09754911 -195 375 C-198.86733214 380.98440827 -204.12004567 385.88383427 -211 388 C-219.6875489 389.17569102 -227.52153304 389.11459717 -234.94140625 383.859375 C-238.73650171 380.43154684 -241.71378151 376.57243699 -244 372 C-254.62057529 372.34085642 -264.56874422 373.88923602 -274.90820312 376.27368164 C-277.25875742 376.81451497 -279.61314464 377.33517502 -281.96875 377.85351562 C-289.42733517 379.52224674 -296.62699959 381.36513363 -303.76855469 384.13598633 C-306.63231597 385.24483219 -309.54837155 386.0947324 -312.5 386.9375 C-317.74420915 388.51760572 -322.59520949 390.50634441 -327.53515625 392.859375 C-330 394 -330 394 -333.75 395.3125 C-348.0734348 400.58955492 -362.11669044 409.76884235 -373.8984375 419.359375 C-376 421 -376 421 -378 421 C-378 421.66 -378 422.32 -378 423 C-377.45214844 423.15855469 -376.90429688 423.31710937 -376.33984375 423.48046875 C-372.48240505 424.61574746 -368.65528318 425.76164074 -364.875 427.13671875 C-295.97858663 451.95508584 -214.75289737 436.79657634 -149.99853516 406.8828125 C-126.65778876 395.82060466 -104.97679022 382.37943719 -85 366 C-84.06285156 365.25492188 -83.12570312 364.50984375 -82.16015625 363.7421875 C-68.42553963 352.74661207 -55.29179976 340.50201638 -44 327 C-43.55849609 326.4829248 -43.11699219 325.96584961 -42.66210938 325.43310547 C-8.90289991 285.8003245 13.52911966 237.33353485 22 186 C22.19335938 184.92105469 22.38671875 183.84210938 22.5859375 182.73046875 C25.05459454 168.22263642 25.16760993 153.50323678 25.13037109 138.82397461 C25.12498142 136.3038132 25.13037382 133.78382816 25.13671875 131.26367188 C26.06695925 115.68228703 26.06695925 115.68228703 23 101 C22.8231378 98.94371059 22.65144146 96.88684817 22.50561523 94.828125 C21.48822002 80.91643516 18.64006344 67.49198165 15.63256836 53.89648438 C15.22599823 52.03482942 14.83844444 50.16886385 14.47485352 48.29833984 C13.89083495 45.47162994 12.96109777 42.84575472 12 40.125 C10.86027112 36.78722256 9.98318337 33.87807941 9.5 30.375 C8.9069161 26.3716837 7.53501927 23.06440747 5.9765625 19.34765625 C4.83663296 16.60726564 3.91991554 13.82107434 3 11 C2.20521926 8.93989669 1.40321568 6.88331857 0.5859375 4.83203125 C0 3 0 3 0 0 Z " fill="#3EC394" transform="translate(737,283)"/>
<path d="M0 0 C0.99 0.495 0.99 0.495 2 1 C-17.2144652 18.27631045 -37.66832287 31.44123457 -64.25 31.3125 C-65.35013428 31.31121094 -66.45026855 31.30992187 -67.58374023 31.30859375 C-75.42195395 31.21589553 -82.52228087 30.49752846 -90 28 C-90 27.67 -90 27.34 -90 27 C-89.07272095 26.93268677 -89.07272095 26.93268677 -88.12670898 26.86401367 C-61.61862675 24.88851576 -37.55005203 19.73634265 -13.625 7.9375 C-12.95839355 7.60903076 -12.29178711 7.28056152 -11.60498047 6.94213867 C-7.52150478 4.88601878 -3.7547049 2.60969427 0 0 Z " fill="#40C69C" transform="translate(654,619)"/>
<path d="M0 0 C3.85288019 3.15235652 5.53502908 4.59165291 6.1875 9.625 C5.57536667 14.69696187 3.40883661 17.40684821 0.0625 21.125 C-3.66507488 22.93841481 -7.19972177 23.008111 -11.25 22.25 C-14.41542066 20.56356024 -16.5476119 18.23972868 -18.625 15.3125 C-19.72083243 11.69625299 -20.0765401 8.82734147 -18.26953125 5.37890625 C-13.63031979 -1.48712672 -7.98006541 -4.2969583 0 0 Z " fill="#5ACB6C" transform="translate(546.25,530.75)"/>
<path d="M0 0 C0.33 0 0.66 0 1 0 C1.33 9.24 1.66 18.48 2 28 C7.30275952 23.36008542 12.53482238 18.69947165 17.703125 13.91796875 C19.75619065 12.2035891 21.55989475 11.05775205 24 10 C22.48947977 13.67670584 20.3511385 15.71874462 17.375 18.3125 C16.03695313 19.48232422 16.03695313 19.48232422 14.671875 20.67578125 C13.79015625 21.44277344 12.9084375 22.20976563 12 23 C10.86304688 24.04220703 10.86304688 24.04220703 9.703125 25.10546875 C9.01734375 25.73066406 8.3315625 26.35585938 7.625 27 C7.01914062 27.556875 6.41328125 28.11375 5.7890625 28.6875 C3.83771834 30.1190538 2.38930078 30.6746484 0 31 C-1 30 -1 30 -1.02172852 27.13256836 C-0.97459717 25.88096924 -0.92746582 24.62937012 -0.87890625 23.33984375 C-0.85529526 22.67537735 -0.83168427 22.01091095 -0.80735779 21.3263092 C-0.73056315 19.19649721 -0.64660787 17.06703454 -0.5625 14.9375 C-0.50929506 13.49676209 -0.45655457 12.05600695 -0.40429688 10.61523438 C-0.27492714 7.07660687 -0.13913259 3.53825859 0 0 Z " fill="#26AA66" transform="translate(373,566)"/>
<path d="M0 0 C0 3 0 3 -1.28515625 4.54296875 C-1.87167969 5.08566406 -2.45820312 5.62835938 -3.0625 6.1875 C-5.57904038 8.58896995 -7.90189401 11.01308678 -10.125 13.6875 C-15.22835734 19.63555096 -21.19084045 24.75865303 -27 30 C-27.66 29.67 -28.32 29.34 -29 29 C-19.43 19.43 -9.86 9.86 0 0 Z " fill="#94D54E" transform="translate(651,377)"/>
<path d="M0 0 C0.66 0.33 1.32 0.66 2 1 C0.41780528 3.54238159 -1.16571847 6.08391923 -2.75 8.625 C-3.41515625 9.69427734 -3.41515625 9.69427734 -4.09375 10.78515625 C-4.97292241 12.1944179 -5.85633298 13.60104517 -6.74414062 15.00488281 C-7.5481647 16.28219321 -8.3398063 17.56743486 -9.11523438 18.86230469 C-10.140625 20.5234375 -10.140625 20.5234375 -12 23 C-12.99 23 -13.98 23 -15 23 C-17.17032476 24.43990623 -17.17032476 24.43990623 -19 26 C-17.33627474 22.00512481 -14.57050806 19.02285347 -11.75 15.8125 C-7.40533403 10.78651303 -3.47679012 5.6772902 0 0 Z " fill="#A4DD5B" transform="translate(685,336)"/>
<path d="M0 0 C0.66 0.33 1.32 0.66 2 1 C-0.01484692 2.75731009 -2.03640442 4.50573809 -4.0625 6.25 C-4.62388672 6.74113281 -5.18527344 7.23226562 -5.76367188 7.73828125 C-9.62593323 11.04879098 -13.51311183 13.59937193 -18 16 C-17.8125 14.125 -17.8125 14.125 -17 12 C-14.4375 10.75 -14.4375 10.75 -12 10 C-12 9.01 -12 8.02 -12 7 C-9.4453125 5.140625 -9.4453125 5.140625 -6.125 3.25 C-5.03445313 2.61578125 -3.94390625 1.9815625 -2.8203125 1.328125 C-1.42425781 0.67070313 -1.42425781 0.67070313 0 0 Z " fill="#49CEA3" transform="translate(654,619)"/>
<path d="M0 0 C-9.33333333 4.66666667 -18.66666667 9.33333333 -28 14 C-28 13.34 -28 12.68 -28 12 C-4.8532207 -1.61774023 -4.8532207 -1.61774023 0 0 Z " fill="#25A887" transform="translate(410,662)"/>
<path d="M0 0 C6.27 0 12.54 0 19 0 C19 0.99 19 1.98 19 3 C12.2718373 3.22262303 6.46008837 2.95021536 0 1 C0 0.67 0 0.34 0 0 Z " fill="#33BD92" transform="translate(564,646)"/>
<path d="M0 0 C0.66 0.33 1.32 0.66 2 1 C1.01 1.99 0.02 2.98 -1 4 C-1.66 3.67 -2.32 3.34 -3 3 C-2.01 2.01 -1.02 1.02 0 0 Z M-5 4 C-4.34 4.33 -3.68 4.66 -3 5 C-11.261959 13.44646925 -11.261959 13.44646925 -16 17 C-16.66 16.67 -17.32 16.34 -18 16 C-13.84792208 11.7373638 -9.63678779 7.73204871 -5 4 Z " fill="#9FDC5C" transform="translate(316,260)"/>
<path d="M0 0 C0 3 0 3 -1.35546875 4.61328125 C-2.26232422 5.45439453 -2.26232422 5.45439453 -3.1875 6.3125 C-6.39511259 9.37668275 -9.21992289 12.5459648 -12 16 C-12.99 15.67 -13.98 15.34 -15 15 C-10.05 10.05 -5.1 5.1 0 0 Z " fill="#A1DC5B" transform="translate(651,377)"/>
<path d="M0 0 C0 3 0 3 -2.40625 5.48046875 C-3.43005231 6.39125392 -4.46167034 7.29331192 -5.5 8.1875 C-6.02464844 8.65091797 -6.54929687 9.11433594 -7.08984375 9.59179688 C-8.38666224 10.735355 -9.69249867 11.86867174 -11 13 C-11.66 12.34 -12.32 11.68 -13 11 C-11.39801112 9.53927468 -9.79332884 8.08150284 -8.1875 6.625 C-7.29417969 5.81289063 -6.40085937 5.00078125 -5.48046875 4.1640625 C-3 2 -3 2 0 0 Z " fill="#36B96F" transform="translate(396,576)"/>
<path d="M0 0 C0.66 0 1.32 0 2 0 C1.74481529 2.27264504 1.47030939 4.54312705 1.1875 6.8125 C1.03667969 8.07707031 0.88585937 9.34164063 0.73046875 10.64453125 C0.01844789 13.91525811 -0.36608673 15.058842 -3 17 C-2.25339288 11.27601207 -1.17122859 5.65146223 0 0 Z " fill="#90DF80" transform="translate(757,479)"/>
<path d="M0 0 C0.66 0.33 1.32 0.66 2 1 C-0.64 5.29 -3.28 9.58 -6 14 C-6.99 13.34 -7.98 12.68 -9 12 C-8.27683594 11.07767578 -8.27683594 11.07767578 -7.5390625 10.13671875 C-6.90742187 9.32847656 -6.27578125 8.52023437 -5.625 7.6875 C-4.99851562 6.88699219 -4.37203125 6.08648437 -3.7265625 5.26171875 C-2.42243282 3.55336788 -1.19218183 1.78827274 0 0 Z " fill="#B9E880" transform="translate(685,336)"/>
<path d="M0 0 C0 3 0 3 -1.75 5.04296875 C-2.4925 5.75066406 -3.235 6.45835937 -4 7.1875 C-4.7425 7.90292969 -5.485 8.61835938 -6.25 9.35546875 C-6.8275 9.89816406 -7.405 10.44085938 -8 11 C-8.99 10.67 -9.98 10.34 -11 10 C-5.555 5.05 -5.555 5.05 0 0 Z " fill="#92D559" transform="translate(618,409)"/>
<path d="M0 0 C0.99 0.495 0.99 0.495 2 1 C1.979375 1.845625 1.95875 2.69125 1.9375 3.5625 C2.00216232 7.11892777 2.4385496 10.49093503 3 14 C0.19954377 10.85408067 -0.35261589 8.932936 -0.1875 4.75 C-0.16042969 3.85796875 -0.13335938 2.9659375 -0.10546875 2.046875 C-0.07066406 1.37140625 -0.03585937 0.6959375 0 0 Z " fill="#BDE981" transform="translate(760,374)"/>
<path d="M0 0 C0.33 0.66 0.66 1.32 1 2 C-2.3 4.31 -5.6 6.62 -9 9 C-9.66 8.67 -10.32 8.34 -11 8 C-7.37 5.36 -3.74 2.72 0 0 Z " fill="#5ACB65" transform="translate(466,523)"/>
<path d="M0 0 C2.31 1.98 4.62 3.96 7 6 C6.01 6.33 5.02 6.66 4 7 C3.67 7.66 3.34 8.32 3 9 C2.01 6.03 1.02 3.06 0 0 Z " fill="#CDF064" transform="translate(733,276)"/>
<path d="M0 0 C0 4.38968456 -2.12805101 5.76905739 -5 9 C-5.33 8.34 -5.66 7.68 -6 7 C-4.02 4.69 -2.04 2.38 0 0 Z " fill="#4DCD98" transform="translate(692,611)"/>
</svg>
