<svg xmlns="http://www.w3.org/2000/svg" width="37" height="41" viewBox="0 0 37 41">
<g>
<path d="M 5.59 33.50 C5.24,34.88 4.52,36.00 3.98,36.00 C2.62,36.00 2.75,32.32 4.21,29.68 C4.87,28.48 5.52,25.95 5.66,24.05 C6.04,18.78 8.88,15.80 15.37,13.88 C18.50,12.95 22.16,11.47 23.50,10.59 C26.84,8.41 27.60,8.57 28.79,11.75 C31.82,19.78 30.82,25.85 25.63,30.87 C21.11,35.26 15.51,36.09 10.49,33.13 C8.51,31.96 6.74,31.00 6.55,31.00 C6.37,31.00 5.93,32.12 5.59,33.50 ZM 11.51 30.63 C14.88,33.09 20.27,32.34 23.77,28.92 C27.69,25.09 28.37,22.98 27.53,17.32 C26.97,13.65 26.55,12.97 25.18,13.54 C24.25,13.92 21.02,14.87 18.00,15.66 C12.18,17.18 8.00,20.69 8.00,24.06 C8.00,26.54 9.33,26.50 14.74,23.89 C17.14,22.72 19.35,22.02 19.65,22.32 C20.73,23.40 18.67,25.26 14.19,27.24 C9.95,29.12 9.76,29.35 11.51,30.63 Z" fill="rgb(34,156,95)"/>
<path d="M 0.00 20.50 L 0.00 0.00 L 18.50 0.00 L 37.00 0.00 L 37.00 20.50 L 37.00 41.00 L 18.50 41.00 L 0.00 41.00 L 0.00 20.50 ZM 5.59 33.50 C5.93,32.12 6.37,31.00 6.55,31.00 C6.74,31.00 8.51,31.96 10.49,33.13 C15.51,36.09 21.11,35.26 25.63,30.87 C30.82,25.85 31.82,19.78 28.79,11.75 C27.60,8.57 26.84,8.41 23.50,10.59 C22.16,11.47 18.50,12.95 15.37,13.88 C8.88,15.80 6.04,18.78 5.66,24.05 C5.52,25.95 4.87,28.48 4.21,29.68 C2.75,32.32 2.62,36.00 3.98,36.00 C4.52,36.00 5.24,34.88 5.59,33.50 ZM 11.51 30.63 C9.76,29.35 9.95,29.12 14.19,27.24 C18.67,25.26 20.73,23.40 19.65,22.32 C19.35,22.02 17.14,22.72 14.74,23.89 C9.33,26.50 8.00,26.54 8.00,24.06 C8.00,20.69 12.18,17.18 18.00,15.66 C21.02,14.87 24.25,13.92 25.18,13.54 C26.55,12.97 26.97,13.65 27.53,17.32 C28.37,22.98 27.69,25.09 23.77,28.92 C20.27,32.34 14.88,33.09 11.51,30.63 Z" fill="rgb(247,252,250)"/>
</g>
</svg>